# www.mecabricks.com
mtllib Untitled Model.mtl
o Part.1
v 10.748 2 10.748
v 0 2 15.2
v -5.817 2 14.043
v -10.748 2 10.748
v -14.043 2 5.817
v -15.2 2 0
v -14.043 2 -5.817
v 14.602 32.4 0.002
v 14.8 32.4 -0.129
v 15.002 32.4 0.002
v 13.859 32.4 -5.743
v 13.723 32.4 -5.542
v 13.489 32.4 -5.59
v 15.602 25.6 0.002
v 15.4 25.6 -0.133
v 15.202 25.6 0.001
v 14.043 25.6 -5.82
v 14.278 25.6 -5.769
v 14.413 25.6 -5.972
v 15.599 24 -0.137
v 15.802 24 0.002
v 14.598 24 -6.049
v 14.464 24 -5.843
v 14.229 24 -5.896
v 15.802 11.2 0.002
v 15.6 11.2 -0.136
v 15.401 11.2 0.002
v 14.229 11.2 -5.896
v 14.464 11.2 -5.843
v 14.598 11.2 -6.049
v 15.202 9.6 0.002
v 15.4 9.6 -0.133
v 15.602 9.6 0.002
v 14.413 9.6 -5.972
v 14.278 9.6 -5.771
v 14.044 9.6 -5.819
v 16.002 2.8 0.002
v 14.8 2.8 -0.131
v 14.602 2.8 0.002
v 13.49 2.8 -5.589
v 13.723 2.8 -5.543
v 14.783 2.8 -6.125
v 13.626 32.4 -5.787
v 10.606 32.4 -10.608
v 10.558 32.4 -10.377
v 10.323 32.4 -10.327
v 14.178 25.6 -6.021
v 10.746 25.6 -10.751
v 10.984 25.6 -10.8
v 11.03 25.6 -11.033
v 14.361 24 -6.101
v 11.171 24 -11.174
v 11.127 24 -10.939
v 10.888 24 -10.891
v 14.362 11.2 -6.1
v 11.127 11.2 -10.939
v 11.171 11.2 -11.174
v 14.178 9.6 -6.021
v 11.03 9.6 -11.033
v 10.983 9.6 -10.8
v 10.748 9.6 -10.75
v 13.625 2.8 -5.789
v 10.324 2.8 -10.326
v 10.557 2.8 -10.378
v 11.313 2.8 -11.315
v 10.372 32.4 -10.555
v 5.741 32.4 -13.858
v 5.784 32.4 -13.621
v 5.589 32.4 -13.489
v 10.793 25.6 -10.982
v 5.817 25.6 -14.043
v 6.016 25.6 -14.174
v 5.972 25.6 -14.412
v 10.932 24 -11.126
v 6.048 24 -14.597
v 6.095 24 -14.357
v 10.889 11.2 -10.89
v 6.095 11.2 -14.357
v 6.048 11.2 -14.597
v 10.793 9.6 -10.982
v 5.972 9.6 -14.412
v 6.015 9.6 -14.174
v 5.819 9.6 -14.043
v 10.371 2.8 -10.556
v 5.59 2.8 -13.488
v 5.783 2.8 -13.621
v 6.124 2.8 -14.782
v 5.549 32.4 -13.724
v 0.002 32.4 -15.002
v 0.135 32.4 -14.803
v 0.002 32.4 -14.602
v 5.775 25.6 -14.28
v 0.001 25.6 -15.202
v 0.138 25.6 -15.403
v 0.002 25.6 -15.602
v 5.895 24 -14.228
v 5.848 24 -14.466
v 0.002 24 -15.802
v 0.141 24 -15.603
v 5.897 11.2 -14.228
v 0.141 11.2 -15.603
v 0.002 11.2 -15.802
v 5.775 9.6 -14.28
v 0.002 9.6 -15.602
v 0.136 9.6 -15.403
v 0.002 9.6 -15.202
v 5.547 2.8 -13.725
v 0.002 2.8 -14.602
v 0.134 2.8 -14.803
v 0.002 2.8 -16.002
v -0.129 32.4 -14.8
v -5.743 32.4 -13.859
v -5.542 32.4 -13.723
v -5.589 32.4 -13.49
v -0.133 25.6 -15.4
v -5.82 25.6 -14.043
v -5.769 25.6 -14.279
v -5.972 25.6 -14.413
v 0.002 24 -15.402
v -0.137 24 -15.599
v -6.049 24 -14.598
v -5.843 24 -14.464
v 0.002 11.2 -15.401
v -5.843 11.2 -14.464
v -6.049 11.2 -14.598
v -0.133 9.6 -15.4
v -5.972 9.6 -14.413
v -5.771 9.6 -14.278
v -5.819 9.6 -14.044
v -0.131 2.8 -14.8
v -5.589 2.8 -13.49
v -5.543 2.8 -13.723
v -5.787 32.4 -13.626
v -10.608 32.4 -10.606
v -10.377 32.4 -10.558
v -10.325 32.4 -10.323
v -6.021 25.6 -14.178
v -10.751 25.6 -10.746
v -10.8 25.6 -10.984
v -11.033 25.6 -11.03
v -5.896 24 -14.229
v -6.101 24 -14.362
v -11.174 24 -11.171
v -10.939 24 -11.127
v -5.896 11.2 -14.229
v -10.939 11.2 -11.127
v -11.174 11.2 -11.171
v -6.021 9.6 -14.178
v -11.033 9.6 -11.03
v -10.8 9.6 -10.983
v -10.749 9.6 -10.748
v -6.125 2.8 -14.783
v -5.789 2.8 -13.625
v -10.325 2.8 -10.323
v -10.378 2.8 -10.557
v -11.315 2.8 -11.313
v -10.554 32.4 -10.372
v -13.858 32.4 -5.741
v -13.621 32.4 -5.784
v -13.488 32.4 -5.589
v -10.982 25.6 -10.793
v -14.043 25.6 -5.817
v -14.174 25.6 -6.016
v -14.41 25.6 -5.969
v -10.891 24 -10.888
v -11.125 24 -10.932
v -14.597 24 -6.048
v -14.357 24 -6.095
v -10.89 11.2 -10.889
v -14.357 11.2 -6.095
v -14.597 11.2 -6.048
v -10.982 9.6 -10.793
v -14.412 9.6 -5.972
v -14.174 9.6 -6.015
v -14.042 9.6 -5.819
v -10.556 2.8 -10.371
v -13.488 2.8 -5.59
v -13.621 2.8 -5.783
v -14.782 2.8 -6.124
v -13.724 32.4 -5.549
v -15.002 32.4 -0.002
v -14.803 32.4 -0.135
v -14.602 32.4 -0.002
v -14.414 25.6 -5.975
v -14.28 25.6 -5.775
v -15.202 25.6 -0.001
v -15.403 25.6 -0.138
v -15.602 25.6 -0.002
v -14.228 24 -5.895
v -14.466 24 -5.848
v -15.802 24 -0.002
v -15.603 24 -0.141
v -14.228 11.2 -5.897
v -15.603 11.2 -0.141
v -15.802 11.2 -0.002
v -14.28 9.6 -5.775
v -15.602 9.6 -0.002
v -15.403 9.6 -0.136
v -15.202 9.6 -0.002
v -13.725 2.8 -5.547
v -14.602 2.8 -0.002
v -14.803 2.8 -0.134
v -16.002 2.8 -0.002
v -14.8 32.4 0.129
v -13.723 32.4 5.542
v -13.489 32.4 5.589
v -15.4 25.6 0.133
v -14.043 25.6 5.82
v -14.278 25.6 5.769
v -14.413 25.6 5.972
v -15.402 24 -0.002
v -15.599 24 0.137
v -14.598 24 6.049
v -14.464 24 5.843
v -15.401 11.2 -0.002
v -14.464 11.2 5.843
v -14.598 11.2 6.049
v -15.4 9.6 0.133
v -14.413 9.6 5.972
v -14.278 9.6 5.771
v -14.044 9.6 5.819
v -14.8 2.8 0.131
v -13.49 2.8 5.589
v -13.723 2.8 5.543
v -13.626 32.4 5.787
v -13.859 32.4 5.743
v -10.606 32.4 10.608
v -10.558 32.4 10.377
v -10.323 32.4 10.327
v -14.178 25.6 6.021
v -10.746 25.6 10.751
v -10.984 25.6 10.8
v -11.03 25.6 11.033
v -14.228 24 5.896
v -14.361 24 6.101
v -11.171 24 11.174
v -11.127 24 10.939
v -14.229 11.2 5.896
v -10.889 11.2 10.89
v -11.127 11.2 10.939
v -11.171 11.2 11.174
v -14.178 9.6 6.021
v -11.03 9.6 11.033
v -10.983 9.6 10.8
v -10.748 9.6 10.751
v -14.783 2.8 6.125
v -13.625 2.8 5.789
v -10.324 2.8 10.326
v -10.557 2.8 10.378
v -11.313 2.8 11.315
v -5.741 32.4 13.858
v -5.784 32.4 13.621
v -5.589 32.4 13.489
v -5.817 25.6 14.043
v -6.016 25.6 14.174
v -5.969 25.6 14.41
v -10.932 24 11.125
v -6.048 24 14.597
v -6.095 24 14.357
v -5.896 24 14.227
v -10.933 11.2 11.125
v -5.897 11.2 14.228
v -6.095 11.2 14.357
v -6.048 11.2 14.597
v -5.972 9.6 14.412
v -6.015 9.6 14.174
v -5.819 9.6 14.043
v -10.371 2.8 10.556
v -5.59 2.8 13.488
v -5.783 2.8 13.621
v -6.124 2.8 14.782
v -5.549 32.4 13.724
v -0.002 32.4 15.002
v -0.135 32.4 14.803
v -0.002 32.4 14.602
v -5.975 25.6 14.414
v -5.775 25.6 14.28
v -0.001 25.6 15.202
v -0.138 25.6 15.403
v -0.002 25.6 15.602
v -5.848 24 14.466
v -0.002 24 15.802
v -0.141 24 15.603
v -0.002 24 15.402
v -5.849 11.2 14.466
v -0.002 11.2 15.401
v -0.141 11.2 15.603
v -0.002 11.2 15.802
v -5.775 9.6 14.28
v -0.002 9.6 15.602
v -0.136 9.6 15.403
v -0.002 9.6 15.202
v -5.547 2.8 13.725
v -0.002 2.8 14.602
v -0.134 2.8 14.803
v -0.002 2.8 16.002
v 0.129 32.4 14.8
v 5.589 32.4 13.49
v 0.133 25.6 15.4
v 5.82 25.6 14.043
v 5.769 25.6 14.278
v 5.972 25.6 14.413
v 0.137 24 15.599
v 6.049 24 14.598
v 5.843 24 14.464
v 5.895 24 14.229
v 0.136 11.2 15.6
v 5.896 11.2 14.229
v 5.843 11.2 14.464
v 6.049 11.2 14.598
v 0.133 9.6 15.4
v 5.972 9.6 14.413
v 5.771 9.6 14.278
v 5.819 9.6 14.044
v 0.131 2.8 14.8
v 5.589 2.8 13.49
v 5.543 2.8 13.723
v 6.125 2.8 14.783
v 5.787 32.4 13.626
v 5.743 32.4 13.859
v 10.608 32.4 10.606
v 10.377 32.4 10.558
v 10.325 32.4 10.323
v 6.021 25.6 14.178
v 10.751 25.6 10.746
v 10.8 25.6 10.984
v 11.029 25.6 11.029
v 6.101 24 14.362
v 11.174 24 11.171
v 10.939 24 11.127
v 10.891 24 10.889
v 6.1 11.2 14.362
v 10.89 11.2 10.889
v 10.939 11.2 11.127
v 11.174 11.2 11.171
v 6.021 9.6 14.178
v 11.033 9.6 11.03
v 10.8 9.6 10.983
v 10.749 9.6 10.748
v 5.789 2.8 13.625
v 10.325 2.8 10.323
v 10.378 2.8 10.557
v 11.315 2.8 11.313
v 10.554 32.4 10.372
v 13.858 32.4 5.741
v 13.621 32.4 5.784
v 13.488 32.4 5.589
v 10.982 25.6 10.793
v 14.043 25.6 5.817
v 14.174 25.6 6.016
v 14.412 25.6 5.972
v 11.125 24 10.932
v 14.597 24 6.048
v 14.357 24 6.095
v 14.227 24 5.896
v 11.125 11.2 10.933
v 14.228 11.2 5.897
v 14.357 11.2 6.095
v 14.597 11.2 6.048
v 10.982 9.6 10.793
v 14.412 9.6 5.972
v 14.174 9.6 6.015
v 14.042 9.6 5.819
v 10.556 2.8 10.371
v 13.488 2.8 5.59
v 13.621 2.8 5.783
v 14.782 2.8 6.124
v 13.724 32.4 5.549
v 14.803 32.4 0.135
v 14.28 25.6 5.775
v 15.403 25.6 0.138
v 14.466 24 5.848
v 15.603 24 0.141
v 15.402 24 0.002
v 14.466 11.2 5.849
v 15.603 11.2 0.141
v 14.28 9.6 5.775
v 15.403 9.6 0.136
v 13.725 2.8 5.547
v 14.803 2.8 0.134
v 13.4 3.6 0
v 12.38 3.6 -5.128
v 9.475 3.6 -9.475
v 5.128 3.6 -12.38
v 0 3.6 -13.4
v -5.128 3.6 -12.38
v -9.475 3.6 -9.475
v -12.38 3.6 -5.128
v -13.4 3.6 0
v -12.38 3.6 5.128
v -9.475 3.6 9.475
v -5.128 3.6 12.38
v 0 3.6 13.4
v 5.128 3.6 12.38
v 9.475 3.6 9.475
v 12.38 3.6 5.128
v 2.4 0.4 0
v 2.4 2 0
v 2.217 2 -0.918
v 2.217 0.4 -0.918
v 1.697 2 -1.697
v 1.697 0.4 -1.697
v 0.918 2 -2.217
v 0.918 0.4 -2.217
v 0 2 -2.4
v 0 0.4 -2.4
v -0.918 2 -2.217
v -0.918 0.4 -2.217
v -1.697 2 -1.697
v -1.697 0.4 -1.697
v -2.217 2 -0.918
v -2.217 0.4 -0.918
v -2.4 2 0
v -2.4 0.4 0
v -2.217 2 0.918
v -2.217 0.4 0.918
v -1.697 2 1.697
v -1.697 0.4 1.697
v -0.918 2 2.217
v -0.918 0.4 2.217
v 0 2 2.4
v 0 0.4 2.4
v 0.918 2 2.217
v 0.918 0.4 2.217
v 1.697 2 1.697
v 1.697 0.4 1.697
v 2.217 2 0.918
v 2.217 0.4 0.918
v 3.2 0.4 0
v 3.2 2 0
v 2.956 2 1.225
v 2.956 0.4 1.225
v 2.263 2 2.263
v 2.263 0.4 2.263
v 1.225 2 2.956
v 1.225 0.4 2.956
v 0 2 3.2
v 0 0.4 3.2
v -1.225 2 2.956
v -1.225 0.4 2.956
v -2.263 2 2.263
v -2.263 0.4 2.263
v -2.956 2 1.225
v -2.956 0.4 1.225
v -3.2 2 0
v -3.2 0.4 0
v -2.956 2 -1.225
v -2.956 0.4 -1.225
v -2.263 2 -2.263
v -2.263 0.4 -2.263
v -1.225 2 -2.956
v -1.225 0.4 -2.956
v 0 2 -3.2
v 0 0.4 -3.2
v 1.225 2 -2.956
v 1.225 0.4 -2.956
v 2.263 2 -2.263
v 2.263 0.4 -2.263
v 2.956 2 -1.225
v 2.956 0.4 -1.225
v 10.4 0.4 0
v 10.4 2 0
v 10.217 2 -0.918
v 10.217 0.4 -0.918
v 9.697 2 -1.697
v 9.697 0.4 -1.697
v 8.918 2 -2.217
v 8.918 0.4 -2.217
v 8 2 -2.4
v 8 0.4 -2.4
v 7.082 2 -2.217
v 7.082 0.4 -2.217
v 6.303 2 -1.697
v 6.303 0.4 -1.697
v 5.783 0.4 -0.918
v 5.6 2 0
v 5.6 0.4 0
v 5.783 2 0.918
v 5.783 0.4 0.918
v 6.303 2 1.697
v 6.303 0.4 1.697
v 7.082 2 2.217
v 7.082 0.4 2.217
v 8 2 2.4
v 8 0.4 2.4
v 8.918 2 2.217
v 8.918 0.4 2.217
v 9.697 2 1.697
v 9.697 0.4 1.697
v 10.217 2 0.918
v 10.217 0.4 0.918
v 11.2 0.4 0
v 11.2 2 0
v 10.956 2 1.225
v 10.956 0.4 1.225
v 10.263 2 2.263
v 10.263 0.4 2.263
v 9.225 2 2.956
v 9.225 0.4 2.956
v 8 2 3.2
v 8 0.4 3.2
v 6.775 2 2.956
v 6.775 0.4 2.956
v 5.737 2 2.263
v 5.737 0.4 2.263
v 5.044 2 1.225
v 5.044 0.4 1.225
v 4.8 2 0
v 4.8 0.4 0
v 5.044 2 -1.225
v 5.044 0.4 -1.225
v 5.737 2 -2.263
v 5.737 0.4 -2.263
v 6.775 2 -2.956
v 6.775 0.4 -2.956
v 8 2 -3.2
v 8 0.4 -3.2
v 9.225 2 -2.956
v 9.225 0.4 -2.956
v 10.263 2 -2.263
v 10.263 0.4 -2.263
v 10.956 2 -1.225
v 10.956 0.4 -1.225
v -5.6 0.4 0
v -5.6 2 0
v -5.783 2 -0.918
v -5.783 0.4 -0.918
v -6.303 2 -1.697
v -6.303 0.4 -1.697
v -7.082 2 -2.217
v -7.082 0.4 -2.217
v -8 2 -2.4
v -8 0.4 -2.4
v -8.918 2 -2.217
v -8.918 0.4 -2.217
v -9.697 2 -1.697
v -9.697 0.4 -1.697
v -10.217 2 -0.918
v -10.217 0.4 -0.918
v -10.4 2 0
v -10.4 0.4 0
v -10.217 2 0.918
v -10.217 0.4 0.918
v -9.697 2 1.697
v -9.697 0.4 1.697
v -8.918 2 2.217
v -8.918 0.4 2.217
v -8 2 2.4
v -8 0.4 2.4
v -7.082 2 2.217
v -7.082 0.4 2.217
v -6.303 2 1.697
v -6.303 0.4 1.697
v -5.783 2 0.918
v -5.783 0.4 0.918
v -4.8 0.4 0
v -4.8 2 0
v -5.044 2 1.225
v -5.044 0.4 1.225
v -5.737 2 2.263
v -5.737 0.4 2.263
v -6.775 2 2.956
v -6.775 0.4 2.956
v -8 2 3.2
v -8 0.4 3.2
v -9.225 2 2.956
v -9.225 0.4 2.956
v -10.263 2 2.263
v -10.263 0.4 2.263
v -10.956 2 1.225
v -10.956 0.4 1.225
v -11.2 2 0
v -11.2 0.4 0
v -10.956 2 -1.225
v -10.956 0.4 -1.225
v -10.263 2 -2.263
v -10.263 0.4 -2.263
v -9.225 2 -2.956
v -9.225 0.4 -2.956
v -8 2 -3.2
v -8 0.4 -3.2
v -6.775 2 -2.956
v -6.775 0.4 -2.956
v -5.737 2 -2.263
v -5.737 0.4 -2.263
v -5.044 2 -1.225
v -5.044 0.4 -1.225
v 2.4 0.4 -8
v 2.4 2 -8
v 2.217 2 -8.918
v 2.217 0.4 -8.918
v 1.697 2 -9.697
v 1.697 0.4 -9.697
v 0.918 2 -10.217
v 0.918 0.4 -10.217
v 0 2 -10.4
v 0 0.4 -10.4
v -0.918 2 -10.217
v -0.918 0.4 -10.217
v -1.697 2 -9.697
v -1.697 0.4 -9.697
v -2.217 2 -8.918
v -2.217 0.4 -8.918
v -2.4 2 -8
v -2.4 0.4 -8
v -2.217 2 -7.082
v -2.217 0.4 -7.082
v -1.697 2 -6.303
v -1.697 0.4 -6.303
v -0.918 2 -5.783
v -0.918 0.4 -5.783
v 0 2 -5.6
v 0 0.4 -5.6
v 0.918 2 -5.783
v 0.918 0.4 -5.783
v 1.697 2 -6.303
v 1.697 0.4 -6.303
v 2.217 2 -7.082
v 2.217 0.4 -7.082
v 3.2 0.4 -8
v 3.2 2 -8
v 2.956 2 -6.775
v 2.956 0.4 -6.775
v 2.263 2 -5.737
v 2.263 0.4 -5.737
v 1.225 2 -5.044
v 1.225 0.4 -5.044
v 0 2 -4.8
v 0 0.4 -4.8
v -1.225 2 -5.044
v -1.225 0.4 -5.044
v -2.263 2 -5.737
v -2.263 0.4 -5.737
v -2.956 2 -6.775
v -2.956 0.4 -6.775
v -3.2 2 -8
v -3.2 0.4 -8
v -2.956 2 -9.225
v -2.956 0.4 -9.225
v -2.263 2 -10.263
v -2.263 0.4 -10.263
v -1.225 2 -10.956
v -1.225 0.4 -10.956
v 0 2 -11.2
v 0 0.4 -11.2
v 1.225 2 -10.956
v 1.225 0.4 -10.956
v 2.263 2 -10.263
v 2.263 0.4 -10.263
v 2.956 2 -9.225
v 2.956 0.4 -9.225
v 2.4 0.4 8
v 2.4 2 8
v 2.217 2 7.082
v 2.217 0.4 7.082
v 1.697 2 6.303
v 1.697 0.4 6.303
v 0.918 2 5.783
v 0.918 0.4 5.783
v 0 2 5.6
v 0 0.4 5.6
v -0.918 2 5.783
v -0.918 0.4 5.783
v -1.697 2 6.303
v -1.697 0.4 6.303
v -2.217 2 7.082
v -2.217 0.4 7.082
v -2.4 2 8
v -2.4 0.4 8
v -2.217 2 8.918
v -2.217 0.4 8.918
v -1.697 2 9.697
v -1.697 0.4 9.697
v -0.918 2 10.217
v -0.918 0.4 10.217
v 0 2 10.4
v 0 0.4 10.4
v 0.918 2 10.217
v 0.918 0.4 10.217
v 1.697 2 9.697
v 1.697 0.4 9.697
v 2.217 2 8.918
v 2.217 0.4 8.918
v 3.2 0.4 8
v 3.2 2 8
v 2.956 2 9.225
v 2.956 0.4 9.225
v 2.263 2 10.263
v 2.263 0.4 10.263
v 1.225 2 10.956
v 1.225 0.4 10.956
v 0 2 11.2
v 0 0.4 11.2
v -1.225 2 10.956
v -1.225 0.4 10.956
v -2.263 2 10.263
v -2.263 0.4 10.263
v -2.956 2 9.225
v -2.956 0.4 9.225
v -3.2 2 8
v -3.2 0.4 8
v -2.956 2 6.775
v -2.956 0.4 6.775
v -2.263 2 5.737
v -2.263 0.4 5.737
v -1.225 2 5.044
v -1.225 0.4 5.044
v 0 2 4.8
v 0 0.4 4.8
v 1.225 2 5.044
v 1.225 0.4 5.044
v 2.263 2 5.737
v 2.263 0.4 5.737
v 2.956 2 6.775
v 2.956 0.4 6.775
v 6.123 2 14.782
v 0 2 16
v -11.314 2 11.314
v -16 2 0
v 14.782 0.02 6.125
v 14.782 2 6.123
v 14.043 2 5.817
v 14.042 0.02 5.818
v 13.279 0.02 8.867
v 13.276 2 8.868
v 12.627 2 8.431
v 12.627 0.02 8.431
v 11.314 2 11.314
v 11.314 2 -11.314
v 10.748 2 -10.748
v 8.43 2 -12.623
v 8.43 0.02 -12.623
v 5.818 0.02 -14.043
v 6.125 0.02 -14.782
v -11.314 2 -11.314
v -10.748 2 -10.748
v -13.274 2 -8.869
v -13.273 0.02 -8.869
v -14.042 0.02 -5.818
v -14.782 0.02 -6.125
v -8.866 2 13.275
v -8.863 0.02 13.275
v -5.818 0.02 14.043
v -8.438 2 -12.618
v -5.815 0.02 -14.044
v -8.438 0.02 -12.618
v -13.274 2 8.87
v -14.044 0.02 5.815
v -13.274 0.02 8.87
v 8.87 2 13.273
v 6.121 0.02 14.783
v 8.872 0.02 13.272
v 12.623 2 -8.434
v 14.783 0.02 -6.121
v 12.623 0.02 -8.434
v 5.817 2 -14.043
v 8.869 0.02 -13.274
v 8.869 2 -13.274
v -12.62 2 -8.435
v -12.62 0.02 -8.435
v -6.125 0.02 14.782
v -6.123 2 14.782
v -8.43 2 12.622
v -8.43 0.02 12.622
v -6.123 2 -14.782
v -6.122 0.02 -14.783
v -14.782 2 6.123
v -14.783 0.02 6.122
v -5.817 2 -14.043
v -8.869 2 -13.274
v -8.869 0.02 -13.274
v -12.618 0.02 8.439
v -12.618 2 8.439
v 8.436 0.02 12.62
v 8.436 2 12.62
v 13.273 2 -8.871
v 13.273 0.02 -8.873
v 14.65 17.6 -5.919
v 13.401 33.98 0.002
v 15.002 33.98 0.002
v 13.859 33.98 -5.743
v 14.412 17.6 -5.97
v 15.6 17.6 0
v 15.799 17.6 -0.138
v 11.269 17.6 -11.08
v 12.381 33.98 -5.13
v 10.606 33.98 -10.608
v 9.475 33.98 -9.476
v 11.03 17.6 -11.037
v 14.415 17.6 -5.974
v 14.546 17.6 -6.178
v 5.741 33.98 -13.858
v 5.129 33.98 -12.38
v 6.172 17.6 -14.542
v 5.968 17.6 -14.411
v 10.932 11.2 -11.125
v 11.072 17.6 -11.268
v 11.029 17.6 -11.03
v 0.002 33.98 -15.002
v 0.002 33.98 -13.402
v 0.141 17.6 -15.803
v 0.003 17.6 -15.604
v 5.975 17.6 -14.414
v 5.924 17.6 -14.651
v 5.848 11.2 -14.466
v 5.923 17.6 -14.651
v 5.974 17.6 -14.415
v -5.743 33.98 -13.859
v -5.13 33.98 -12.381
v -5.919 17.6 -14.649
v -5.97 17.6 -14.412
v 0.001 17.6 -15.6
v -0.137 17.6 -15.799
v -0.136 11.2 -15.6
v -0.138 17.6 -15.799
v 0 17.6 -15.6
v -10.608 33.98 -10.606
v -9.476 33.98 -9.475
v -11.08 17.6 -11.269
v -11.037 17.6 -11.03
v -5.974 17.6 -14.415
v -6.178 17.6 -14.546
v -6.101 11.2 -14.362
v -6.179 17.6 -14.545
v -5.975 17.6 -14.414
v -13.858 33.98 -5.741
v -12.38 33.98 -5.129
v -14.542 17.6 -6.172
v -14.41 17.6 -5.968
v -11.029 17.6 -11.03
v -11.267 17.6 -11.073
v -11.125 11.2 -10.932
v -11.268 17.6 -11.072
v -11.029 17.6 -11.029
v -15.002 33.98 -0.002
v -13.401 33.98 -0.002
v -15.803 17.6 -0.141
v -15.603 17.6 -0.003
v -14.414 17.6 -5.975
v -14.651 17.6 -5.924
v -14.466 11.2 -5.848
v -14.651 17.6 -5.923
v -14.414 17.6 -5.974
v -12.381 33.98 5.13
v -14.649 17.6 5.919
v -14.412 17.6 5.97
v -15.599 11.2 0.136
v -15.799 17.6 0.138
v -15.6 17.6 0
v -11.269 17.6 11.08
v -13.859 33.98 5.743
v -10.606 33.98 10.608
v -9.475 33.98 9.476
v -11.03 17.6 11.037
v -10.888 24 10.891
v -14.362 11.2 6.101
v -14.545 17.6 6.179
v -14.414 17.6 5.975
v -6.173 17.6 14.542
v -5.741 33.98 13.858
v -5.129 33.98 12.38
v -10.793 25.6 10.982
v -10.373 32.4 10.554
v -5.968 17.6 14.411
v -11.03 17.6 11.029
v -11.073 17.6 11.267
v -10.793 9.6 10.982
v -0.142 17.6 15.803
v -0.002 33.98 15.002
v -0.002 33.98 13.402
v -0.003 17.6 15.604
v -5.975 17.6 14.414
v -5.924 17.6 14.651
v -5.923 17.6 14.651
v -5.974 17.6 14.415
v 5.919 17.6 14.65
v 5.97 17.6 14.412
v 0 17.6 15.6
v 0.137 17.6 15.799
v 0.138 17.6 15.799
v 0.001 17.6 15.6
v 11.08 17.6 11.269
v 5.13 33.98 12.381
v 5.743 33.98 13.859
v 10.608 33.98 10.606
v 9.476 33.98 9.475
v 11.037 17.6 11.03
v 5.974 17.6 14.415
v 6.178 17.6 14.546
v 6.179 17.6 14.545
v 5.975 17.6 14.414
v 14.542 17.6 6.173
v 13.858 33.98 5.741
v 12.38 33.98 5.129
v 14.41 17.6 5.968
v 11.029 17.6 11.03
v 11.267 17.6 11.073
v 11.268 17.6 11.072
v 11.029 17.6 11.029
v 15.803 17.6 0.142
v 15.603 17.6 0.003
v 14.414 17.6 5.975
v 14.651 17.6 5.924
v 14.651 17.6 5.923
v 14.414 17.6 5.974
v -16 0.02 -0.002
v -15.2 0.02 -0.002
v 5.815 0.02 14.044
v -0.002 0.02 16
v -0.002 0.02 15.2
v 14.044 0.02 -5.815
v 16 0.02 0.002
v 15.2 0.02 0.002
v 0.002 0.02 -16
v 0.002 0.02 -15.2
v 6.123 2 -14.782
v 0 2 -16
v -14.782 2 -6.123
v 16 2 0
v 14.782 2 -6.123
v 5.817 2 14.043
v 14.043 2 -5.817
v 15.2 2 0
v 0 2 -15.2
v 0 3.6 0
v 5.543 32.4 13.72
v -11.117 3.6 7.428
v -12.798 9.6 8.557
v -12.445 33.98 8.317
v -13.274 2.8 8.871
v -12.3 2.8 8.224
v -12.301 32.4 8.222
v -12.445 32.4 8.317
v -12.965 24 8.668
v -12.799 25.6 8.556
v -12.965 11.2 8.668
v -13.131 17.6 8.779
v -12.942 25.6 8.65
v -13.108 24 8.761
v -11.117 33.98 7.43
v -13.108 11.2 8.761
v -12.942 9.6 8.65
v -8.661 11.2 12.962
v -8.661 24 12.962
v -7.428 3.6 11.117
v -8.217 2.8 12.298
v -8.218 32.4 12.297
v -8.55 25.6 12.796
v -8.55 9.6 12.796
v -8.772 17.6 13.128
v -8.647 25.6 12.942
v -8.759 24 13.109
v -8.315 32.4 12.445
v -8.315 33.98 12.445
v -7.428 33.98 11.118
v -8.759 11.2 13.109
v -8.648 9.6 12.943
v -8.87 2.8 13.275
v -3.046 24 15.295
v -3.04 25.6 15.268
v -3.008 25.6 15.099
v -3.047 11.2 15.295
v -2.608 3.6 13.113
v -2.89 2.8 14.511
v -2.892 32.4 14.511
v -3.007 9.6 15.099
v -3.086 17.6 15.491
v -3.115 2 15.658
v -3.114 0.02 15.658
v -3.078 24 15.463
v -2.921 32.4 14.68
v -2.921 33.98 14.68
v -2.61 33.98 13.114
v -3.078 11.2 15.463
v -3.039 9.6 15.267
v -3.116 2.8 15.659
v 3.003 9.6 15.096
v 3.002 25.6 15.096
v 2.886 2.8 14.508
v 2.608 3.6 13.113
v 3.042 24 15.292
v 3.041 11.2 15.293
v 3.115 2 15.658
v 3.115 0.02 15.659
v 3.081 17.6 15.488
v 3.037 25.6 15.268
v 3.076 24 15.463
v 2.92 32.4 14.681
v 2.885 32.4 14.507
v 2.92 33.98 14.681
v 2.609 33.98 13.115
v 3.076 11.2 15.463
v 3.037 9.6 15.268
v 3.115 2.8 15.659
v 7.43 33.98 11.117
v 8.556 25.6 12.799
v 8.317 32.4 12.445
v 8.317 33.98 12.445
v 8.222 32.4 12.301
v 8.667 11.2 12.965
v 8.557 9.6 12.799
v 7.428 3.6 11.117
v 8.668 24 12.965
v 8.224 2.8 12.3
v 8.779 17.6 13.131
v 8.648 25.6 12.942
v 8.761 24 13.108
v 8.761 11.2 13.108
v 8.65 9.6 12.942
v 8.871 2.8 13.274
v 12.796 25.6 8.55
v 12.962 24 8.661
v 12.796 9.6 8.55
v 12.962 11.2 8.662
v 11.117 3.6 7.428
v 12.298 2.8 8.217
v 12.297 32.4 8.218
v 13.128 17.6 8.772
v 12.941 25.6 8.648
v 13.109 24 8.759
v 12.445 32.4 8.315
v 12.445 33.98 8.315
v 11.117 33.98 7.428
v 13.109 11.2 8.759
v 12.943 9.6 8.648
v 13.275 2.8 8.87
v 15.099 25.6 3.008
v 15.295 11.2 3.047
v 15.295 24 3.046
v 13.113 3.6 2.608
v 14.511 2.8 2.89
v 15.099 9.6 3.007
v 14.511 32.4 2.892
v 15.491 17.6 3.086
v 15.658 2 3.115
v 15.658 0.02 3.113
v 15.267 25.6 3.039
v 15.463 24 3.078
v 14.68 32.4 2.921
v 14.68 33.98 2.921
v 13.114 33.98 2.61
v 15.463 11.2 3.078
v 15.267 9.6 3.039
v 15.659 2.8 3.116
v 14.509 32.4 -2.885
v 14.68 32.4 -2.92
v 15.268 25.6 -3.037
v 15.096 25.6 -3.002
v 15.659 2.8 -3.115
v 14.68 33.98 -2.92
v 14.508 2.8 -2.886
v 15.463 11.2 -3.076
v 15.292 11.2 -3.041
v 15.096 9.6 -3.003
v 15.268 9.6 -3.037
v 13.113 3.6 -2.608
v 15.658 2 -3.115
v 15.463 24 -3.076
v 15.292 24 -3.042
v 15.657 0.02 -3.116
v 15.488 17.6 -3.081
v 13.115 33.98 -2.609
v 12.798 9.6 -8.557
v 11.117 3.6 -7.428
v 12.965 24 -8.668
v 12.965 11.2 -8.667
v 12.3 2.8 -8.224
v 11.117 33.98 -7.43
v 12.799 25.6 -8.556
v 12.301 32.4 -8.222
v 13.131 17.6 -8.779
v 12.942 25.6 -8.65
v 13.108 24 -8.761
v 12.444 32.4 -8.317
v 12.444 33.98 -8.317
v 13.108 11.2 -8.761
v 12.942 9.6 -8.65
v 13.274 2.8 -8.871
v 7.428 3.6 -11.117
v 8.661 24 -12.962
v 8.217 2.8 -12.298
v 8.55 25.6 -12.796
v 8.218 32.4 -12.297
v 8.55 9.6 -12.796
v 8.772 17.6 -13.129
v 8.661 11.2 -12.962
v 8.648 25.6 -12.943
v 8.759 24 -13.109
v 8.315 32.4 -12.445
v 7.428 33.98 -11.118
v 8.315 33.98 -12.445
v 8.759 11.2 -13.109
v 8.648 9.6 -12.943
v 8.87 2.8 -13.275
v 3.114 2 -15.658
v 2.608 3.6 -13.113
v 3.046 24 -15.295
v 3.008 25.6 -15.099
v 3.007 9.6 -15.099
v 2.89 2.8 -14.511
v 2.892 32.4 -14.511
v 3.116 0.02 -15.656
v 3.046 11.2 -15.295
v 3.085 17.6 -15.491
v 3.039 25.6 -15.267
v 3.078 24 -15.463
v 2.921 32.4 -14.68
v 2.61 33.98 -13.114
v 2.921 33.98 -14.68
v 3.078 11.2 -15.463
v 3.039 9.6 -15.267
v 3.116 2.8 -15.659
v -3.003 9.6 -15.096
v -2.886 2.8 -14.508
v -2.885 32.4 -14.509
v -2.608 3.6 -13.113
v -3.002 25.6 -15.096
v -3.042 24 -15.292
v -3.081 17.6 -15.488
v -3.042 11.2 -15.293
v -3.115 2 -15.658
v -3.112 0.02 -15.658
v -3.037 25.6 -15.268
v -3.076 24 -15.464
v -2.92 32.4 -14.681
v -2.92 33.98 -14.681
v -2.609 33.98 -13.115
v -3.037 9.6 -15.268
v -3.076 11.2 -15.464
v -3.115 2.8 -15.659
v -8.224 2.8 -12.3
v -8.557 9.6 -12.799
v -7.428 3.6 -11.117
v -8.556 25.6 -12.799
v -8.668 24 -12.965
v -8.871 2.8 -13.274
v -8.222 32.4 -12.301
v -8.668 11.2 -12.965
v -8.779 17.6 -13.131
v -8.65 25.6 -12.942
v -8.761 24 -13.108
v -8.317 32.4 -12.445
v -8.317 33.98 -12.445
v -7.43 33.98 -11.117
v -8.761 11.2 -13.108
v -8.65 9.6 -12.942
v -12.298 2.8 -8.217
v -12.796 9.6 -8.55
v -12.796 25.6 -8.55
v -12.962 24 -8.661
v -11.117 3.6 -7.428
v -12.297 32.4 -8.218
v -12.962 11.2 -8.661
v -13.129 17.6 -8.772
v -12.942 25.6 -8.647
v -13.109 24 -8.759
v -12.445 32.4 -8.315
v -11.117 33.98 -7.429
v -12.445 33.98 -8.315
v -13.109 11.2 -8.759
v -12.943 9.6 -8.648
v -13.275 2.8 -8.87
v -15.268 25.6 -3.04
v -14.511 32.4 -2.892
v -15.295 24 -3.046
v -14.511 2.8 -2.89
v -13.113 3.6 -2.608
v -15.099 25.6 -3.008
v -15.657 0.02 -3.115
v -15.099 9.6 -3.007
v -15.658 2 -3.114
v -15.491 17.6 -3.085
v -15.295 11.2 -3.047
v -15.463 24 -3.078
v -14.68 32.4 -2.921
v -13.114 33.98 -2.61
v -14.68 33.98 -2.921
v -15.463 11.2 -3.078
v -15.267 9.6 -3.039
v -15.659 2.8 -3.116
v -15.096 25.6 3.002
v -15.096 9.6 3.003
v -14.508 2.8 2.886
v -13.113 3.6 2.608
v -14.509 32.4 2.885
v -15.292 24 3.042
v -15.488 17.6 3.081
v -15.292 11.2 3.042
v -15.658 2 3.115
v -15.658 0.02 3.114
v -15.268 25.6 3.037
v -15.463 24 3.076
v -14.68 32.4 2.92
v -13.115 33.98 2.609
v -14.68 33.98 2.92
v -15.463 11.2 3.076
v -15.268 9.6 3.037
v -15.659 2.8 3.115
v 5.783 2 -0.918
v -14.887 2 2.962
v -14.888 0.02 2.961
v -14.887 2 -2.961
v -14.887 0.02 -2.963
v -2.958 2 -14.888
v -2.957 0.02 -14.888
v 2.964 2 -14.885
v 2.966 0.02 -14.885
v 14.889 2 2.957
v 14.889 0.02 2.958
v 14.886 2 -2.966
v 14.887 0.02 -2.965
v -2.959 2 14.889
v -2.961 0.02 14.889
v 2.962 0.02 14.89
v 2.964 2 14.889
v 0.001 2 0
v -5.044 0.4 1.225
v -4.8 0.4 0
v -5.044 0.4 -1.225
v -5.737 0.4 -2.263
v -6.775 0.4 -2.956
v -8 0.4 -3.2
v -9.225 0.4 -2.956
v -10.263 0.4 -2.263
v -10.956 0.4 -1.225
v -11.2 0.4 0
v -10.956 0.4 1.225
v -10.263 0.4 2.263
v -9.225 0.4 2.956
v -8 0.4 3.2
v -6.775 0.4 2.956
v -5.737 0.4 2.263
v 13.621 32.4 5.784
v 13.621 32.4 5.784
v 12.297 32.4 8.218
v 10.554 32.4 10.372
v 10.554 32.4 10.372
v 10.982 25.6 10.793
v 10.982 25.6 10.793
v 12.796 25.6 8.55
v 14.174 25.6 6.016
v 14.174 25.6 6.016
v 14.043 25.6 5.817
v 14.043 25.6 5.817
v 14.28 25.6 5.775
v 14.28 25.6 5.775
v 15.099 25.6 3.008
v 15.403 25.6 0.138
v 15.403 25.6 0.138
v 15.202 25.6 0.001
v 15.202 25.6 0.001
v 15.4 25.6 -0.133
v 15.4 25.6 -0.133
v 15.096 25.6 -3.002
v 14.278 25.6 -5.769
v 14.278 25.6 -5.769
v 14.043 25.6 -5.82
v 14.043 25.6 -5.82
v 14.178 25.6 -6.021
v 14.178 25.6 -6.021
v 12.799 25.6 -8.556
v 10.984 25.6 -10.8
v 10.984 25.6 -10.8
v 10.558 32.4 -10.377
v 10.558 32.4 -10.377
v 12.301 32.4 -8.222
v 13.626 32.4 -5.787
v 13.626 32.4 -5.787
v 13.489 32.4 -5.59
v 10.323 32.4 -10.327
v 10.323 32.4 -10.327
v 10.372 32.4 -10.555
v 10.372 32.4 -10.555
v 8.218 32.4 -12.297
v 5.784 32.4 -13.621
v 5.784 32.4 -13.621
v 6.016 25.6 -14.174
v 6.016 25.6 -14.174
v 8.55 25.6 -12.796
v 10.793 25.6 -10.982
v 10.793 25.6 -10.982
v 10.746 25.6 -10.751
v 5.817 25.6 -14.043
v 5.817 25.6 -14.043
v 5.775 25.6 -14.28
v 5.775 25.6 -14.28
v 3.008 25.6 -15.099
v 0.138 25.6 -15.403
v 0.138 25.6 -15.403
v 0.001 25.6 -15.202
v 0.001 25.6 -15.202
v -0.133 25.6 -15.4
v -0.133 25.6 -15.4
v -3.002 25.6 -15.096
v -5.769 25.6 -14.279
v -5.769 25.6 -14.279
v -5.542 32.4 -13.723
v -5.542 32.4 -13.723
v -2.885 32.4 -14.509
v -0.129 32.4 -14.8
v -0.129 32.4 -14.8
v 0.002 32.4 -14.602
v -5.589 32.4 -13.49
v -5.589 32.4 -13.49
v -5.787 32.4 -13.626
v -5.787 32.4 -13.626
v -8.222 32.4 -12.301
v -10.377 32.4 -10.558
v -10.377 32.4 -10.558
v -10.8 25.6 -10.984
v -10.8 25.6 -10.984
v -8.556 25.6 -12.799
v -6.021 25.6 -14.178
v -6.021 25.6 -14.178
v -5.82 25.6 -14.043
v -10.751 25.6 -10.746
v -10.751 25.6 -10.746
v -10.982 25.6 -10.793
v -10.982 25.6 -10.793
v -12.796 25.6 -8.55
v -14.174 25.6 -6.016
v -14.174 25.6 -6.016
v -13.621 32.4 -5.784
v -13.621 32.4 -5.784
v -12.297 32.4 -8.218
v -10.554 32.4 -10.372
v -10.554 32.4 -10.372
v -10.325 32.4 -10.323
v -13.488 32.4 -5.589
v -13.488 32.4 -5.589
v -13.724 32.4 -5.549
v -13.724 32.4 -5.549
v -14.511 32.4 -2.892
v -14.803 32.4 -0.135
v -14.803 32.4 -0.135
v -15.403 25.6 -0.138
v -15.403 25.6 -0.138
v -15.099 25.6 -3.008
v -14.28 25.6 -5.775
v -14.28 25.6 -5.775
v -14.043 25.6 -5.817
v -15.202 25.6 -0.001
v -15.202 25.6 -0.001
v -15.4 25.6 0.133
v -15.4 25.6 0.133
v -15.096 25.6 3.002
v -14.278 25.6 5.769
v -14.278 25.6 5.769
v -13.723 32.4 5.542
v -13.723 32.4 5.542
v -14.509 32.4 2.885
v -14.8 32.4 0.129
v -14.8 32.4 0.129
v -14.602 32.4 -0.002
v -13.489 32.4 5.589
v -13.489 32.4 5.589
v -13.626 32.4 5.787
v -13.626 32.4 5.787
v -12.301 32.4 8.222
v -10.558 32.4 10.377
v -10.558 32.4 10.377
v -10.323 32.4 10.327
v -10.323 32.4 10.327
v -10.373 32.4 10.554
v -10.373 32.4 10.554
v -8.218 32.4 12.297
v -5.784 32.4 13.621
v -5.784 32.4 13.621
v -5.589 32.4 13.489
v -5.589 32.4 13.489
v -5.549 32.4 13.724
v -5.549 32.4 13.724
v -2.892 32.4 14.511
v -0.135 32.4 14.803
v -0.135 32.4 14.803
v -0.138 25.6 15.403
v -0.138 25.6 15.403
v -3.008 25.6 15.099
v -5.775 25.6 14.28
v -5.775 25.6 14.28
v -5.817 25.6 14.043
v -0.001 25.6 15.202
v -0.001 25.6 15.202
v 0.133 25.6 15.4
v 0.133 25.6 15.4
v 3.002 25.6 15.096
v 5.769 25.6 14.278
v 5.769 25.6 14.278
v 5.82 25.6 14.043
v 5.82 25.6 14.043
v 6.021 25.6 14.178
v 6.021 25.6 14.178
v 8.556 25.6 12.799
v 10.8 25.6 10.984
v 10.8 25.6 10.984
v 10.751 25.6 10.746
v 10.751 25.6 10.746
v 10.325 32.4 10.323
v 10.377 32.4 10.558
v 10.377 32.4 10.558
v 10.325 32.4 10.323
v 8.222 32.4 12.301
v 5.787 32.4 13.626
v 5.589 32.4 13.49
v 5.589 32.4 13.49
v 5.787 32.4 13.626
v 5.543 32.4 13.72
v 5.543 32.4 13.72
v 2.885 32.4 14.507
v 0.129 32.4 14.8
v -0.002 32.4 14.602
v -5.817 25.6 14.043
v -5.817 25.6 14.043
v -6.016 25.6 14.174
v -6.016 25.6 14.174
v -8.55 25.6 12.796
v -10.793 25.6 10.982
v -10.746 25.6 10.751
v -10.746 25.6 10.751
v -10.984 25.6 10.8
v -10.793 25.6 10.982
v -10.984 25.6 10.8
v -12.799 25.6 8.556
v -14.178 25.6 6.021
v -14.178 25.6 6.021
v -14.043 25.6 5.82
v -14.043 25.6 5.82
v -14.602 32.4 -0.002
v -14.043 25.6 -5.817
v -10.325 32.4 -10.323
v -5.82 25.6 -14.043
v 0.135 32.4 -14.803
v 0.135 32.4 -14.803
v 0.002 32.4 -14.602
v 2.892 32.4 -14.511
v 5.549 32.4 -13.724
v 5.549 32.4 -13.724
v 5.589 32.4 -13.489
v 5.589 32.4 -13.489
v 10.746 25.6 -10.751
v 13.489 32.4 -5.59
v 13.723 32.4 -5.542
v 13.723 32.4 -5.542
v 14.509 32.4 -2.885
v 14.8 32.4 -0.129
v 14.602 32.4 0.002
v 14.602 32.4 0.002
v 14.803 32.4 0.135
v 14.8 32.4 -0.129
v 14.803 32.4 0.135
v 14.511 32.4 2.892
v 13.724 32.4 5.549
v 13.724 32.4 5.549
v 13.488 32.4 5.589
v 13.488 32.4 5.589
v 10.939 11.2 11.127
v 10.939 11.2 11.127
v 10.89 11.2 10.889
v 8.667 11.2 12.965
v 6.1 11.2 14.362
v 11.08 17.6 11.269
v 10.939 24 11.127
v 10.939 24 11.127
v 10.891 24 10.889
v 8.668 24 12.965
v 6.101 24 14.362
v 6.101 24 14.362
v 5.895 24 14.229
v 6.178 17.6 14.546
v 3.2 0.4 8
v 2.956 0.4 9.225
v 2.263 0.4 10.263
v 1.225 0.4 10.956
v 0 0.4 11.2
v -1.225 0.4 10.956
v -2.263 0.4 10.263
v -2.956 0.4 9.225
v -3.2 0.4 8
v -2.956 0.4 6.775
v -2.263 0.4 5.737
v -1.225 0.4 5.044
v 0 0.4 4.8
v 1.225 0.4 5.044
v 2.263 0.4 5.737
v 2.956 0.4 6.775
v 14.357 11.2 6.095
v 14.357 11.2 6.095
v 14.228 11.2 5.897
v 12.962 11.2 8.662
v 11.125 11.2 10.933
v 14.542 17.6 6.173
v 14.357 24 6.095
v 14.357 24 6.095
v 14.227 24 5.896
v 12.962 24 8.661
v 11.125 24 10.932
v 11.125 24 10.932
v 10.891 24 10.889
v 11.267 17.6 11.073
v 8.43 0.02 -12.623
v 8.43 0.02 -12.623
v 8.43 2 -12.623
v 8.43 2 -12.623
v 8.869 2 -13.274
v 8.869 2 -13.274
v 8.869 0.02 -13.274
v 8.869 0.02 -13.274
v 6.125 0.02 -14.782
v 3.116 0.02 -15.656
v 0.002 0.02 -16
v -3.112 0.02 -15.658
v -6.122 0.02 -14.783
v -8.869 0.02 -13.274
v -8.869 0.02 -13.274
v -8.869 2 -13.274
v -8.869 2 -13.274
v -8.438 2 -12.618
v -8.438 2 -12.618
v -8.438 0.02 -12.618
v -8.438 0.02 -12.618
v -5.815 0.02 -14.044
v -2.957 0.02 -14.888
v 0.002 0.02 -15.2
v 2.966 0.02 -14.885
v 5.818 0.02 -14.043
v -5.817 2 -14.043
v -2.958 2 -14.888
v 0 2 -15.2
v 2.964 2 -14.885
v 5.817 2 -14.043
v -11.314 2 -11.314
v -13.274 2 -8.869
v -13.274 2 -8.869
v -12.62 2 -8.435
v -12.62 2 -8.435
v -14.043 2 -5.817
v -14.887 2 -2.961
v -15.2 2 0
v -14.887 2 2.962
v -14.043 2 5.817
v -12.618 2 8.439
v -12.618 2 8.439
v -12.618 0.02 8.439
v -12.618 0.02 8.439
v -14.044 0.02 5.815
v -14.888 0.02 2.961
v -15.2 0.02 -0.002
v -14.887 0.02 -2.963
v -14.042 0.02 -5.818
v -12.62 0.02 -8.435
v -13.274 0.02 8.87
v -13.274 0.02 8.87
v -13.274 2 8.87
v -14.783 0.02 6.122
v -15.658 0.02 3.114
v -16 0.02 -0.002
v -15.657 0.02 -3.115
v -14.782 0.02 -6.125
v -13.273 0.02 -8.869
v -12.62 0.02 -8.435
v -13.273 0.02 -8.869
v 11.314 2 -11.314
v 13.273 2 -8.871
v 13.273 2 -8.871
v 12.623 2 -8.434
v 12.623 2 -8.434
v 12.623 0.02 -8.434
v 12.623 0.02 -8.434
v 13.273 0.02 -8.873
v 14.044 0.02 -5.815
v 14.887 0.02 -2.965
v 15.2 0.02 0.002
v 14.889 0.02 2.958
v 14.042 0.02 5.818
v 12.627 0.02 8.431
v 12.627 0.02 8.431
v 13.279 0.02 8.867
v 13.279 0.02 8.867
v 13.276 2 8.868
v 13.276 2 8.868
v 12.627 2 8.431
v 11.314 2 11.314
v 8.87 2 13.273
v 8.87 2 13.273
v 8.436 2 12.62
v 8.436 2 12.62
v 5.817 2 14.043
v 2.964 2 14.889
v 0 2 15.2
v -2.959 2 14.889
v -5.817 2 14.043
v -8.43 2 12.622
v -8.43 2 12.622
v -8.43 0.02 12.622
v -8.43 0.02 12.622
v -5.818 0.02 14.043
v -2.961 0.02 14.889
v -0.002 0.02 15.2
v 2.962 0.02 14.89
v 5.815 0.02 14.044
v 8.436 0.02 12.62
v 8.436 0.02 12.62
v 8.872 0.02 13.272
v 8.872 0.02 13.272
v 6.121 0.02 14.783
v 3.115 0.02 15.659
v -0.002 0.02 16
v -3.114 0.02 15.658
v -6.125 0.02 14.782
v -8.863 0.02 13.275
v -8.863 0.02 13.275
v -8.866 2 13.275
v 14.782 0.02 6.125
v 15.658 0.02 3.113
v 16 0.02 0.002
v 15.657 0.02 -3.116
v 14.783 0.02 -6.121
v 13.273 0.02 -8.873
v 12.627 2 8.431
v 14.043 2 5.817
v 14.889 2 2.957
v 15.2 2 0
v 14.886 2 -2.966
v 14.043 2 -5.817
v -7.082 0.4 2.217
v -8 0.4 2.4
v -8.918 0.4 2.217
v -9.697 0.4 1.697
v -10.217 0.4 0.918
v -10.4 0.4 0
v -10.217 0.4 -0.918
v -9.697 0.4 -1.697
v -8.918 0.4 -2.217
v -8 0.4 -2.4
v -7.082 0.4 -2.217
v -6.303 0.4 -1.697
v -5.783 0.4 -0.918
v -5.6 0.4 0
v -5.783 0.4 0.918
v -6.303 0.4 1.697
v -14.174 9.6 -6.015
v -14.174 9.6 -6.015
v -12.796 9.6 -8.55
v -10.982 9.6 -10.793
v -10.982 9.6 -10.793
v -10.749 9.6 -10.748
v -10.749 9.6 -10.748
v -10.8 9.6 -10.983
v -10.8 9.6 -10.983
v -8.557 9.6 -12.799
v -6.021 9.6 -14.178
v -6.021 9.6 -14.178
v -5.819 9.6 -14.044
v -5.819 9.6 -14.044
v -5.771 9.6 -14.278
v -5.771 9.6 -14.278
v -3.003 9.6 -15.096
v -0.133 9.6 -15.4
v -0.133 9.6 -15.4
v -0.131 2.8 -14.8
v -0.131 2.8 -14.8
v -2.886 2.8 -14.508
v -5.543 2.8 -13.723
v -5.543 2.8 -13.723
v -5.589 2.8 -13.49
v 0.002 2.8 -14.602
v 0.002 2.8 -14.602
v 0.134 2.8 -14.803
v 0.134 2.8 -14.803
v 2.89 2.8 -14.511
v 5.547 2.8 -13.725
v 5.547 2.8 -13.725
v 5.59 2.8 -13.488
v 5.59 2.8 -13.488
v 5.783 2.8 -13.621
v 5.783 2.8 -13.621
v 8.217 2.8 -12.298
v 10.371 2.8 -10.556
v 10.371 2.8 -10.556
v 10.793 9.6 -10.982
v 10.793 9.6 -10.982
v 8.55 9.6 -12.796
v 6.015 9.6 -14.174
v 6.015 9.6 -14.174
v 5.819 9.6 -14.043
v 10.748 9.6 -10.75
v 10.748 9.6 -10.75
v 10.983 9.6 -10.8
v 10.983 9.6 -10.8
v 12.798 9.6 -8.557
v 14.178 9.6 -6.021
v 14.178 9.6 -6.021
v 13.625 2.8 -5.789
v 13.625 2.8 -5.789
v 12.3 2.8 -8.224
v 10.557 2.8 -10.378
v 10.557 2.8 -10.378
v 10.324 2.8 -10.326
v 13.49 2.8 -5.589
v 13.49 2.8 -5.589
v 13.723 2.8 -5.543
v 13.723 2.8 -5.543
v 14.508 2.8 -2.886
v 14.8 2.8 -0.131
v 14.8 2.8 -0.131
v 14.602 2.8 0.002
v 14.602 2.8 0.002
v 14.803 2.8 0.134
v 14.803 2.8 0.134
v 14.511 2.8 2.89
v 13.725 2.8 5.547
v 13.725 2.8 5.547
v 14.28 9.6 5.775
v 14.28 9.6 5.775
v 15.099 9.6 3.007
v 15.403 9.6 0.136
v 15.403 9.6 0.136
v 15.202 9.6 0.002
v 14.042 9.6 5.819
v 14.042 9.6 5.819
v 14.174 9.6 6.015
v 14.174 9.6 6.015
v 12.796 9.6 8.55
v 10.982 9.6 10.793
v 10.982 9.6 10.793
v 10.749 9.6 10.748
v 10.749 9.6 10.748
v 10.8 9.6 10.983
v 10.8 9.6 10.983
v 8.557 9.6 12.799
v 6.021 9.6 14.178
v 6.021 9.6 14.178
v 5.789 2.8 13.625
v 5.789 2.8 13.625
v 8.224 2.8 12.3
v 10.378 2.8 10.557
v 5.589 2.8 13.49
v 5.589 2.8 13.49
v 5.543 2.8 13.723
v 5.543 2.8 13.723
v 2.886 2.8 14.508
v 0.131 2.8 14.8
v 0.131 2.8 14.8
v 0.133 9.6 15.4
v 0.133 9.6 15.4
v 3.003 9.6 15.096
v 5.771 9.6 14.278
v 5.771 9.6 14.278
v 5.819 9.6 14.044
v -0.002 9.6 15.202
v -0.002 9.6 15.202
v -0.136 9.6 15.403
v -0.136 9.6 15.403
v -3.007 9.6 15.099
v -5.775 9.6 14.28
v -5.775 9.6 14.28
v -5.819 9.6 14.043
v -5.819 9.6 14.043
v -6.015 9.6 14.174
v -6.015 9.6 14.174
v -8.55 9.6 12.796
v -10.793 9.6 10.982
v -10.793 9.6 10.982
v -10.748 9.6 10.751
v -10.748 9.6 10.751
v -10.983 9.6 10.8
v -10.983 9.6 10.8
v -12.798 9.6 8.557
v -14.178 9.6 6.021
v -14.178 9.6 6.021
v -13.625 2.8 5.789
v -13.625 2.8 5.789
v -12.3 2.8 8.224
v -10.557 2.8 10.378
v -10.557 2.8 10.378
v -10.324 2.8 10.326
v -13.49 2.8 5.589
v -13.49 2.8 5.589
v -13.723 2.8 5.543
v -13.723 2.8 5.543
v -14.508 2.8 2.886
v -14.8 2.8 0.131
v -14.8 2.8 0.131
v -14.602 2.8 -0.002
v -14.602 2.8 -0.002
v -14.803 2.8 -0.134
v -14.803 2.8 -0.134
v -14.511 2.8 -2.89
v -13.725 2.8 -5.547
v -13.725 2.8 -5.547
v -13.488 2.8 -5.59
v -13.488 2.8 -5.59
v -13.621 2.8 -5.783
v -14.042 9.6 -5.819
v -14.042 9.6 -5.819
v -14.28 9.6 -5.775
v -14.28 9.6 -5.775
v -15.099 9.6 -3.007
v -15.403 9.6 -0.136
v -15.403 9.6 -0.136
v -15.202 9.6 -0.002
v -15.4 9.6 0.133
v -15.4 9.6 0.133
v -15.202 9.6 -0.002
v -15.096 9.6 3.003
v -14.278 9.6 5.771
v -14.044 9.6 5.819
v -14.044 9.6 5.819
v -14.278 9.6 5.771
v -10.371 2.8 10.556
v -10.371 2.8 10.556
v -10.324 2.8 10.326
v -8.217 2.8 12.298
v -5.783 2.8 13.621
v -5.59 2.8 13.488
v -5.59 2.8 13.488
v -5.783 2.8 13.621
v -5.547 2.8 13.725
v -5.547 2.8 13.725
v -2.89 2.8 14.511
v -0.134 2.8 14.803
v -0.002 2.8 14.602
v -0.002 2.8 14.602
v -0.134 2.8 14.803
v 5.819 9.6 14.044
v 10.325 2.8 10.323
v 10.325 2.8 10.323
v 10.378 2.8 10.557
v 10.556 2.8 10.371
v 10.556 2.8 10.371
v 12.298 2.8 8.217
v 13.621 2.8 5.783
v 13.488 2.8 5.59
v 15.202 9.6 0.002
v 15.4 9.6 -0.133
v 15.4 9.6 -0.133
v 15.096 9.6 -3.003
v 14.278 9.6 -5.771
v 14.044 9.6 -5.819
v 10.324 2.8 -10.326
v 5.775 9.6 -14.28
v 5.775 9.6 -14.28
v 5.819 9.6 -14.043
v 3.007 9.6 -15.099
v 0.136 9.6 -15.403
v 0.002 9.6 -15.202
v -5.589 2.8 -13.49
v -5.789 2.8 -13.625
v -5.789 2.8 -13.625
v -8.224 2.8 -12.3
v -10.378 2.8 -10.557
v -10.325 2.8 -10.323
v -10.325 2.8 -10.323
v -10.378 2.8 -10.557
v -10.556 2.8 -10.371
v -10.556 2.8 -10.371
v -12.298 2.8 -8.217
v -13.621 2.8 -5.783
v -10.891 24 -10.888
v -10.891 24 -10.888
v -10.939 24 -11.127
v -10.939 24 -11.127
v -8.668 24 -12.965
v -6.101 24 -14.362
v -11.08 17.6 -11.269
v -10.939 11.2 -11.127
v -10.939 11.2 -11.127
v -10.89 11.2 -10.889
v -8.668 11.2 -12.965
v -6.101 11.2 -14.362
v -6.101 11.2 -14.362
v -5.896 11.2 -14.229
v -6.179 17.6 -14.545
v -11.125 24 -10.932
v 3.2 0.4 0
v 2.956 0.4 1.225
v 2.263 0.4 2.263
v 1.225 0.4 2.956
v 0 0.4 3.2
v -1.225 0.4 2.956
v -2.263 0.4 2.263
v -2.956 0.4 1.225
v -3.2 0.4 0
v -2.956 0.4 -1.225
v -2.263 0.4 -2.263
v -1.225 0.4 -2.956
v 0 0.4 -3.2
v 1.225 0.4 -2.956
v 2.263 0.4 -2.263
v 2.956 0.4 -1.225
v -14.228 24 -5.895
v -14.228 24 -5.895
v -14.357 24 -6.095
v -14.357 24 -6.095
v -12.962 24 -8.661
v -11.125 24 -10.932
v -14.542 17.6 -6.172
v -14.357 11.2 -6.095
v -14.357 11.2 -6.095
v -14.228 11.2 -5.897
v -12.962 11.2 -8.661
v -11.125 11.2 -10.932
v -11.125 11.2 -10.932
v -10.89 11.2 -10.889
v -11.268 17.6 -11.072
v -14.466 24 -5.848
v 0.918 0.4 -10.217
v 1.697 0.4 -9.697
v 2.217 0.4 -8.918
v 2.4 0.4 -8
v 2.217 0.4 -7.082
v 1.697 0.4 -6.303
v 0.918 0.4 -5.783
v 0 0.4 -5.6
v -0.918 0.4 -5.783
v -1.697 0.4 -6.303
v -2.217 0.4 -7.082
v -2.4 0.4 -8
v -2.217 0.4 -8.918
v -1.697 0.4 -9.697
v -0.918 0.4 -10.217
v 0 0.4 -10.4
v -0.136 11.2 -15.6
v -0.136 11.2 -15.6
v 0.002 11.2 -15.401
v -3.042 11.2 -15.293
v -5.843 11.2 -14.464
v -5.843 11.2 -14.464
v -5.896 11.2 -14.229
v -5.919 17.6 -14.649
v -5.843 24 -14.464
v -5.843 24 -14.464
v -5.896 24 -14.229
v -3.042 24 -15.292
v -0.137 24 -15.599
v -0.138 17.6 -15.799
v 15.6 11.2 -0.136
v 15.6 11.2 -0.136
v 15.292 11.2 -3.041
v 14.464 11.2 -5.843
v 14.464 11.2 -5.843
v 14.229 11.2 -5.896
v 14.65 17.6 -5.919
v 14.464 24 -5.843
v 14.464 24 -5.843
v 14.229 24 -5.896
v 15.292 24 -3.042
v 15.599 24 -0.137
v 15.599 24 -0.137
v 15.402 24 0.002
v 15.799 17.6 -0.138
v 15.401 11.2 0.002
v 15.603 24 0.141
v 15.603 24 0.141
v 15.402 24 0.002
v 15.295 24 3.046
v 14.466 24 5.848
v 14.466 24 5.848
v 14.227 24 5.896
v 14.651 17.6 5.924
v 15.803 17.6 0.142
v 15.603 11.2 0.141
v 15.603 11.2 0.141
v 15.401 11.2 0.002
v 15.295 11.2 3.047
v 14.466 11.2 5.849
v 2.4 0.4 0
v 2.217 0.4 -0.918
v 1.697 0.4 -1.697
v 0.918 0.4 -2.217
v 0 0.4 -2.4
v -0.918 0.4 -2.217
v -1.697 0.4 -1.697
v -2.217 0.4 -0.918
v -2.4 0.4 0
v -2.217 0.4 0.918
v -1.697 0.4 1.697
v -0.918 0.4 2.217
v 0 0.4 2.4
v 0.918 0.4 2.217
v 1.697 0.4 1.697
v 2.217 0.4 0.918
v 4.8 0.4 0
v 5.044 0.4 1.225
v 5.737 0.4 2.263
v 6.775 0.4 2.956
v 8 0.4 3.2
v 9.225 0.4 2.956
v 10.263 0.4 2.263
v 10.956 0.4 1.225
v 11.2 0.4 0
v 10.956 0.4 -1.225
v 10.263 0.4 -2.263
v 9.225 0.4 -2.956
v 8 0.4 -3.2
v 6.775 0.4 -2.956
v 5.737 0.4 -2.263
v 5.044 0.4 -1.225
v 2.263 0.4 -5.737
v 2.956 0.4 -6.775
v 3.2 0.4 -8
v 2.956 0.4 -9.225
v 2.263 0.4 -10.263
v 1.225 0.4 -10.956
v 0 0.4 -11.2
v -1.225 0.4 -10.956
v -2.263 0.4 -10.263
v -2.956 0.4 -9.225
v -3.2 0.4 -8
v -2.956 0.4 -6.775
v -2.263 0.4 -5.737
v -1.225 0.4 -5.044
v 0 0.4 -4.8
v 1.225 0.4 -5.044
v -14.466 11.2 -5.848
v -14.466 11.2 -5.848
v -14.228 11.2 -5.897
v -15.295 11.2 -3.047
v -15.603 11.2 -0.141
v -15.603 11.2 -0.141
v -15.401 11.2 -0.002
v -15.803 17.6 -0.141
v -15.603 24 -0.141
v -15.603 24 -0.141
v -15.402 24 -0.002
v -15.295 24 -3.046
v -14.466 24 -5.848
v -14.651 17.6 -5.923
v 2.4 0.4 8
v 2.217 0.4 8.918
v 1.697 0.4 9.697
v 0.918 0.4 10.217
v 0 0.4 10.4
v -0.918 0.4 10.217
v -1.697 0.4 9.697
v -2.217 0.4 8.918
v -2.4 0.4 8
v -2.217 0.4 7.082
v -1.697 0.4 6.303
v -0.918 0.4 5.783
v 0 0.4 5.6
v 0.918 0.4 5.783
v 1.697 0.4 6.303
v 2.217 0.4 7.082
v 5.6 0.4 0
v 5.783 0.4 -0.918
v 6.303 0.4 -1.697
v 7.082 0.4 -2.217
v 8 0.4 -2.4
v 8.918 0.4 -2.217
v 9.697 0.4 -1.697
v 10.217 0.4 -0.918
v 10.4 0.4 0
v 10.217 0.4 0.918
v 9.697 0.4 1.697
v 8.918 0.4 2.217
v 8 0.4 2.4
v 7.082 0.4 2.217
v 6.303 0.4 1.697
v 5.783 0.4 0.918
v -6.095 11.2 14.357
v -6.095 11.2 14.357
v -5.897 11.2 14.228
v -8.661 11.2 12.962
v -10.933 11.2 11.125
v -10.933 11.2 11.125
v -10.889 11.2 10.89
v -11.073 17.6 11.267
v -10.932 24 11.125
v -10.932 24 11.125
v -10.888 24 10.891
v -8.661 24 12.962
v -6.095 24 14.357
v -6.095 24 14.357
v -5.896 24 14.227
v -6.173 17.6 14.542
v 5.848 11.2 -14.466
v 5.848 11.2 -14.466
v 5.897 11.2 -14.228
v 3.046 11.2 -15.295
v 0.141 11.2 -15.603
v 0.141 11.2 -15.603
v 0.002 11.2 -15.401
v 0.141 17.6 -15.803
v 0.141 24 -15.603
v 0.141 24 -15.603
v 0.002 24 -15.402
v 3.046 24 -15.295
v 5.848 24 -14.466
v 5.923 17.6 -14.651
v 11.127 24 -10.939
v 11.127 24 -10.939
v 12.965 24 -8.668
v 14.361 24 -6.101
v 14.361 24 -6.101
v 14.229 24 -5.896
v 14.546 17.6 -6.178
v 14.362 11.2 -6.1
v 14.362 11.2 -6.1
v 14.229 11.2 -5.896
v 12.965 11.2 -8.667
v 11.127 11.2 -10.939
v 11.127 11.2 -10.939
v 10.889 11.2 -10.89
v 11.269 17.6 -11.08
v 10.888 24 -10.891
v 14.278 9.6 -5.771
v 14.044 9.6 -5.819
v -11.127 11.2 10.939
v -11.127 11.2 10.939
v -10.889 11.2 10.89
v -12.965 11.2 8.668
v -14.362 11.2 6.101
v -14.362 11.2 6.101
v -14.229 11.2 5.896
v -14.545 17.6 6.179
v -14.361 24 6.101
v -14.361 24 6.101
v -14.228 24 5.896
v -12.965 24 8.668
v -11.127 24 10.939
v -11.127 24 10.939
v -10.888 24 10.891
v -11.269 17.6 11.08
v 10.932 11.2 -11.125
v 10.932 11.2 -11.125
v 10.889 11.2 -10.89
v 8.661 11.2 -12.962
v 6.095 11.2 -14.357
v 6.095 11.2 -14.357
v 5.897 11.2 -14.228
v 6.172 17.6 -14.542
v 6.095 24 -14.357
v 6.095 24 -14.357
v 5.895 24 -14.228
v 8.661 24 -12.962
v 10.932 24 -11.126
v 10.932 24 -11.126
v 10.888 24 -10.891
v 11.072 17.6 -11.268
v 5.895 24 -14.228
v 5.848 24 -14.466
v -0.141 24 15.603
v -0.141 24 15.603
v -0.002 24 15.402
v -3.046 24 15.295
v -5.848 24 14.466
v -5.848 24 14.466
v -5.896 24 14.227
v -5.924 17.6 14.651
v -0.142 17.6 15.803
v -0.141 11.2 15.603
v -0.141 11.2 15.603
v -0.002 11.2 15.401
v -3.047 11.2 15.295
v -5.849 11.2 14.466
v -15.599 11.2 0.136
v -15.599 11.2 0.136
v -15.401 11.2 -0.002
v -15.292 11.2 3.042
v -14.464 11.2 5.843
v -14.464 11.2 5.843
v -14.229 11.2 5.896
v -14.649 17.6 5.919
v -14.464 24 5.843
v -14.464 24 5.843
v -14.228 24 5.896
v -15.292 24 3.042
v -15.599 24 0.137
v -15.599 24 0.137
v -15.402 24 -0.002
v -15.799 17.6 0.138
v 0.136 9.6 -15.403
v 0.002 9.6 -15.202
v 5.843 11.2 14.464
v 5.843 11.2 14.464
v 5.896 11.2 14.229
v 3.041 11.2 15.293
v 0.136 11.2 15.6
v 5.919 17.6 14.65
v 5.843 24 14.464
v 5.843 24 14.464
v 5.895 24 14.229
v 3.042 24 15.292
v 0.137 24 15.599
v 0.137 24 15.599
v -0.002 24 15.402
v 0.137 17.6 15.799
v -5.896 24 -14.229
v -6.101 24 -14.362
v 0.002 24 -15.402
v -0.137 24 -15.599
v 13.488 2.8 5.59
v 13.621 2.8 5.783
v -11.314 2 11.314
v -8.866 2 13.275
v -13.274 2 8.87
v -0.002 32.4 14.602
v 0.129 32.4 14.8
v 5.896 11.2 14.229
v 6.1 11.2 14.362
v 10.89 11.2 10.889
v 11.125 11.2 10.933
v 14.228 11.2 5.897
v 14.466 11.2 5.849
v -5.897 11.2 14.228
v -5.849 11.2 14.466
v -0.002 11.2 15.401
v 0.136 11.2 15.6
v -12.38 3.6 5.128
v -13.113 3.6 2.608
v -13.4 3.6 0
v -13.113 3.6 -2.608
v -12.38 3.6 -5.128
v -11.117 3.6 -7.428
v -9.475 3.6 -9.475
v -7.428 3.6 -11.117
v -5.128 3.6 -12.38
v -2.608 3.6 -13.113
v 0 3.6 -13.4
v 2.608 3.6 -13.113
v 5.128 3.6 -12.38
v 7.428 3.6 -11.117
v 9.475 3.6 -9.475
v 11.117 3.6 -7.428
v 12.38 3.6 -5.128
v 13.113 3.6 -2.608
v 13.4 3.6 0
v 13.113 3.6 2.608
v 12.38 3.6 5.128
v 11.117 3.6 7.428
v 9.475 3.6 9.475
v 7.428 3.6 11.117
v 5.128 3.6 12.38
v 2.608 3.6 13.113
v 0 3.6 13.4
v -2.608 3.6 13.113
v -5.128 3.6 12.38
v -7.428 3.6 11.117
v -9.475 3.6 9.475
v -11.117 3.6 7.428
v -13.859 33.98 5.743
v -14.68 33.98 2.92
v -15.002 33.98 -0.002
v -14.68 33.98 -2.921
v -13.858 33.98 -5.741
v -12.445 33.98 -8.315
v -10.608 33.98 -10.606
v -8.317 33.98 -12.445
v -5.743 33.98 -13.859
v -2.92 33.98 -14.681
v 0.002 33.98 -15.002
v 2.921 33.98 -14.68
v 5.741 33.98 -13.858
v 8.315 33.98 -12.445
v 10.606 33.98 -10.608
v 12.444 33.98 -8.317
v 13.859 33.98 -5.743
v 14.68 33.98 -2.92
v 15.002 33.98 0.002
v 14.68 33.98 2.921
v 13.858 33.98 5.741
v 12.445 33.98 8.315
v 10.608 33.98 10.606
v 8.317 33.98 12.445
v 5.743 33.98 13.859
v 2.92 33.98 14.681
v -0.002 33.98 15.002
v -2.921 33.98 14.68
v -5.741 33.98 13.858
v -8.315 33.98 12.445
v -10.606 33.98 10.608
v -12.445 33.98 8.317
v -14.783 2.8 6.125
v -15.659 2.8 3.115
v -16.002 2.8 -0.002
v -15.659 2.8 -3.116
v -14.782 2.8 -6.124
v -13.275 2.8 -8.87
v -11.315 2.8 -11.313
v -8.871 2.8 -13.274
v -6.125 2.8 -14.783
v -3.115 2.8 -15.659
v 0.002 2.8 -16.002
v 3.116 2.8 -15.659
v 6.124 2.8 -14.782
v 8.87 2.8 -13.275
v 11.313 2.8 -11.315
v 13.274 2.8 -8.871
v 14.783 2.8 -6.125
v 15.659 2.8 -3.115
v 16.002 2.8 0.002
v 15.659 2.8 3.116
v 14.782 2.8 6.124
v 13.275 2.8 8.87
v 11.315 2.8 11.313
v 8.871 2.8 13.274
v 6.125 2.8 14.783
v 3.115 2.8 15.659
v -0.002 2.8 16.002
v -3.116 2.8 15.659
v -6.124 2.8 14.782
v -8.87 2.8 13.275
v -11.313 2.8 11.315
v -13.274 2.8 8.871
v -13.859 32.4 5.743
v -14.68 32.4 2.92
v -15.002 32.4 -0.002
v -14.68 32.4 -2.921
v -13.858 32.4 -5.741
v -12.445 32.4 -8.315
v -10.608 32.4 -10.606
v -8.317 32.4 -12.445
v -5.743 32.4 -13.859
v -2.92 32.4 -14.681
v 0.002 32.4 -15.002
v 2.921 32.4 -14.68
v 5.741 32.4 -13.858
v 8.315 32.4 -12.445
v 10.606 32.4 -10.608
v 12.444 32.4 -8.317
v 13.859 32.4 -5.743
v 14.68 32.4 -2.92
v 15.002 32.4 0.002
v 14.68 32.4 2.921
v 13.858 32.4 5.741
v 12.445 32.4 8.315
v 10.608 32.4 10.606
v 8.317 32.4 12.445
v 5.743 32.4 13.859
v 2.92 32.4 14.681
v -0.002 32.4 15.002
v -2.921 32.4 14.68
v -5.741 32.4 13.858
v -8.315 32.4 12.445
v -10.606 32.4 10.608
v -12.445 32.4 8.317
v -14.413 25.6 5.972
v -15.268 25.6 3.037
v -15.602 25.6 -0.002
v -15.268 25.6 -3.04
v -14.414 25.6 -5.975
v -12.942 25.6 8.65
v -11.03 25.6 11.033
v -8.647 25.6 12.942
v -5.969 25.6 14.41
v -14.598 24 6.049
v -15.463 24 3.076
v -15.802 24 -0.002
v -15.463 24 -3.078
v -14.597 24 -6.048
v -13.108 24 8.761
v -11.171 24 11.174
v -8.759 24 13.109
v -6.048 24 14.597
v -12.381 33.98 5.13
v -13.115 33.98 2.609
v -13.401 33.98 -0.002
v -13.114 33.98 -2.61
v -12.38 33.98 -5.129
v -11.117 33.98 -7.429
v -9.476 33.98 -9.475
v -7.43 33.98 -11.117
v -5.13 33.98 -12.381
v -2.609 33.98 -13.115
v 0.002 33.98 -13.402
v 2.61 33.98 -13.114
v 5.129 33.98 -12.38
v 7.428 33.98 -11.118
v 9.475 33.98 -9.476
v 11.117 33.98 -7.43
v 12.381 33.98 -5.13
v 13.115 33.98 -2.609
v 13.401 33.98 0.002
v 13.114 33.98 2.61
v 12.38 33.98 5.129
v 11.117 33.98 7.428
v 9.476 33.98 9.475
v 7.43 33.98 11.117
v 5.13 33.98 12.381
v 2.609 33.98 13.115
v -0.002 33.98 13.402
v -2.61 33.98 13.114
v -5.129 33.98 12.38
v -7.428 33.98 11.118
v -9.475 33.98 9.476
v -11.117 33.98 7.43
v -14.598 11.2 6.049
v -15.463 11.2 3.076
v -15.802 11.2 -0.002
v -15.463 11.2 -3.078
v -14.597 11.2 -6.048
v -13.109 11.2 -8.759
v -11.174 11.2 -11.171
v -8.761 11.2 -13.108
v -6.049 11.2 -14.598
v -3.076 11.2 -15.464
v 0.002 11.2 -15.802
v 3.078 11.2 -15.463
v 6.048 11.2 -14.597
v 8.759 11.2 -13.109
v 11.171 11.2 -11.174
v 13.108 11.2 -8.761
v 14.598 11.2 -6.049
v 15.463 11.2 -3.076
v 15.802 11.2 0.002
v 15.463 11.2 3.078
v 14.597 11.2 6.048
v 13.109 11.2 8.759
v 11.174 11.2 11.171
v 8.761 11.2 13.108
v 6.049 11.2 14.598
v 3.076 11.2 15.463
v -0.002 11.2 15.802
v -3.078 11.2 15.463
v -6.048 11.2 14.597
v -8.759 11.2 13.109
v -11.171 11.2 11.174
v -13.108 11.2 8.761
v -14.413 9.6 5.972
v -15.268 9.6 3.037
v -15.602 9.6 -0.002
v -15.267 9.6 -3.039
v -14.412 9.6 -5.972
v -12.943 9.6 -8.648
v -11.033 9.6 -11.03
v -8.65 9.6 -12.942
v -5.972 9.6 -14.413
v -3.037 9.6 -15.268
v 0.002 9.6 -15.602
v 3.039 9.6 -15.267
v 5.972 9.6 -14.412
v 8.648 9.6 -12.943
v 11.03 9.6 -11.033
v 12.942 9.6 -8.65
v 14.413 9.6 -5.972
v 15.268 9.6 -3.037
v 15.602 9.6 0.002
v 15.267 9.6 3.039
v 14.412 9.6 5.972
v 12.943 9.6 8.648
v 11.033 9.6 11.03
v 8.65 9.6 12.942
v 5.972 9.6 14.413
v 3.037 9.6 15.268
v -0.002 9.6 15.602
v -3.039 9.6 15.267
v -5.972 9.6 14.412
v -8.648 9.6 12.943
v -11.03 9.6 11.033
v -12.942 9.6 8.65
v -5.975 25.6 14.414
v -3.04 25.6 15.268
v -0.002 25.6 15.602
v 3.037 25.6 15.268
v 5.972 25.6 14.413
v 8.648 25.6 12.942
v 11.029 25.6 11.029
v 12.941 25.6 8.648
v 14.412 25.6 5.972
v 15.267 25.6 3.039
v 15.602 25.6 0.002
v 15.268 25.6 -3.037
v 14.413 25.6 -5.972
v 12.942 25.6 -8.65
v 11.03 25.6 -11.033
v 8.648 25.6 -12.943
v 5.972 25.6 -14.412
v 3.039 25.6 -15.267
v 0.002 25.6 -15.602
v -3.037 25.6 -15.268
v -5.972 25.6 -14.413
v -8.65 25.6 -12.942
v -11.033 25.6 -11.03
v -12.942 25.6 -8.647
v -14.41 25.6 -5.969
v -6.048 24 14.597
v -3.078 24 15.463
v -0.002 24 15.802
v 3.076 24 15.463
v 6.049 24 14.598
v 8.761 24 13.108
v 11.174 24 11.171
v 13.109 24 8.759
v 14.597 24 6.048
v 15.463 24 3.078
v 15.802 24 0.002
v 15.463 24 -3.076
v 14.598 24 -6.049
v 13.108 24 -8.761
v 11.171 24 -11.174
v 8.759 24 -13.109
v 6.048 24 -14.597
v 3.078 24 -15.463
v 0.002 24 -15.802
v -3.076 24 -15.464
v -6.049 24 -14.598
v -8.761 24 -13.108
v -11.174 24 -11.171
v -13.109 24 -8.759
v -14.597 24 -6.048
v -14.043 25.6 -5.817
usemtl MB_192
s off
f 8 9 2324
f 11 12 13
f 2462 15 16
f 17 18 2464
f 374 20 2487
f 2489 23 24
f 25 26 27
f 28 29 30
f 31 32 33
f 2436 35 36
f 37 38 39
f 40 41 42
f 13 1268 11
f 44 1265 46
f 2464 47 17
f 48 1263 2466
f 24 51 2489
f 2491 53 54
f 30 55 28
f 77 56 2402
f 36 1692 2436
f 2434 60 61
f 42 1694 40
f 63 1697 65
f 46 66 44
f 2318 1276 69
f 2466 1281 48
f 71 1278 2468
f 54 74 2491
f 2493 76 96
f 2402 796 77
f 100 78 2400
f 61 1681 2434
f 2432 1684 83
f 65 1679 63
f 85 86 87
f 69 1437 2318
f 2316 1432 1434
f 2468 92 71
f 93 94 2470
f 96 97 2493
f 2495 99 119
f 2400 805 100
f 123 101 102
f 83 103 2432
f 2430 105 106
f 87 107 85
f 108 109 110
f 1434 1301 2316
f 112 1298 114
f 2470 115 93
f 116 1296 2472
f 119 120 2495
f 121 122 141
f 102 814 123
f 145 124 2396
f 106 1659 2430
f 127 128 129
f 110 1661 108
f 131 1664 152
f 114 133 112
f 134 1309 136
f 2472 1314 116
f 138 1311 140
f 141 142 121
f 2499 144 165
f 2396 823 145
f 169 146 147
f 129 148 127
f 2426 150 151
f 152 153 131
f 154 155 156
f 136 1327 134
f 2310 1324 160
f 140 161 138
f 2502 1322 164
f 165 166 2499
f 2501 168 189
f 147 832 169
f 193 170 2392
f 151 172 2426
f 2424 174 1795
f 156 176 154
f 177 178 179
f 160 180 2310
f 181 1335 183
f 184 1340 162
f 186 1337 188
f 189 190 2501
f 191 192 211
f 2392 841 193
f 215 194 195
f 1795 1797 2424
f 197 1800 199
f 179 200 177
f 201 202 203
f 183 1353 181
f 2306 1350 206
f 188 207 186
f 208 1348 210
f 211 212 191
f 213 214 234
f 195 847 215
f 238 216 2388
f 199 218 197
f 2420 220 1808
f 203 222 201
f 223 224 2274
f 206 225 2306
f 2336 228 229
f 210 1425 208
f 231 1422 233
f 234 235 213
f 236 237 855
f 2388 856 238
f 239 240 2418
f 1808 1770 2420
f 2450 244 245
f 2274 1772 223
f 248 1775 2304
f 229 863 2336
f 2334 252 253
f 233 862 231
f 1413 255 256
f 855 257 236
f 258 259 260
f 2418 261 239
f 262 263 2416
f 245 867 2450
f 2448 266 267
f 2304 268 248
f 269 270 271
f 253 272 2334
f 2332 1375 275
f 2452 1380 254
f 278 1377 280
f 260 281 258
f 2479 283 284
f 2416 285 262
f 286 287 288
f 267 289 2448
f 2446 291 292
f 271 293 269
f 1823 295 296
f 275 297 2332
f 280 299 278
f 300 301 302
f 284 303 2479
f 304 305 306
f 288 307 286
f 308 309 310
f 292 1745 2446
f 312 1748 314
f 296 1743 1823
f 316 317 2298
f 298 319 2330
f 321 322 323
f 302 324 300
f 325 326 2458
f 306 328 304
f 329 330 331
f 310 332 308
f 333 334 2410
f 314 1732 312
f 2442 338 339
f 2298 340 316
f 341 342 343
f 323 1237 321
f 2326 1234 347
f 2458 1239 325
f 349 1242 2460
f 331 352 329
f 2485 354 355
f 2410 356 333
f 357 358 2408
f 339 360 2442
f 2440 362 363
f 343 364 341
f 365 366 367
f 347 1453 2326
f 2324 1450 8
f 2460 370 349
f 16 371 2462
f 355 372 2485
f 2487 373 374
f 2408 375 357
f 27 376 25
f 363 1714 2440
f 33 1717 31
f 367 1712 365
f 39 380 37
f 2199 2198 1385
f 2198 1383 1385
f 444 1883 1976
f 1883 414 1976
f 557 558 556
f 558 559 556
f 758 731 757
f 731 732 757
f 566 568 567
f 568 569 567
f 550 552 551
f 552 1640 551
f 715 684 655
f 684 652 655
f 627 629 615
f 629 1914 615
f 562 564 1231
f 564 565 1231
f 1429 1330 1321
f 1330 1323 1321
f 1751 294 1744
f 294 1742 1744
f 558 560 559
f 560 1232 559
f 459 430 1890
f 430 429 1890
f 820 1860 819
f 1860 1862 819
f 572 574 573
f 574 575 573
f 540 542 541
f 542 543 541
f 427 398 428
f 398 397 428
f 542 544 543
f 544 545 543
f 570 572 571
f 572 573 571
f 548 550 1626
f 550 551 1626
f 695 697 675
f 697 673 675
f 1317 1430 1310
f 1430 1308 1310
f 534 536 1633
f 536 537 1633
f 517 519 470
f 519 2050 470
f 1853 1647 1854
f 1647 1649 1854
f 564 566 565
f 566 567 565
f 515 517 472
f 517 470 472
f 878 879 2187
f 879 2186 2187
f 513 515 474
f 515 472 474
f 460 1875 400
f 1875 1967 400
f 578 580 1223
f 580 581 1223
f 511 513 475
f 513 474 475
f 820 819 1868
f 819 1867 1868
f 1217 561 555
f 561 553 555
f 833 834 1903
f 834 1904 1903
f 703 705 667
f 705 665 667
f 701 703 669
f 703 667 669
f 760 739 738
f 739 740 738
f 1570 755 754
f 755 777 754
f 838 837 2021
f 837 2020 2021
f 594 596 595
f 596 597 595
f 697 1477 673
f 1477 2036 673
f 693 695 677
f 695 675 677
f 526 528 527
f 528 529 527
f 1372 1370 1379
f 1370 1381 1379
f 598 600 599
f 600 601 599
f 1326 1328 1319
f 1328 1316 1319
f 888 889 1468
f 889 1467 1468
f 1222 583 533
f 583 531 533
f 584 586 1220
f 586 587 1220
f 1665 1654 1663
f 1654 1656 1663
f 536 538 537
f 538 539 537
f 815 816 1924
f 816 1925 1924
f 508 510 509
f 510 1998 509
f 580 582 581
f 582 1221 581
f 1738 1749 1740
f 1749 1747 1740
f 3 1596 763
f 1596 764 763
f 510 512 1998
f 512 1997 1998
f 610 612 1915
f 612 613 1915
f 1653 1847 1652
f 1847 1848 1652
f 730 1502 729
f 1502 1505 729
f 568 570 569
f 570 571 569
f 612 614 613
f 614 1913 613
f 583 585 531
f 585 1636 531
f 1765 1812 1763
f 1812 1811 1763
f 1397 1401 1395
f 1401 1400 1395
f 582 584 1221
f 584 1220 1221
f 552 554 1640
f 554 1639 1640
f 585 1219 1636
f 1219 1637 1636
f 596 598 597
f 598 599 597
f 707 1482 663
f 1482 2041 663
f 494 496 1990
f 496 497 1990
f 525 526 524
f 526 527 524
f 1816 1758 1817
f 1758 1760 1817
f 705 707 665
f 707 663 665
f 538 540 539
f 540 541 539
f 762 2196 761
f 2196 742 761
f 635 637 607
f 637 605 607
f 842 843 2016
f 843 2017 2016
f 1843 1674 1842
f 1674 1672 1842
f 783 784 1950
f 784 1949 1950
f 621 622 2001
f 622 623 2001
f 500 502 501
f 502 503 501
f 846 845 2163
f 845 2162 2163
f 523 492 464
f 492 461 464
f 2003 651 593
f 651 1909 593
f 496 498 497
f 498 499 497
f 616 618 617
f 618 619 617
f 579 1222 535
f 1222 533 535
f 7 1549 759
f 1549 1550 759
f 624 626 625
f 626 2014 625
f 1569 1568 776
f 1568 753 776
f 811 810 1929
f 810 1928 1929
f 653 654 2029
f 654 2044 2029
f 577 579 1632
f 579 535 1632
f 476 478 477
f 478 479 477
f 644 646 2005
f 646 647 2005
f 522 493 1992
f 493 1991 1992
f 806 807 2078
f 807 2079 2078
f 1825 1737 1731
f 1737 1733 1731
f 1230 1229 549
f 1229 547 549
f 506 508 507
f 508 509 507
f 504 506 505
f 506 507 505
f 811 1933 810
f 1933 1932 810
f 561 563 553
f 563 1625 553
f 469 471 2049
f 471 2048 2049
f 646 648 647
f 648 649 647
f 614 616 1913
f 616 617 1913
f 563 1230 1625
f 1230 549 1625
f 498 500 499
f 500 501 499
f 221 1778 1769
f 1778 1771 1769
f 1700 2108 1702
f 2108 2107 1702
f 704 706 1480
f 706 1481 1480
f 1352 1354 1345
f 1354 1343 1345
f 622 624 623
f 624 625 623
f 1875 1876 1967
f 1876 1982 1967
f 708 710 709
f 710 1483 709
f 790 791 2096
f 791 2095 2096
f 846 2167 845
f 2167 2166 845
f 530 532 1635
f 532 1634 1635
f 528 530 529
f 530 1635 529
f 592 594 1908
f 594 595 1908
f 1792 175 1793
f 175 1641 1793
f 1646 1852 1645
f 1852 1855 1645
f 471 473 2048
f 473 2047 2048
f 676 678 2033
f 678 679 2033
f 590 592 591
f 592 1908 591
f 631 633 611
f 633 609 611
f 872 873 2149
f 873 2148 2149
f 1999 627 1912
f 627 615 1912
f 532 534 1634
f 534 1633 1634
f 648 650 649
f 650 2002 649
f 492 495 461
f 495 491 461
f 1306 1304 1313
f 1304 1315 1313
f 706 708 1481
f 708 709 1481
f 589 590 588
f 590 591 588
f 490 462 2054
f 462 2053 2054
f 2000 1999 1911
f 1999 1912 1911
f 445 447 446
f 447 448 446
f 1827 1727 1828
f 1727 1729 1828
f 413 415 1975
f 415 416 1975
f 637 639 605
f 639 603 605
f 415 417 416
f 417 418 416
f 896 897 1498
f 897 1497 1498
f 1667 2174 1669
f 2174 2173 1669
f 633 635 609
f 635 607 609
f 629 631 1914
f 631 611 1914
f 443 445 1882
f 445 446 1882
f 502 504 503
f 504 505 503
f 685 686 1470
f 686 687 1470
f 2004 2003 1907
f 2003 593 1907
f 694 696 1475
f 696 1476 1475
f 678 680 679
f 680 681 679
f 645 2004 1922
f 2004 1907 1922
f 1452 1454 1246
f 1454 1244 1246
f 560 562 1232
f 562 1231 1232
f 643 645 1921
f 645 1922 1921
f 690 692 691
f 692 1474 691
f 641 643 1920
f 643 1921 1920
f 686 688 687
f 688 689 687
f 639 641 603
f 641 1920 603
f 1804 1785 1803
f 1785 1783 1803
f 1707 1718 1709
f 1718 1716 1709
f 1227 1226 1629
f 1226 1630 1629
f 702 704 1479
f 704 1480 1479
f 1358 1356 1424
f 1356 1426 1424
f 674 676 2034
f 676 2033 2034
f 672 674 2035
f 674 2034 2035
f 430 431 429
f 431 432 429
f 1284 1439 1277
f 1439 1275 1277
f 1419 1363 1420
f 1363 1361 1420
f 711 713 659
f 713 657 659
f 696 698 1476
f 698 699 1476
f 710 712 1483
f 712 1484 1483
f 423 425 424
f 425 426 424
f 439 441 440
f 441 442 440
f 713 715 657
f 715 655 657
f 1988 1987 487
f 1987 485 487
f 848 849 2158
f 849 2159 2158
f 680 682 681
f 682 683 681
f 435 437 436
f 437 438 436
f 688 690 689
f 690 691 689
f 431 433 432
f 433 434 432
f 666 668 2038
f 668 2037 2038
f 1226 1225 1630
f 1225 1631 1630
f 447 449 448
f 449 450 448
f 797 798 2126
f 798 2127 2126
f 802 801 2083
f 801 2082 2083
f 795 794 2131
f 794 2130 2131
f 1987 1986 485
f 1986 483 485
f 417 419 418
f 419 420 418
f 419 421 420
f 421 422 420
f 1228 1227 1628
f 1227 1629 1628
f 658 660 2042
f 660 661 2042
f 656 658 2043
f 658 2042 2043
f 441 443 442
f 443 1882 442
f 654 656 2044
f 656 2043 2044
f 455 457 456
f 457 1889 456
f 1482 711 2041
f 711 659 2041
f 1888 458 1970
f 458 402 1970
f 1251 1447 1249
f 1447 1448 1249
f 712 714 1484
f 714 1485 1484
f 425 427 426
f 427 428 426
f 458 460 402
f 460 400 402
f 1427 1355 1347
f 1355 1349 1347
f 433 435 434
f 435 436 434
f 642 644 2006
f 644 2005 2006
f 411 413 412
f 413 1975 412
f 668 670 2037
f 670 671 2037
f 1291 91 1289
f 91 90 1289
f 700 702 1478
f 702 1479 1478
f 670 672 671
f 672 2035 671
f 467 469 468
f 469 2049 468
f 465 467 466
f 467 468 466
f 463 465 2052
f 465 466 2052
f 1986 1985 483
f 1985 2059 483
f 1229 1228 547
f 1228 1628 547
f 1989 1988 489
f 1988 487 489
f 857 858 2114
f 858 2115 2114
f 1776 1764 1774
f 1764 1767 1774
f 698 700 699
f 700 1478 699
f 1472 1473 2031
f 1473 2032 2031
f 449 451 450
f 451 452 450
f 1440 1271 1262
f 1271 1264 1262
f 405 407 406
f 407 408 406
f 1473 693 2032
f 693 677 2032
f 453 455 454
f 455 456 454
f 495 1989 491
f 1989 489 491
f 2193 1720 2194
f 1720 1722 2194
f 640 642 2007
f 642 2006 2007
f 626 628 2014
f 628 2013 2014
f 1225 577 1631
f 577 1632 1631
f 1267 1269 1260
f 1269 1258 1260
f 1673 1685 1676
f 1685 1683 1676
f 1784 1801 1787
f 1801 1799 1787
f 409 411 410
f 411 412 410
f 554 525 1639
f 525 524 1639
f 865 866 2071
f 866 2070 2071
f 1471 1472 2030
f 1472 2031 2030
f 478 480 479
f 480 481 479
f 586 557 587
f 557 556 587
f 1 1619 728
f 1619 725 728
f 480 482 481
f 482 2058 481
f 1580 1581 724
f 1581 727 724
f 902 903 1959
f 903 1958 1959
f 421 423 422
f 423 424 422
f 767 768 2197
f 768 749 2197
f 407 409 408
f 409 410 408
f 437 439 438
f 439 440 438
f 1219 1218 1637
f 1218 1638 1637
f 1834 1706 1835
f 1706 1705 1835
f 451 453 452
f 453 454 452
f 838 2025 837
f 2025 2024 837
f 628 630 2013
f 630 2012 2013
f 795 2135 794
f 2135 2134 794
f 1719 1833 1713
f 1833 1711 1713
f 1218 1217 1638
f 1217 555 1638
f 1332 1329 1339
f 1329 1341 1339
f 1984 1983 2060
f 1983 2045 2060
f 1342 1428 1336
f 1428 1334 1336
f 636 638 2009
f 638 2008 2009
f 638 640 2008
f 640 2007 2008
f 493 494 1991
f 494 1990 1991
f 521 523 2051
f 523 464 2051
f 1236 1398 1238
f 1398 1396 1238
f 488 490 2055
f 490 2054 2055
f 1431 1303 1295
f 1303 1297 1295
f 1300 1302 1293
f 1302 1290 1293
f 630 632 2012
f 632 2011 2012
f 1794 1791 1796
f 1791 1790 1796
f 651 620 1909
f 620 1910 1909
f 1243 1455 1241
f 1455 1233 1241
f 1886 1887 1972
f 1887 1971 1972
f 1382 1411 1376
f 1411 1374 1376
f 684 1471 652
f 1471 2030 652
f 1885 1886 1973
f 1886 1972 1973
f 1983 511 2045
f 511 475 2045
f 618 589 619
f 589 588 619
f 482 484 2058
f 484 2057 2058
f 606 608 1917
f 608 1916 1917
f 1985 1984 2059
f 1984 2060 2059
f 1412 1369 1414
f 1369 1368 1414
f 484 486 2057
f 486 2056 2057
f 608 610 1916
f 610 1915 1916
f 519 521 2050
f 521 2051 2050
f 1595 743 1610
f 743 1609 1610
f 520 522 1993
f 522 1992 1993
f 660 662 661
f 662 2040 661
f 512 514 1997
f 514 1996 1997
f 1257 1441 1256
f 1441 1442 1256
f 1406 1405 1392
f 1405 1390 1392
f 398 399 397
f 399 1968 397
f 664 666 2039
f 666 2038 2039
f 600 602 601
f 602 1919 601
f 1846 1666 1658
f 1666 1660 1658
f 1436 1438 1286
f 1438 1283 1286
f 1822 1750 1824
f 1750 1753 1824
f 1757 1815 1756
f 1815 1818 1756
f 401 403 1969
f 403 404 1969
f 403 405 404
f 405 406 404
f 1880 1881 1978
f 1881 1977 1978
f 518 520 1994
f 520 1993 1994
f 634 636 2010
f 636 2009 2010
f 632 634 2011
f 634 2010 2011
f 399 401 1968
f 401 1969 1968
f 662 664 2040
f 664 2039 2040
f 457 459 1889
f 459 1890 1889
f 1698 1687 1696
f 1687 1689 1696
f 829 1892 828
f 1892 1894 828
f 1726 1826 1725
f 1826 1829 1725
f 1887 1888 1971
f 1888 1970 1971
f 802 2087 801
f 2087 2086 801
f 514 516 1996
f 516 1995 1996
f 692 694 1474
f 694 1475 1474
f 462 463 2053
f 463 2052 2053
f 576 578 1224
f 578 1223 1224
f 1777 1807 1780
f 1807 1809 1780
f 1839 1699 1691
f 1699 1693 1691
f 620 2000 1910
f 2000 1911 1910
f 602 604 1919
f 604 1918 1919
f 771 746 770
f 746 744 770
f 1884 1885 1974
f 1885 1973 1974
f 604 606 1918
f 606 1917 1918
f 1449 1446 1253
f 1446 1250 1253
f 650 621 2002
f 621 2001 2002
f 574 576 575
f 576 1224 575
f 1883 1884 414
f 1884 1974 414
f 546 548 1627
f 548 1626 1627
f 544 546 545
f 546 1627 545
f 1477 701 2036
f 701 669 2036
f 1881 444 1977
f 444 1976 1977
f 1879 1880 1979
f 1880 1978 1979
f 486 488 2056
f 488 2055 2056
f 1877 1878 1981
f 1878 1980 1981
f 1878 1879 1980
f 1879 1979 1980
f 516 518 1995
f 518 1994 1995
f 824 825 1871
f 825 1872 1871
f 1876 1877 1982
f 1877 1981 1982
f 714 685 1485
f 685 1470 1485
f 829 828 1900
f 828 1899 1900
f 682 653 683
f 653 2029 683
f 877 2183 876
f 2183 2182 876
f 1365 1362 1421
f 1362 1418 1421
f 858 857 2119
f 857 2118 2119
f 1542 4 747
f 4 718 747
f 887 1464 882
f 1464 1463 882
f 716 751 1584
f 751 1604 1584
f 830 831 1859
f 831 1874 1859
f 1545 5 772
f 5 773 772
f 782 1946 778
f 1946 1945 778
f 916 1504 734
f 1504 1507 734
f 864 2075 859
f 2075 2074 859
f 1576 723 1578
f 723 1613 1578
f 756 1525 1503
f 1525 1501 1503
f 4 1593 718
f 1593 741 718
f 1565 730 1564
f 730 729 1564
f 901 900 1964
f 900 1963 1964
f 722 1574 726
f 1574 1575 726
f 803 804 2141
f 804 2142 2141
f 898 899 2203
f 899 2202 2203
f 791 790 2099
f 790 2100 2099
f 721 1579 720
f 1579 1577 720
f 920 1617 1563
f 1617 1618 1563
f 849 848 2171
f 848 2170 2171
f 864 859 2063
f 859 2062 2063
f 1686 1840 1680
f 1840 1678 1680
f 798 797 2139
f 797 2138 2139
f 1517 736 1516
f 736 735 1516
f 901 1955 900
f 1955 1954 900
f 854 2123 850
f 2123 2122 850
f 854 850 2111
f 850 2110 2111
f 904 905 2205
f 905 2204 2205
f 1273 1270 1280
f 1270 1282 1280
f 812 813 2191
f 813 2192 2191
f 789 2106 785
f 2106 2091 785
f 871 2145 868
f 2145 2144 868
f 911 922 1567
f 922 1566 1567
f 752 1602 1583
f 1602 1586 1583
f 890 891 2201
f 891 2200 2201
f 839 840 1891
f 840 1906 1891
f 895 892 1488
f 892 1487 1488
f 1612 1592 1611
f 1592 1594 1611
f 895 1494 892
f 1494 1493 892
f 789 785 2104
f 785 2103 2104
f 871 868 2154
f 868 2153 2154
f 784 783 1937
f 783 1952 1937
f 866 865 2066
f 865 2067 2066
f 736 1535 735
f 1535 737 735
f 1500 733 1506
f 733 1508 1506
f 1552 1544 1553
f 1544 1541 1553
f 775 1 750
f 1 728 750
f 877 876 2177
f 876 2176 2177
f 765 766 1515
f 766 1514 1515
f 918 1533 1558
f 1533 1559 1558
f 874 875 2207
f 875 2206 2207
f 782 778 1942
f 778 1941 1942
f 908 921 774
f 921 1585 774
f 887 882 1458
f 882 1457 1458
f 745 1520 1512
f 1520 1513 1512
f 748 1543 1554
f 1543 1551 1554
f 1532 1534 1561
f 1534 1560 1561
f 880 881 2209
f 881 2208 2209
f 1521 769 1519
f 769 1518 1519
f 1600 1601 1605
f 1601 1603 1605
f 821 822 2189
f 822 2190 2189
f 298 2330 926
f 1404 1407 1389
f 1407 1388 1389
f 247 931 242
f 931 928 242
f 931 249 928
f 249 1766 928
f 219 942 217
f 942 941 217
f 942 243 941
f 243 241 941
f 1770 1768 2420
f 1768 2451 2420
f 1768 244 2451
f 244 2450 2451
f 851 929 844
f 929 940 844
f 929 852 940
f 852 853 940
f 226 933 2242
f 933 2273 2242
f 933 227 2273
f 227 2272 2273
f 250 930 2195
f 930 2197 2195
f 930 246 2197
f 246 767 2197
f 2356 2387 390
f 2387 927 390
f 2387 2386 927
f 2386 391 927
f 235 934 213
f 934 939 213
f 934 237 939
f 237 236 939
f 2388 2419 856
f 2419 936 856
f 2419 2418 936
f 2418 240 936
f 225 932 2306
f 932 2337 2306
f 932 228 2337
f 228 2336 2337
f 2274 2305 1772
f 2305 1773 1772
f 2305 2304 1773
f 2304 1775 1773
f 230 935 1357
f 935 1359 1357
f 935 232 1359
f 232 1360 1359
f 210 938 1425
f 938 1423 1425
f 938 233 1423
f 233 1422 1423
f 2347 2352 2338
f 2352 2343 2338
f 2352 2353 2343
f 2353 2344 2343
f 2116 937 2117
f 937 2120 2117
f 937 2124 2120
f 2124 2121 2120
f 2113 2112 2116
f 2112 937 2116
f 2112 2109 937
f 2109 2124 937
f 2210 2241 925
f 2241 2240 925
f 2386 955 391
f 955 945 391
f 955 861 945
f 861 392 945
f 227 953 2272
f 953 954 2272
f 953 251 954
f 251 860 954
f 257 944 236
f 944 952 236
f 944 259 952
f 259 258 952
f 243 957 241
f 957 956 241
f 957 265 956
f 265 264 956
f 867 949 2450
f 949 2449 2450
f 949 266 2449
f 266 2448 2449
f 2418 2417 261
f 2417 943 261
f 2417 2416 943
f 2416 263 943
f 233 951 862
f 951 948 862
f 951 256 948
f 256 255 948
f 2353 2354 2344
f 2354 2345 2344
f 2354 2355 2345
f 2355 2346 2345
f 852 2271 853
f 2271 2385 853
f 2271 2270 2385
f 2270 2384 2385
f 863 947 2336
f 947 2335 2336
f 947 252 2335
f 252 2334 2335
f 2304 958 268
f 958 946 268
f 958 271 946
f 271 270 946
f 2302 2303 762
f 2303 2196 762
f 2303 250 2196
f 250 2195 2196
f 1417 1416 1364
f 1416 1366 1364
f 1416 1415 1366
f 1415 1367 1366
f 2068 950 2069
f 950 2072 2069
f 950 2076 2072
f 2076 2073 2072
f 2065 2064 2068
f 2064 950 2068
f 2064 2061 950
f 2061 2076 950
f 1810 1813 1762
f 1813 1761 1762
f 1813 1814 1761
f 1814 1759 1761
f 2240 2239 925
f 2239 2238 925
f 251 971 860
f 971 972 860
f 971 273 972
f 273 869 972
f 281 959 258
f 959 970 258
f 959 283 970
f 283 2479 970
f 277 961 1371
f 961 965 1371
f 961 279 965
f 279 274 965
f 2477 2478 276
f 2478 960 276
f 2478 282 960
f 282 2454 960
f 2416 974 285
f 974 962 285
f 974 288 962
f 288 287 962
f 861 973 392
f 973 963 392
f 973 870 963
f 870 393 963
f 2452 2453 1380
f 2453 1378 1380
f 2453 280 1378
f 280 1377 1378
f 271 976 293
f 976 964 293
f 976 296 964
f 296 295 964
f 272 1373 2334
f 1373 2333 2334
f 1373 1375 2333
f 1375 2332 2333
f 2300 2301 717
f 2301 968 717
f 2301 2302 968
f 2302 762 968
f 265 975 264
f 975 2415 264
f 975 290 2415
f 290 2414 2415
f 289 966 2448
f 966 2447 2448
f 966 291 2447
f 291 2446 2447
f 2270 2269 2384
f 2269 2383 2384
f 2269 2268 2383
f 2268 2382 2383
f 1819 1820 1755
f 1820 1754 1755
f 1820 1821 1754
f 1821 1752 1754
f 2156 2155 2150
f 2155 967 2150
f 2155 2152 967
f 2152 2151 967
f 2150 967 2147
f 967 2146 2147
f 967 2151 2146
f 2151 2143 2146
f 761 969 762
f 969 968 762
f 969 909 968
f 909 717 968
f 2238 2237 925
f 2237 2236 925
f 315 979 311
f 979 977 311
f 979 1739 977
f 1739 313 977
f 1745 1746 2446
f 1746 993 2446
f 1746 1748 993
f 1748 312 993
f 318 994 716
f 994 983 716
f 994 2300 983
f 2300 717 983
f 296 2299 1743
f 2299 1741 1743
f 2299 2298 1741
f 2298 317 1741
f 280 986 299
f 986 978 299
f 986 302 978
f 302 301 978
f 870 991 393
f 991 980 393
f 991 883 980
f 883 394 980
f 273 988 869
f 988 990 869
f 988 320 990
f 320 884 990
f 282 987 2454
f 987 2455 2454
f 987 2481 2455
f 2481 2456 2455
f 288 992 307
f 992 982 307
f 992 310 982
f 310 309 982
f 290 2445 2414
f 2445 2413 2414
f 2445 2444 2413
f 2444 2412 2413
f 303 981 2479
f 981 2480 2479
f 981 305 2480
f 305 304 2480
f 2179 2178 2188
f 2178 985 2188
f 2178 2175 985
f 2175 2180 985
f 2188 985 2185
f 985 2184 2185
f 985 2180 2184
f 2180 2181 2184
f 909 984 717
f 984 983 717
f 984 751 983
f 751 716 983
f 2268 2267 2382
f 2267 2381 2382
f 2267 2266 2381
f 2266 2380 2381
f 2236 2235 925
f 2235 2234 925
f 297 989 2332
f 989 2331 2332
f 989 926 2331
f 926 2330 2331
f 1384 1386 1410
f 1386 1409 1410
f 1386 1387 1409
f 1387 1408 1409
f 2444 1009 2412
f 1009 1008 2412
f 1009 337 1008
f 337 335 1008
f 2298 1010 340
f 1010 1004 340
f 1010 343 1004
f 343 342 1004
f 328 1003 304
f 1003 1007 304
f 1003 330 1007
f 330 329 1007
f 319 999 2330
f 999 997 2330
f 999 322 997
f 322 321 997
f 2266 998 2380
f 998 995 2380
f 998 885 995
f 885 886 995
f 302 1006 324
f 1006 996 324
f 1006 2458 996
f 2458 326 996
f 310 2411 332
f 2411 1000 332
f 2411 2410 1000
f 2410 334 1000
f 1734 1735 336
f 1735 1001 336
f 1735 1736 1001
f 1736 1728 1001
f 883 2379 394
f 2379 1002 394
f 2379 2378 1002
f 2378 395 1002
f 1732 1730 312
f 1730 2443 312
f 1730 338 2443
f 338 2442 2443
f 2481 2482 2456
f 2482 2457 2456
f 2482 2483 2457
f 2483 327 2457
f 320 2329 884
f 2329 2265 884
f 2329 2328 2265
f 2328 2264 2265
f 1391 1393 1403
f 1393 1402 1403
f 1393 1394 1402
f 1394 1399 1402
f 2296 2297 1582
f 2297 1584 1582
f 2297 318 1584
f 318 716 1584
f 1469 1005 1466
f 1005 1465 1466
f 1005 1461 1465
f 1461 1462 1465
f 1460 1459 1469
f 1459 1005 1469
f 1459 1456 1005
f 1456 1461 1005
f 2234 2233 925
f 2233 2232 925
f 352 1012 329
f 1012 1020 329
f 1012 354 1020
f 354 2485 1020
f 2483 2484 327
f 2484 1019 327
f 2484 353 1019
f 353 351 1019
f 343 1026 364
f 1026 1016 364
f 1026 367 1016
f 367 366 1016
f 337 1025 335
f 1025 1024 335
f 1025 361 1024
f 361 359 1024
f 360 1013 2442
f 1013 2441 2442
f 1013 362 2441
f 362 2440 2441
f 2378 1023 395
f 1023 1015 395
f 1023 894 1015
f 894 396 1015
f 2410 2409 356
f 2409 1014 356
f 2409 2408 1014
f 2408 358 1014
f 348 1011 344
f 1011 1017 344
f 1011 350 1017
f 350 346 1017
f 2328 1021 2264
f 1021 1022 2264
f 1021 345 1022
f 345 893 1022
f 885 2263 886
f 2263 2377 886
f 2263 2262 2377
f 2262 2376 2377
f 1830 1831 1724
f 1831 1723 1724
f 1831 1832 1723
f 1832 1721 1723
f 1237 1235 321
f 1235 2327 321
f 1235 1234 2327
f 1234 2326 2327
f 2458 2459 1239
f 2459 1240 1239
f 2459 2460 1240
f 2460 1242 1240
f 2294 2295 721
f 2295 1579 721
f 2295 2296 1579
f 2296 1582 1579
f 1499 1018 1496
f 1018 1495 1496
f 1018 1491 1495
f 1491 1492 1495
f 1490 1489 1499
f 1489 1018 1499
f 1489 1486 1018
f 1486 1491 1018
f 2232 2231 925
f 2231 2230 925
f 353 1038 351
f 1038 1037 351
f 1038 21 1037
f 21 14 1037
f 2460 2461 370
f 2461 1027 370
f 2461 2462 1027
f 2462 371 1027
f 2408 1042 375
f 1042 1028 375
f 1042 25 1028
f 25 376 1028
f 372 1029 2485
f 1029 2486 2485
f 1029 373 2486
f 373 2487 2486
f 1245 1247 368
f 1247 1033 368
f 1247 1248 1033
f 1248 369 1033
f 379 1031 377
f 1031 1032 377
f 1031 1708 1032
f 1708 378 1032
f 2262 1040 2376
f 1040 1041 2376
f 1040 780 1041
f 780 779 1041
f 1714 1715 2440
f 1715 1043 2440
f 1715 1717 1043
f 1717 33 1043
f 894 2375 396
f 2375 1030 396
f 2375 2374 1030
f 2374 381 1030
f 345 1039 893
f 1039 2261 893
f 1039 10 2261
f 10 2260 2261
f 361 2439 359
f 2439 2407 359
f 2439 2438 2407
f 2438 2406 2407
f 1453 1451 2326
f 1451 2325 2326
f 1451 1450 2325
f 1450 2324 2325
f 367 1044 1712
f 1044 1710 1712
f 1044 37 1710
f 37 380 1710
f 720 1036 721
f 1036 1035 721
f 1036 912 1035
f 912 919 1035
f 1966 1965 1960
f 1965 1034 1960
f 1965 1962 1034
f 1962 1961 1034
f 2292 2293 919
f 2293 1035 919
f 2293 2294 1035
f 2294 721 1035
f 1960 1034 1957
f 1034 1956 1957
f 1034 1961 1956
f 1961 1953 1956
f 2230 2229 925
f 2229 2228 925
f 21 1058 14
f 1058 1047 14
f 1058 22 1047
f 22 19 1047
f 9 1045 2324
f 1045 1046 2324
f 1045 12 1046
f 12 11 1046
f 2462 2463 15
f 2463 1048 15
f 2463 2464 1048
f 2464 18 1048
f 37 1049 38
f 1049 1051 38
f 1049 42 1051
f 42 41 1051
f 780 1050 779
f 1050 1062 779
f 1050 781 1062
f 781 786 1062
f 25 1052 26
f 1052 1053 26
f 1052 30 1053
f 30 29 1053
f 1252 1254 1445
f 1254 1444 1445
f 1254 1255 1444
f 1255 1443 1444
f 2438 1055 2406
f 1055 2405 2406
f 1055 34 2405
f 34 2404 2405
f 2374 2373 381
f 2373 1056 381
f 2373 2372 1056
f 2372 382 1056
f 32 1054 33
f 1054 2437 33
f 1054 35 2437
f 35 2436 2437
f 1704 1703 1836
f 1703 1837 1836
f 1703 1701 1837
f 1701 1838 1837
f 20 1059 2487
f 1059 2488 2487
f 1059 23 2488
f 23 2489 2488
f 912 1060 919
f 1060 1057 919
f 1060 1617 1057
f 1617 920 1057
f 2290 2291 920
f 2291 1057 920
f 2291 2292 1057
f 2292 919 1057
f 1951 1061 1948
f 1061 1947 1948
f 1061 1943 1947
f 1943 1944 1947
f 1938 1939 1951
f 1939 1061 1951
f 1939 1940 1061
f 1940 1943 1061
f 10 2323 2260
f 2323 2259 2260
f 2323 2322 2259
f 2322 2258 2259
f 2228 2227 925
f 2227 2226 925
f 22 1073 19
f 1073 1072 19
f 1073 52 1072
f 52 50 1072
f 34 1077 2404
f 1077 1076 2404
f 1077 59 1076
f 59 57 1076
f 51 1065 2489
f 1065 2490 2489
f 1065 53 2490
f 53 2491 2490
f 62 1067 58
f 1067 1063 58
f 1067 64 1063
f 64 1688 1063
f 30 2403 55
f 2403 1066 55
f 2403 2402 1066
f 2402 56 1066
f 2372 1068 382
f 1068 1064 382
f 1068 788 1064
f 788 383 1064
f 1692 1690 2436
f 1690 2435 2436
f 1690 60 2435
f 60 2434 2435
f 42 1078 1694
f 1078 1695 1694
f 1078 65 1695
f 65 1697 1695
f 1259 1069 43
f 1069 1070 43
f 1069 49 1070
f 49 45 1070
f 1268 1266 11
f 1266 1074 11
f 1266 1265 1074
f 1265 44 1074
f 2464 2465 47
f 2465 1261 47
f 2465 2466 1261
f 2466 1263 1261
f 781 1075 786
f 1075 2371 786
f 1075 787 2371
f 787 2370 2371
f 2098 2101 2097
f 2101 1071 2097
f 2101 2102 1071
f 2102 2105 1071
f 2322 2321 2258
f 2321 2257 2258
f 2321 2320 2257
f 2320 2256 2257
f 2097 1071 2094
f 1071 2093 2094
f 1071 2105 2093
f 2105 2092 2093
f 2288 2289 1562
f 2289 1563 1562
f 2289 2290 1563
f 2290 920 1563
f 2226 2225 925
f 2225 2224 925
f 84 1081 80
f 1081 1084 80
f 1081 1675 1084
f 1675 82 1084
f 2320 1089 2256
f 1089 1091 2256
f 1089 67 1091
f 67 792 1091
f 52 1088 50
f 1088 1087 50
f 1088 75 1087
f 75 73 1087
f 74 1080 2491
f 1080 2492 2491
f 1080 76 2492
f 76 2493 2492
f 788 1090 383
f 1090 1079 383
f 1090 793 1079
f 793 384 1079
f 70 1082 1272
f 1082 1083 1272
f 1082 72 1083
f 72 68 1083
f 787 2255 2370
f 2255 2369 2370
f 2255 2254 2369
f 2254 2368 2369
f 65 1094 1679
f 1094 1677 1679
f 1094 87 1677
f 87 86 1677
f 59 1093 57
f 1093 1092 57
f 1093 81 1092
f 81 79 1092
f 2402 2401 796
f 2401 1086 796
f 2401 2400 1086
f 2400 78 1086
f 2466 2467 1281
f 2467 1279 1281
f 2467 2468 1279
f 2468 1278 1279
f 66 1274 44
f 1274 2319 44
f 1274 1276 2319
f 1276 2318 2319
f 1681 1682 2434
f 1682 2433 2434
f 1682 1684 2433
f 1684 2432 2433
f 2140 1085 2137
f 1085 2136 2137
f 1085 2132 2136
f 2132 2133 2136
f 2286 2287 916
f 2287 1504 916
f 2287 2288 1504
f 2288 1562 1504
f 2125 2128 2140
f 2128 1085 2140
f 2128 2129 1085
f 2129 2132 1085
f 2224 2223 925
f 2223 2222 925
f 734 1102 916
f 1102 1095 916
f 1102 914 1095
f 914 917 1095
f 67 1107 792
f 1107 1109 792
f 1107 89 1109
f 89 799 1109
f 75 1106 73
f 1106 1105 73
f 1106 98 1105
f 98 95 1105
f 2468 2469 92
f 2469 1098 92
f 2469 2470 1098
f 2470 94 1098
f 2400 1110 805
f 1110 1103 805
f 1110 102 1103
f 102 101 1103
f 97 1097 2493
f 1097 2494 2493
f 1097 99 2494
f 99 2495 2494
f 1285 1287 88
f 1287 1101 88
f 1287 1288 1101
f 1288 1433 1101
f 1437 1435 2318
f 1435 2317 2318
f 1435 1432 2317
f 1432 2316 2317
f 81 1111 79
f 1111 2399 79
f 1111 104 2399
f 104 2398 2399
f 2254 2253 2368
f 2253 1108 2368
f 2253 2252 1108
f 2252 800 1108
f 87 1112 107
f 1112 1100 107
f 1112 110 1100
f 110 109 1100
f 103 1099 2432
f 1099 2431 2432
f 1099 105 2431
f 105 2430 2431
f 793 2367 384
f 2367 1096 384
f 2367 2366 1096
f 2366 385 1096
f 1671 1670 1841
f 1670 1844 1841
f 1670 1668 1844
f 1668 1845 1844
f 2284 2285 917
f 2285 1095 917
f 2285 2286 1095
f 2286 916 1095
f 2090 1104 2089
f 1104 2088 2089
f 1104 2084 2088
f 2084 2085 2088
f 2077 2080 2090
f 2080 1104 2090
f 2080 2081 1104
f 2081 2084 1104
f 2222 2221 925
f 2221 2220 925
f 130 1114 126
f 1114 1113 126
f 1114 132 1113
f 132 1655 1113
f 110 1130 1661
f 1130 1662 1661
f 1130 152 1662
f 152 1664 1662
f 1292 1117 111
f 1117 1115 111
f 1117 117 1115
f 117 113 1115
f 1659 1657 2430
f 1657 1128 2430
f 1657 128 1128
f 128 127 1128
f 104 2429 2398
f 2429 1129 2398
f 2429 2428 1129
f 2428 125 1129
f 1301 1299 2316
f 1299 1125 2316
f 1299 1298 1125
f 1298 112 1125
f 98 1124 95
f 1124 1123 95
f 1124 2497 1123
f 2497 118 1123
f 102 2397 814
f 2397 1120 814
f 2397 2396 1120
f 2396 124 1120
f 2470 2471 115
f 2471 1294 115
f 2471 2472 1294
f 2472 1296 1294
f 2252 1126 800
f 1126 1127 800
f 1126 808 1127
f 808 809 1127
f 120 1118 2495
f 1118 2496 2495
f 1118 122 2496
f 122 121 2496
f 1923 1926 1936
f 1926 1119 1936
f 1926 1927 1119
f 1927 1930 1119
f 1936 1119 1935
f 1119 1934 1935
f 1119 1930 1934
f 1930 1931 1934
f 2282 2283 765
f 2283 1121 765
f 2283 2284 1121
f 2284 917 1121
f 2366 2365 385
f 2365 1116 385
f 2365 2364 1116
f 2364 386 1116
f 914 1122 917
f 1122 1121 917
f 1122 766 1121
f 766 765 1121
f 89 2315 799
f 2315 2251 799
f 2315 2314 2251
f 2314 2250 2251
f 2220 2219 925
f 2219 2218 925
f 152 1136 153
f 1136 1131 153
f 1136 156 1131
f 156 155 1131
f 808 1143 809
f 1143 1144 809
f 1143 817 1144
f 817 818 1144
f 142 1135 121
f 1135 1141 121
f 1135 144 1141
f 144 2499 1141
f 2396 1145 823
f 1145 1138 823
f 1145 147 1138
f 147 146 1138
f 2428 1146 125
f 1146 2395 125
f 1146 149 2395
f 149 2394 2395
f 148 1132 127
f 1132 2427 127
f 1132 150 2427
f 150 2426 2427
f 1849 1850 1651
f 1850 1650 1651
f 1850 1851 1650
f 1851 1648 1650
f 2364 2363 386
f 2363 1133 386
f 2363 2362 1133
f 2362 387 1133
f 137 1134 1305
f 1134 1137 1305
f 1134 139 1137
f 139 135 1137
f 133 1307 112
f 1307 1142 112
f 1307 1309 1142
f 1309 134 1142
f 2497 2498 118
f 2498 1140 118
f 2498 143 1140
f 143 2474 1140
f 2472 2473 1314
f 2473 1312 1314
f 2473 140 1312
f 140 1311 1312
f 2314 2313 2250
f 2313 2249 2250
f 2313 2312 2249
f 2312 2248 2249
f 2280 2281 1531
f 2281 1515 1531
f 2281 2282 1515
f 2282 765 1515
f 1870 1869 1873
f 1869 1139 1873
f 1869 1866 1139
f 1866 1865 1139
f 1873 1139 1864
f 1139 1863 1864
f 1139 1865 1863
f 1865 1861 1863
f 2218 2217 925
f 2217 2216 925
f 149 1161 2394
f 1161 1160 2394
f 1161 173 1160
f 173 171 1160
f 156 1162 176
f 1162 1147 176
f 1162 179 1147
f 179 178 1147
f 147 2393 832
f 2393 1153 832
f 2393 2392 1153
f 2392 170 1153
f 1318 1149 157
f 1149 1152 157
f 1149 163 1152
f 163 159 1152
f 172 1148 2426
f 1148 2425 2426
f 1148 174 2425
f 174 2424 2425
f 140 1155 161
f 1155 1320 161
f 1155 164 1320
f 164 1322 1320
f 143 1156 2474
f 1156 2475 2474
f 1156 167 2475
f 167 2476 2475
f 166 1150 2499
f 1150 2500 2499
f 1150 168 2500
f 168 2501 2500
f 817 1159 818
f 1159 1158 818
f 1159 826 1158
f 826 827 1158
f 2312 1157 2248
f 1157 2247 2248
f 1157 158 2247
f 158 2246 2247
f 1856 1857 1644
f 1857 1643 1644
f 1857 1858 1643
f 1858 1642 1643
f 2362 2361 387
f 2361 1151 387
f 2361 2360 1151
f 2360 388 1151
f 1327 1325 134
f 1325 2311 134
f 1325 1324 2311
f 1324 2310 2311
f 1902 1901 1905
f 1901 1154 1905
f 1901 1898 1154
f 1898 1897 1154
f 2278 2279 918
f 2279 1533 918
f 2279 2280 1533
f 2280 1531 1533
f 1905 1154 1896
f 1154 1895 1896
f 1154 1897 1895
f 1897 1893 1895
f 2216 2215 925
f 2215 2214 925
f 185 1168 1331
f 1168 1164 1331
f 1168 187 1164
f 187 182 1164
f 184 1163 1340
f 1163 1338 1340
f 1163 188 1338
f 188 1337 1338
f 180 1333 2310
f 1333 1175 2310
f 1333 1335 1175
f 1335 181 1175
f 2392 1178 841
f 1178 1173 841
f 1178 195 1173
f 195 194 1173
f 179 1180 200
f 1180 1166 200
f 1180 203 1166
f 203 202 1166
f 1558 1169 918
f 1169 1171 918
f 1169 906 1171
f 906 719 1171
f 190 1165 2501
f 1165 1174 2501
f 1165 192 1174
f 192 191 1174
f 158 2309 2246
f 2309 1177 2246
f 2309 2308 1177
f 2308 835 1177
f 2351 2350 2342
f 2350 2341 2342
f 2350 2349 2341
f 2349 2340 2341
f 1789 1788 196
f 1788 1170 196
f 1788 1786 1170
f 1786 198 1170
f 2360 1176 388
f 1176 1167 388
f 1176 836 1167
f 836 389 1167
f 2276 2277 719
f 2277 1171 719
f 2277 2278 1171
f 2278 918 1171
f 826 2245 827
f 2245 2359 827
f 2245 2244 2359
f 2244 2358 2359
f 1797 1798 2424
f 1798 1179 2424
f 1798 1800 1179
f 1800 197 1179
f 173 2423 171
f 2423 2391 171
f 2423 2422 2391
f 2422 2390 2391
f 2015 2018 2028
f 2018 1172 2028
f 2018 2019 1172
f 2019 2022 1172
f 2028 1172 2027
f 1172 2026 2027
f 1172 2022 2026
f 2022 2023 2026
f 2214 2213 925
f 2213 2212 925
f 1344 1181 204
f 1181 1185 204
f 1181 209 1185
f 209 205 1185
f 188 1191 207
f 1191 1346 207
f 1191 210 1346
f 210 1348 1346
f 2349 1192 2340
f 1192 2339 2340
f 1192 2347 2339
f 2347 2338 2339
f 2422 1197 2390
f 1197 1196 2390
f 1197 219 1196
f 219 217 1196
f 203 1198 222
f 1198 1183 222
f 1198 2274 1183
f 2274 224 1183
f 218 1182 197
f 1182 2421 197
f 1182 220 2421
f 220 2420 2421
f 1353 1351 181
f 1351 1193 181
f 1351 1350 1193
f 1350 2306 1193
f 1782 1781 1802
f 1781 1805 1802
f 1781 1779 1805
f 1779 1806 1805
f 212 1186 191
f 1186 2348 191
f 1186 214 2348
f 214 213 2348
f 195 2389 847
f 2389 1188 847
f 2389 2388 1188
f 2388 216 1188
f 2308 2307 835
f 2307 1195 835
f 2307 226 1195
f 226 2242 1195
f 2157 2160 2172
f 2160 1187 2172
f 2160 2161 1187
f 2161 2164 1187
f 2244 2243 2358
f 2243 1194 2358
f 2243 851 1194
f 851 844 1194
f 2172 1187 2169
f 1187 2168 2169
f 1187 2164 2168
f 2164 2165 2168
f 836 2357 389
f 2357 1184 389
f 2357 2356 1184
f 2356 390 1184
f 906 1190 719
f 1190 1189 719
f 1190 768 1189
f 768 767 1189
f 246 2275 767
f 2275 1189 767
f 2275 2276 1189
f 2276 719 1189
f 2212 2211 925
f 2211 2210 925
f 473 1199 2047
f 1199 2046 2047
f 2046 1199 477
f 1199 476 477
f 1554 1555 748
f 1555 1201 748
f 1555 1556 1201
f 1556 907 1201
f 1545 1546 5
f 1546 1200 5
f 1546 1547 1200
f 1547 6 1200
f 1556 1557 907
f 1557 1203 907
f 1557 740 1203
f 740 739 1203
f 1547 1548 6
f 1548 1202 6
f 1548 1549 1202
f 1549 7 1202
f 1512 1511 745
f 1511 1205 745
f 1511 1510 1205
f 1510 915 1205
f 1521 1522 769
f 1522 1204 769
f 1522 1523 1204
f 1523 924 1204
f 1510 1509 915
f 1509 1207 915
f 1509 1508 1207
f 1508 733 1207
f 1523 1524 924
f 1524 1206 924
f 1524 1525 1206
f 1525 756 1206
f 1615 1614 913
f 1614 1209 913
f 1614 1613 1209
f 1613 723 1209
f 1572 1573 923
f 1573 1208 923
f 1573 1574 1208
f 1574 722 1208
f 911 1211 922
f 1211 1210 922
f 1211 1572 1210
f 1572 923 1210
f 754 1616 1570
f 1616 1571 1570
f 1616 1615 1571
f 1615 913 1571
f 1607 1608 910
f 1608 1213 910
f 1608 1609 1213
f 1609 743 1213
f 1598 1597 2
f 1597 1212 2
f 1597 1596 1212
f 1596 3 1212
f 1605 1606 1600
f 1606 1214 1600
f 1606 1607 1214
f 1607 910 1214
f 908 1599 921
f 1599 1215 921
f 1599 1598 1215
f 1598 2 1215
f 1587 1588 1216
f 1588 1589 1216
f 1590 1591 1216
f 1589 1590 1216
f 1623 1622 1216
f 1624 1623 1216
f 1622 1621 1216
f 1621 1620 1216
f 1528 1529 1216
f 1529 1530 1216
f 1527 1528 1216
f 1526 1527 1216
f 1537 1536 1216
f 1538 1537 1216
f 1539 1538 1216
f 1540 1539 1216
f 1 775 1216
f 775 1587 1216
f 1535 736 1216
f 1565 1624 1216
f 1620 1619 1216
f 1593 4 1216
f 1619 1 1216
f 1542 1540 1216
f 4 1542 1216
f 1517 1526 1216
f 1530 1502 1216
f 1536 1535 1216
f 1591 1593 1216
f 730 1565 1216
f 736 1517 1216
f 1502 730 1216
