# www.mecabricks.com
mtllib Untitled Model.mtl
o Part.1
v 3.96 0.02 -3.96
v 3.96 0.02 3.96
v -3.96 0.02 3.96
v -3.96 0.02 -3.96
v -3.96 9.58 -3.96
v -3.96 9.58 3.96
v 3.96 9.58 3.96
v 3.96 9.58 -3.96
v -2.4 0.02 -2.4
v -2.4 0.02 2.4
v 2.4 0.02 2.4
v 2.4 0.02 -2.4
v 2.4 8.6 -2.4
v 2.4 8.6 2.4
v -2.4 8.6 2.4
v -2.4 8.6 -2.4
v 3.96 0.02 3.96
v 3.96 0.02 3.96
v -3.96 0.02 3.96
v -3.96 0.02 3.96
v 3.96 0.02 -3.96
v 3.96 0.02 -3.96
v -3.96 0.02 -3.96
v -3.96 0.02 -3.96
v -3.96 9.58 -3.96
v -3.96 9.58 -3.96
v -3.96 9.58 3.96
v -3.96 9.58 3.96
v 3.96 9.58 -3.96
v 3.96 9.58 -3.96
v 3.96 9.58 3.96
v 3.96 9.58 3.96
v -2.4 0.02 -2.4
v -2.4 0.02 -2.4
v -2.4 0.02 2.4
v -2.4 0.02 2.4
v 2.4 0.02 -2.4
v 2.4 0.02 -2.4
v 2.4 0.02 2.4
v 2.4 0.02 2.4
v 2.4 8.6 2.4
v 2.4 8.6 2.4
v -2.4 8.6 2.4
v -2.4 8.6 2.4
v 2.4 8.6 -2.4
v 2.4 8.6 -2.4
v -2.4 8.6 -2.4
v -2.4 8.6 -2.4
v 0.918 11.15 -2.217
v 0.821 11.4 -1.982
v 0.89 11.327 -2.148
v 1.517 11.4 -1.517
v 1.697 11.15 -1.697
v 1.644 11.327 -1.644
v 2.217 11.15 -0.918
v 1.982 11.4 -0.821
v 2.148 11.327 -0.89
v 2.145 11.4 0
v 2.4 11.15 0
v 2.325 11.327 0
v 2.217 11.15 0.918
v 1.982 11.4 0.821
v 2.148 11.327 0.89
v 1.697 11.15 1.697
v 1.517 11.4 1.517
v 1.644 11.327 1.644
v 0.918 11.15 2.217
v 0.821 11.4 1.982
v 0.89 11.327 2.148
v 0 11.15 2.4
v 0 11.4 2.145
v 0 11.327 2.325
v -0.821 11.4 1.982
v -0.918 11.15 2.217
v -0.89 11.327 2.148
v -1.697 11.15 1.697
v -1.517 11.4 1.517
v -1.644 11.327 1.644
v -2.217 11.15 0.918
v -1.982 11.4 0.821
v -2.148 11.327 0.89
v -2.4 11.15 0
v -2.145 11.4 0
v -2.325 11.327 0
v -2.217 11.15 -0.918
v -1.982 11.4 -0.821
v -2.148 11.327 -0.89
v -1.517 11.4 -1.517
v -1.697 11.15 -1.697
v -1.644 11.327 -1.644
v -0.918 11.15 -2.217
v -0.821 11.4 -1.982
v -0.89 11.327 -2.148
v 0 11.15 -2.4
v 0 11.4 -2.145
v 0 11.327 -2.325
v 1.063 11.4 1.014
v 1.164 11.4 0
v 1.063 11.4 -1.014
v 0 11.4 1.097
v 0 11.4 0
v 0 11.4 -1.097
v -1.063 11.4 1.014
v -1.164 11.4 0
v -1.063 11.4 -1.014
v 0 9.73 -2.4
v 0 9.58 -2.553
v 0 9.624 -2.445
v -0.977 9.58 -2.359
v -0.918 9.73 -2.217
v -0.936 9.624 -2.259
v -1.805 9.58 -1.805
v -1.697 9.73 -1.697
v -1.729 9.624 -1.729
v -2.359 9.58 -0.977
v -2.217 9.73 -0.918
v -2.259 9.624 -0.936
v -2.553 9.58 0
v -2.4 9.73 0
v -2.445 9.624 0
v -2.359 9.58 0.977
v -2.217 9.73 0.918
v -2.259 9.624 0.936
v -1.805 9.58 1.805
v -1.697 9.73 1.697
v -1.729 9.624 1.729
v -0.977 9.58 2.359
v -0.918 9.73 2.217
v -0.936 9.624 2.259
v 0 9.58 2.553
v 0 9.73 2.4
v 0 9.624 2.445
v 0.977 9.58 2.359
v 0.918 9.73 2.217
v 0.936 9.624 2.259
v 1.805 9.58 1.805
v 1.697 9.73 1.697
v 1.729 9.624 1.729
v 2.359 9.58 0.977
v 2.217 9.73 0.918
v 2.259 9.624 0.936
v 2.553 9.58 0
v 2.4 9.73 0
v 2.445 9.624 0
v 2.359 9.58 -0.977
v 2.217 9.73 -0.918
v 2.259 9.624 -0.936
v 1.805 9.58 -1.805
v 1.697 9.73 -1.697
v 1.729 9.624 -1.729
v 0.977 9.58 -2.359
v 0.918 9.73 -2.217
v 0.936 9.624 -2.259
usemtl MB_192
s off
f 20 27 24
f 27 25 24
f 29 22 26
f 22 23 26
f 21 30 18
f 30 31 18
f 17 32 19
f 32 28 19
f 6 7 5
f 7 8 5
f 4 33 3
f 33 35 3
f 1 37 4
f 37 33 4
f 37 1 39
f 1 2 39
f 3 35 2
f 35 39 2
f 36 43 40
f 43 41 40
f 11 42 38
f 42 45 38
f 12 46 34
f 46 47 34
f 9 48 10
f 48 44 10
f 13 14 16
f 14 15 16
f 56 99 58
f 99 98 58
f 85 89 116
f 89 113 116
f 104 83 103
f 83 80 103
f 100 103 71
f 103 73 71
f 88 86 92
f 86 105 92
f 95 102 50
f 102 99 50
f 103 80 73
f 80 77 73
f 62 97 65
f 97 68 65
f 92 105 95
f 105 102 95
f 105 86 104
f 86 83 104
f 50 99 52
f 99 56 52
f 58 98 62
f 98 97 62
f 97 100 68
f 100 71 68
f 53 54 55
f 54 57 55
f 54 52 57
f 52 56 57
f 59 60 61
f 60 63 61
f 60 58 63
f 58 62 63
f 74 75 76
f 75 78 76
f 75 73 78
f 73 77 78
f 61 63 64
f 63 66 64
f 63 62 66
f 62 65 66
f 64 66 67
f 66 69 67
f 66 65 69
f 65 68 69
f 76 78 79
f 78 81 79
f 78 77 81
f 77 80 81
f 79 81 82
f 81 84 82
f 81 80 84
f 80 83 84
f 89 90 91
f 90 93 91
f 90 88 93
f 88 92 93
f 67 69 70
f 69 72 70
f 69 68 72
f 68 71 72
f 70 72 74
f 72 75 74
f 72 71 75
f 71 73 75
f 82 84 85
f 84 87 85
f 84 83 87
f 83 86 87
f 85 87 89
f 87 90 89
f 87 86 90
f 86 88 90
f 91 93 94
f 93 96 94
f 93 92 96
f 92 95 96
f 55 57 59
f 57 60 59
f 57 56 60
f 56 58 60
f 94 96 49
f 96 51 49
f 96 95 51
f 95 50 51
f 49 51 53
f 51 54 53
f 51 50 54
f 50 52 54
f 98 101 97
f 101 100 97
f 101 104 100
f 104 103 100
f 99 102 98
f 102 101 98
f 102 105 101
f 105 104 101
f 110 106 111
f 106 108 111
f 111 108 109
f 108 107 109
f 113 110 114
f 110 111 114
f 114 111 112
f 111 109 112
f 116 113 117
f 113 114 117
f 117 114 115
f 114 112 115
f 119 116 120
f 116 117 120
f 120 117 118
f 117 115 118
f 122 119 123
f 119 120 123
f 123 120 121
f 120 118 121
f 125 122 126
f 122 123 126
f 126 123 124
f 123 121 124
f 128 125 129
f 125 126 129
f 129 126 127
f 126 124 127
f 131 128 132
f 128 129 132
f 132 129 130
f 129 127 130
f 134 131 135
f 131 132 135
f 135 132 133
f 132 130 133
f 137 134 138
f 134 135 138
f 138 135 136
f 135 133 136
f 140 137 141
f 137 138 141
f 141 138 139
f 138 136 139
f 143 140 144
f 140 141 144
f 144 141 142
f 141 139 142
f 146 143 147
f 143 144 147
f 147 144 145
f 144 142 145
f 149 146 150
f 146 147 150
f 150 147 148
f 147 145 148
f 152 149 153
f 149 150 153
f 153 150 151
f 150 148 151
f 106 152 108
f 152 153 108
f 108 153 107
f 153 151 107
f 64 67 137
f 67 134 137
f 89 91 113
f 91 110 113
f 67 70 134
f 70 131 134
f 106 94 152
f 94 49 152
f 91 94 110
f 94 106 110
f 70 74 131
f 74 128 131
f 152 49 149
f 49 53 149
f 74 76 128
f 76 125 128
f 53 55 149
f 55 146 149
f 76 79 125
f 79 122 125
f 55 59 146
f 59 143 146
f 79 82 122
f 82 119 122
f 59 61 143
f 61 140 143
f 82 85 119
f 85 116 119
f 61 64 140
f 64 137 140
o Part.2
v 3.96 0.02 -3.96
v 3.96 0.02 3.96
v -3.96 0.02 3.96
v -3.96 0.02 -3.96
v -3.96 9.58 -3.96
v -3.96 9.58 3.96
v 3.96 9.58 3.96
v 3.96 9.58 -3.96
v -2.4 0.02 -2.4
v -2.4 0.02 2.4
v 2.4 0.02 2.4
v 2.4 0.02 -2.4
v 2.4 8.6 -2.4
v 2.4 8.6 2.4
v -2.4 8.6 2.4
v -2.4 8.6 -2.4
v 3.96 0.02 3.96
v 3.96 0.02 3.96
v -3.96 0.02 3.96
v -3.96 0.02 3.96
v 3.96 0.02 -3.96
v 3.96 0.02 -3.96
v -3.96 0.02 -3.96
v -3.96 0.02 -3.96
v -3.96 9.58 -3.96
v -3.96 9.58 -3.96
v -3.96 9.58 3.96
v -3.96 9.58 3.96
v 3.96 9.58 -3.96
v 3.96 9.58 -3.96
v 3.96 9.58 3.96
v 3.96 9.58 3.96
v -2.4 0.02 -2.4
v -2.4 0.02 -2.4
v -2.4 0.02 2.4
v -2.4 0.02 2.4
v 2.4 0.02 -2.4
v 2.4 0.02 -2.4
v 2.4 0.02 2.4
v 2.4 0.02 2.4
v 2.4 8.6 2.4
v 2.4 8.6 2.4
v -2.4 8.6 2.4
v -2.4 8.6 2.4
v 2.4 8.6 -2.4
v 2.4 8.6 -2.4
v -2.4 8.6 -2.4
v -2.4 8.6 -2.4
v 0.918 11.15 -2.217
v 0.821 11.4 -1.982
v 0.89 11.327 -2.148
v 1.517 11.4 -1.517
v 1.697 11.15 -1.697
v 1.644 11.327 -1.644
v 2.217 11.15 -0.918
v 1.982 11.4 -0.821
v 2.148 11.327 -0.89
v 2.145 11.4 0
v 2.4 11.15 0
v 2.325 11.327 0
v 2.217 11.15 0.918
v 1.982 11.4 0.821
v 2.148 11.327 0.89
v 1.697 11.15 1.697
v 1.517 11.4 1.517
v 1.644 11.327 1.644
v 0.918 11.15 2.217
v 0.821 11.4 1.982
v 0.89 11.327 2.148
v 0 11.15 2.4
v 0 11.4 2.145
v 0 11.327 2.325
v -0.821 11.4 1.982
v -0.918 11.15 2.217
v -0.89 11.327 2.148
v -1.697 11.15 1.697
v -1.517 11.4 1.517
v -1.644 11.327 1.644
v -2.217 11.15 0.918
v -1.982 11.4 0.821
v -2.148 11.327 0.89
v -2.4 11.15 0
v -2.145 11.4 0
v -2.325 11.327 0
v -2.217 11.15 -0.918
v -1.982 11.4 -0.821
v -2.148 11.327 -0.89
v -1.517 11.4 -1.517
v -1.697 11.15 -1.697
v -1.644 11.327 -1.644
v -0.918 11.15 -2.217
v -0.821 11.4 -1.982
v -0.89 11.327 -2.148
v 0 11.15 -2.4
v 0 11.4 -2.145
v 0 11.327 -2.325
v 1.063 11.4 1.014
v 1.164 11.4 0
v 1.063 11.4 -1.014
v 0 11.4 1.097
v 0 11.4 0
v 0 11.4 -1.097
v -1.063 11.4 1.014
v -1.164 11.4 0
v -1.063 11.4 -1.014
v 0 9.73 -2.4
v 0 9.58 -2.553
v 0 9.624 -2.445
v -0.977 9.58 -2.359
v -0.918 9.73 -2.217
v -0.936 9.624 -2.259
v -1.805 9.58 -1.805
v -1.697 9.73 -1.697
v -1.729 9.624 -1.729
v -2.359 9.58 -0.977
v -2.217 9.73 -0.918
v -2.259 9.624 -0.936
v -2.553 9.58 0
v -2.4 9.73 0
v -2.445 9.624 0
v -2.359 9.58 0.977
v -2.217 9.73 0.918
v -2.259 9.624 0.936
v -1.805 9.58 1.805
v -1.697 9.73 1.697
v -1.729 9.624 1.729
v -0.977 9.58 2.359
v -0.918 9.73 2.217
v -0.936 9.624 2.259
v 0 9.58 2.553
v 0 9.73 2.4
v 0 9.624 2.445
v 0.977 9.58 2.359
v 0.918 9.73 2.217
v 0.936 9.624 2.259
v 1.805 9.58 1.805
v 1.697 9.73 1.697
v 1.729 9.624 1.729
v 2.359 9.58 0.977
v 2.217 9.73 0.918
v 2.259 9.624 0.936
v 2.553 9.58 0
v 2.4 9.73 0
v 2.445 9.624 0
v 2.359 9.58 -0.977
v 2.217 9.73 -0.918
v 2.259 9.624 -0.936
v 1.805 9.58 -1.805
v 1.697 9.73 -1.697
v 1.729 9.624 -1.729
v 0.977 9.58 -2.359
v 0.918 9.73 -2.217
v 0.936 9.624 -2.259
usemtl MB_192
s off
f 173 180 177
f 180 178 177
f 182 175 179
f 175 176 179
f 174 183 171
f 183 184 171
f 170 185 172
f 185 181 172
f 159 160 158
f 160 161 158
f 157 186 156
f 186 188 156
f 154 190 157
f 190 186 157
f 190 154 192
f 154 155 192
f 156 188 155
f 188 192 155
f 189 196 193
f 196 194 193
f 164 195 191
f 195 198 191
f 165 199 187
f 199 200 187
f 162 201 163
f 201 197 163
f 166 167 169
f 167 168 169
f 209 252 211
f 252 251 211
f 238 242 269
f 242 266 269
f 257 236 256
f 236 233 256
f 253 256 224
f 256 226 224
f 241 239 245
f 239 258 245
f 248 255 203
f 255 252 203
f 256 233 226
f 233 230 226
f 215 250 218
f 250 221 218
f 245 258 248
f 258 255 248
f 258 239 257
f 239 236 257
f 203 252 205
f 252 209 205
f 211 251 215
f 251 250 215
f 250 253 221
f 253 224 221
f 206 207 208
f 207 210 208
f 207 205 210
f 205 209 210
f 212 213 214
f 213 216 214
f 213 211 216
f 211 215 216
f 227 228 229
f 228 231 229
f 228 226 231
f 226 230 231
f 214 216 217
f 216 219 217
f 216 215 219
f 215 218 219
f 217 219 220
f 219 222 220
f 219 218 222
f 218 221 222
f 229 231 232
f 231 234 232
f 231 230 234
f 230 233 234
f 232 234 235
f 234 237 235
f 234 233 237
f 233 236 237
f 242 243 244
f 243 246 244
f 243 241 246
f 241 245 246
f 220 222 223
f 222 225 223
f 222 221 225
f 221 224 225
f 223 225 227
f 225 228 227
f 225 224 228
f 224 226 228
f 235 237 238
f 237 240 238
f 237 236 240
f 236 239 240
f 238 240 242
f 240 243 242
f 240 239 243
f 239 241 243
f 244 246 247
f 246 249 247
f 246 245 249
f 245 248 249
f 208 210 212
f 210 213 212
f 210 209 213
f 209 211 213
f 247 249 202
f 249 204 202
f 249 248 204
f 248 203 204
f 202 204 206
f 204 207 206
f 204 203 207
f 203 205 207
f 251 254 250
f 254 253 250
f 254 257 253
f 257 256 253
f 252 255 251
f 255 254 251
f 255 258 254
f 258 257 254
f 263 259 264
f 259 261 264
f 264 261 262
f 261 260 262
f 266 263 267
f 263 264 267
f 267 264 265
f 264 262 265
f 269 266 270
f 266 267 270
f 270 267 268
f 267 265 268
f 272 269 273
f 269 270 273
f 273 270 271
f 270 268 271
f 275 272 276
f 272 273 276
f 276 273 274
f 273 271 274
f 278 275 279
f 275 276 279
f 279 276 277
f 276 274 277
f 281 278 282
f 278 279 282
f 282 279 280
f 279 277 280
f 284 281 285
f 281 282 285
f 285 282 283
f 282 280 283
f 287 284 288
f 284 285 288
f 288 285 286
f 285 283 286
f 290 287 291
f 287 288 291
f 291 288 289
f 288 286 289
f 293 290 294
f 290 291 294
f 294 291 292
f 291 289 292
f 296 293 297
f 293 294 297
f 297 294 295
f 294 292 295
f 299 296 300
f 296 297 300
f 300 297 298
f 297 295 298
f 302 299 303
f 299 300 303
f 303 300 301
f 300 298 301
f 305 302 306
f 302 303 306
f 306 303 304
f 303 301 304
f 259 305 261
f 305 306 261
f 261 306 260
f 306 304 260
f 217 220 290
f 220 287 290
f 242 244 266
f 244 263 266
f 220 223 287
f 223 284 287
f 259 247 305
f 247 202 305
f 244 247 263
f 247 259 263
f 223 227 284
f 227 281 284
f 305 202 302
f 202 206 302
f 227 229 281
f 229 278 281
f 206 208 302
f 208 299 302
f 229 232 278
f 232 275 278
f 208 212 299
f 212 296 299
f 232 235 275
f 235 272 275
f 212 214 296
f 214 293 296
f 235 238 272
f 238 269 272
f 214 217 293
f 217 290 293
o Part.3
v 31.96 0.02 -3.96
v 31.96 0.02 3.96
v 24.04 0.02 3.96
v 24.04 0.02 -3.96
v 24.04 9.58 -3.96
v 24.04 9.58 3.96
v 31.96 9.58 3.96
v 31.96 9.58 -3.96
v 25.6 0.02 -2.4
v 25.6 0.02 2.4
v 30.4 0.02 2.4
v 30.4 0.02 -2.4
v 30.4 8.6 -2.4
v 30.4 8.6 2.4
v 25.6 8.6 2.4
v 25.6 8.6 -2.4
v 31.96 0.02 3.96
v 31.96 0.02 3.96
v 24.04 0.02 3.96
v 24.04 0.02 3.96
v 31.96 0.02 -3.96
v 31.96 0.02 -3.96
v 24.04 0.02 -3.96
v 24.04 0.02 -3.96
v 24.04 9.58 -3.96
v 24.04 9.58 -3.96
v 24.04 9.58 3.96
v 24.04 9.58 3.96
v 31.96 9.58 -3.96
v 31.96 9.58 -3.96
v 31.96 9.58 3.96
v 31.96 9.58 3.96
v 25.6 0.02 -2.4
v 25.6 0.02 -2.4
v 25.6 0.02 2.4
v 25.6 0.02 2.4
v 30.4 0.02 -2.4
v 30.4 0.02 -2.4
v 30.4 0.02 2.4
v 30.4 0.02 2.4
v 30.4 8.6 2.4
v 30.4 8.6 2.4
v 25.6 8.6 2.4
v 25.6 8.6 2.4
v 30.4 8.6 -2.4
v 30.4 8.6 -2.4
v 25.6 8.6 -2.4
v 25.6 8.6 -2.4
v 28.918 11.15 -2.217
v 28.821 11.4 -1.982
v 28.89 11.327 -2.148
v 29.517 11.4 -1.517
v 29.697 11.15 -1.697
v 29.644 11.327 -1.644
v 30.217 11.15 -0.918
v 29.982 11.4 -0.821
v 30.148 11.327 -0.89
v 30.145 11.4 0
v 30.4 11.15 0
v 30.325 11.327 0
v 30.217 11.15 0.918
v 29.982 11.4 0.821
v 30.148 11.327 0.89
v 29.697 11.15 1.697
v 29.517 11.4 1.517
v 29.644 11.327 1.644
v 28.918 11.15 2.217
v 28.821 11.4 1.982
v 28.89 11.327 2.148
v 28 11.15 2.4
v 28 11.4 2.145
v 28 11.327 2.325
v 27.179 11.4 1.982
v 27.082 11.15 2.217
v 27.11 11.327 2.148
v 26.303 11.15 1.697
v 26.483 11.4 1.517
v 26.356 11.327 1.644
v 25.783 11.15 0.918
v 26.018 11.4 0.821
v 25.852 11.327 0.89
v 25.6 11.15 0
v 25.855 11.4 0
v 25.675 11.327 0
v 25.783 11.15 -0.918
v 26.018 11.4 -0.821
v 25.852 11.327 -0.89
v 26.483 11.4 -1.517
v 26.303 11.15 -1.697
v 26.356 11.327 -1.644
v 27.082 11.15 -2.217
v 27.179 11.4 -1.982
v 27.11 11.327 -2.148
v 28 11.15 -2.4
v 28 11.4 -2.145
v 28 11.327 -2.325
v 29.063 11.4 1.014
v 29.164 11.4 0
v 29.063 11.4 -1.014
v 28 11.4 1.097
v 28 11.4 0
v 28 11.4 -1.097
v 26.937 11.4 1.014
v 26.836 11.4 0
v 26.937 11.4 -1.014
v 28 9.73 -2.4
v 28 9.58 -2.553
v 28 9.624 -2.445
v 27.023 9.58 -2.359
v 27.082 9.73 -2.217
v 27.064 9.624 -2.259
v 26.195 9.58 -1.805
v 26.303 9.73 -1.697
v 26.271 9.624 -1.729
v 25.641 9.58 -0.977
v 25.783 9.73 -0.918
v 25.741 9.624 -0.936
v 25.447 9.58 0
v 25.6 9.73 0
v 25.555 9.624 0
v 25.641 9.58 0.977
v 25.783 9.73 0.918
v 25.741 9.624 0.936
v 26.195 9.58 1.805
v 26.303 9.73 1.697
v 26.271 9.624 1.729
v 27.023 9.58 2.359
v 27.082 9.73 2.217
v 27.064 9.624 2.259
v 28 9.58 2.553
v 28 9.73 2.4
v 28 9.624 2.445
v 28.977 9.58 2.359
v 28.918 9.73 2.217
v 28.936 9.624 2.259
v 29.805 9.58 1.805
v 29.697 9.73 1.697
v 29.729 9.624 1.729
v 30.359 9.58 0.977
v 30.217 9.73 0.918
v 30.259 9.624 0.936
v 30.553 9.58 0
v 30.4 9.73 0
v 30.445 9.624 0
v 30.359 9.58 -0.977
v 30.217 9.73 -0.918
v 30.259 9.624 -0.936
v 29.805 9.58 -1.805
v 29.697 9.73 -1.697
v 29.729 9.624 -1.729
v 28.977 9.58 -2.359
v 28.918 9.73 -2.217
v 28.936 9.624 -2.259
usemtl MB_192
s off
f 326 333 330
f 333 331 330
f 335 328 332
f 328 329 332
f 327 336 324
f 336 337 324
f 323 338 325
f 338 334 325
f 312 313 311
f 313 314 311
f 310 339 309
f 339 341 309
f 307 343 310
f 343 339 310
f 343 307 345
f 307 308 345
f 309 341 308
f 341 345 308
f 342 349 346
f 349 347 346
f 317 348 344
f 348 351 344
f 318 352 340
f 352 353 340
f 315 354 316
f 354 350 316
f 319 320 322
f 320 321 322
f 362 405 364
f 405 404 364
f 391 395 422
f 395 419 422
f 410 389 409
f 389 386 409
f 406 409 377
f 409 379 377
f 394 392 398
f 392 411 398
f 401 408 356
f 408 405 356
f 409 386 379
f 386 383 379
f 368 403 371
f 403 374 371
f 398 411 401
f 411 408 401
f 411 392 410
f 392 389 410
f 356 405 358
f 405 362 358
f 364 404 368
f 404 403 368
f 403 406 374
f 406 377 374
f 359 360 361
f 360 363 361
f 360 358 363
f 358 362 363
f 365 366 367
f 366 369 367
f 366 364 369
f 364 368 369
f 380 381 382
f 381 384 382
f 381 379 384
f 379 383 384
f 367 369 370
f 369 372 370
f 369 368 372
f 368 371 372
f 370 372 373
f 372 375 373
f 372 371 375
f 371 374 375
f 382 384 385
f 384 387 385
f 384 383 387
f 383 386 387
f 385 387 388
f 387 390 388
f 387 386 390
f 386 389 390
f 395 396 397
f 396 399 397
f 396 394 399
f 394 398 399
f 373 375 376
f 375 378 376
f 375 374 378
f 374 377 378
f 376 378 380
f 378 381 380
f 378 377 381
f 377 379 381
f 388 390 391
f 390 393 391
f 390 389 393
f 389 392 393
f 391 393 395
f 393 396 395
f 393 392 396
f 392 394 396
f 397 399 400
f 399 402 400
f 399 398 402
f 398 401 402
f 361 363 365
f 363 366 365
f 363 362 366
f 362 364 366
f 400 402 355
f 402 357 355
f 402 401 357
f 401 356 357
f 355 357 359
f 357 360 359
f 357 356 360
f 356 358 360
f 404 407 403
f 407 406 403
f 407 410 406
f 410 409 406
f 405 408 404
f 408 407 404
f 408 411 407
f 411 410 407
f 416 412 417
f 412 414 417
f 417 414 415
f 414 413 415
f 419 416 420
f 416 417 420
f 420 417 418
f 417 415 418
f 422 419 423
f 419 420 423
f 423 420 421
f 420 418 421
f 425 422 426
f 422 423 426
f 426 423 424
f 423 421 424
f 428 425 429
f 425 426 429
f 429 426 427
f 426 424 427
f 431 428 432
f 428 429 432
f 432 429 430
f 429 427 430
f 434 431 435
f 431 432 435
f 435 432 433
f 432 430 433
f 437 434 438
f 434 435 438
f 438 435 436
f 435 433 436
f 440 437 441
f 437 438 441
f 441 438 439
f 438 436 439
f 443 440 444
f 440 441 444
f 444 441 442
f 441 439 442
f 446 443 447
f 443 444 447
f 447 444 445
f 444 442 445
f 449 446 450
f 446 447 450
f 450 447 448
f 447 445 448
f 452 449 453
f 449 450 453
f 453 450 451
f 450 448 451
f 455 452 456
f 452 453 456
f 456 453 454
f 453 451 454
f 458 455 459
f 455 456 459
f 459 456 457
f 456 454 457
f 412 458 414
f 458 459 414
f 414 459 413
f 459 457 413
f 370 373 443
f 373 440 443
f 395 397 419
f 397 416 419
f 373 376 440
f 376 437 440
f 412 400 458
f 400 355 458
f 397 400 416
f 400 412 416
f 376 380 437
f 380 434 437
f 458 355 455
f 355 359 455
f 380 382 434
f 382 431 434
f 359 361 455
f 361 452 455
f 382 385 431
f 385 428 431
f 361 365 452
f 365 449 452
f 385 388 428
f 388 425 428
f 365 367 449
f 367 446 449
f 388 391 425
f 391 422 425
f 367 370 446
f 370 443 446
o Part.4
v 3.96 0.02 20.04
v 3.96 0.02 27.96
v -3.96 0.02 27.96
v -3.96 0.02 20.04
v -3.96 9.58 20.04
v -3.96 9.58 27.96
v 3.96 9.58 27.96
v 3.96 9.58 20.04
v -2.4 0.02 21.6
v -2.4 0.02 26.4
v 2.4 0.02 26.4
v 2.4 0.02 21.6
v 2.4 8.6 21.6
v 2.4 8.6 26.4
v -2.4 8.6 26.4
v -2.4 8.6 21.6
v 3.96 0.02 27.96
v 3.96 0.02 27.96
v -3.96 0.02 27.96
v -3.96 0.02 27.96
v 3.96 0.02 20.04
v 3.96 0.02 20.04
v -3.96 0.02 20.04
v -3.96 0.02 20.04
v -3.96 9.58 20.04
v -3.96 9.58 20.04
v -3.96 9.58 27.96
v -3.96 9.58 27.96
v 3.96 9.58 20.04
v 3.96 9.58 20.04
v 3.96 9.58 27.96
v 3.96 9.58 27.96
v -2.4 0.02 21.6
v -2.4 0.02 21.6
v -2.4 0.02 26.4
v -2.4 0.02 26.4
v 2.4 0.02 21.6
v 2.4 0.02 21.6
v 2.4 0.02 26.4
v 2.4 0.02 26.4
v 2.4 8.6 26.4
v 2.4 8.6 26.4
v -2.4 8.6 26.4
v -2.4 8.6 26.4
v 2.4 8.6 21.6
v 2.4 8.6 21.6
v -2.4 8.6 21.6
v -2.4 8.6 21.6
v 0.918 11.15 21.783
v 0.821 11.4 22.018
v 0.89 11.327 21.852
v 1.517 11.4 22.483
v 1.697 11.15 22.303
v 1.644 11.327 22.356
v 2.217 11.15 23.082
v 1.982 11.4 23.179
v 2.148 11.327 23.11
v 2.145 11.4 24
v 2.4 11.15 24
v 2.325 11.327 24
v 2.217 11.15 24.918
v 1.982 11.4 24.821
v 2.148 11.327 24.89
v 1.697 11.15 25.697
v 1.517 11.4 25.517
v 1.644 11.327 25.644
v 0.918 11.15 26.217
v 0.821 11.4 25.982
v 0.89 11.327 26.148
v 0 11.15 26.4
v 0 11.4 26.145
v 0 11.327 26.325
v -0.821 11.4 25.982
v -0.918 11.15 26.217
v -0.89 11.327 26.148
v -1.697 11.15 25.697
v -1.517 11.4 25.517
v -1.644 11.327 25.644
v -2.217 11.15 24.918
v -1.982 11.4 24.821
v -2.148 11.327 24.89
v -2.4 11.15 24
v -2.145 11.4 24
v -2.325 11.327 24
v -2.217 11.15 23.082
v -1.982 11.4 23.179
v -2.148 11.327 23.11
v -1.517 11.4 22.483
v -1.697 11.15 22.303
v -1.644 11.327 22.356
v -0.918 11.15 21.783
v -0.821 11.4 22.018
v -0.89 11.327 21.852
v 0 11.15 21.6
v 0 11.4 21.855
v 0 11.327 21.675
v 1.063 11.4 25.014
v 1.164 11.4 24
v 1.063 11.4 22.986
v 0 11.4 25.097
v 0 11.4 24
v 0 11.4 22.903
v -1.063 11.4 25.014
v -1.164 11.4 24
v -1.063 11.4 22.986
v 0 9.73 21.6
v 0 9.58 21.447
v 0 9.624 21.555
v -0.977 9.58 21.641
v -0.918 9.73 21.783
v -0.936 9.624 21.741
v -1.805 9.58 22.195
v -1.697 9.73 22.303
v -1.729 9.624 22.271
v -2.359 9.58 23.023
v -2.217 9.73 23.082
v -2.259 9.624 23.064
v -2.553 9.58 24
v -2.4 9.73 24
v -2.445 9.624 24
v -2.359 9.58 24.977
v -2.217 9.73 24.918
v -2.259 9.624 24.936
v -1.805 9.58 25.805
v -1.697 9.73 25.697
v -1.729 9.624 25.729
v -0.977 9.58 26.359
v -0.918 9.73 26.217
v -0.936 9.624 26.259
v 0 9.58 26.553
v 0 9.73 26.4
v 0 9.624 26.445
v 0.977 9.58 26.359
v 0.918 9.73 26.217
v 0.936 9.624 26.259
v 1.805 9.58 25.805
v 1.697 9.73 25.697
v 1.729 9.624 25.729
v 2.359 9.58 24.977
v 2.217 9.73 24.918
v 2.259 9.624 24.936
v 2.553 9.58 24
v 2.4 9.73 24
v 2.445 9.624 24
v 2.359 9.58 23.023
v 2.217 9.73 23.082
v 2.259 9.624 23.064
v 1.805 9.58 22.195
v 1.697 9.73 22.303
v 1.729 9.624 22.271
v 0.977 9.58 21.641
v 0.918 9.73 21.783
v 0.936 9.624 21.741
usemtl MB_192
s off
f 479 486 483
f 486 484 483
f 488 481 485
f 481 482 485
f 480 489 477
f 489 490 477
f 476 491 478
f 491 487 478
f 465 466 464
f 466 467 464
f 463 492 462
f 492 494 462
f 460 496 463
f 496 492 463
f 496 460 498
f 460 461 498
f 462 494 461
f 494 498 461
f 495 502 499
f 502 500 499
f 470 501 497
f 501 504 497
f 471 505 493
f 505 506 493
f 468 507 469
f 507 503 469
f 472 473 475
f 473 474 475
f 515 558 517
f 558 557 517
f 544 548 575
f 548 572 575
f 563 542 562
f 542 539 562
f 559 562 530
f 562 532 530
f 547 545 551
f 545 564 551
f 554 561 509
f 561 558 509
f 562 539 532
f 539 536 532
f 521 556 524
f 556 527 524
f 551 564 554
f 564 561 554
f 564 545 563
f 545 542 563
f 509 558 511
f 558 515 511
f 517 557 521
f 557 556 521
f 556 559 527
f 559 530 527
f 512 513 514
f 513 516 514
f 513 511 516
f 511 515 516
f 518 519 520
f 519 522 520
f 519 517 522
f 517 521 522
f 533 534 535
f 534 537 535
f 534 532 537
f 532 536 537
f 520 522 523
f 522 525 523
f 522 521 525
f 521 524 525
f 523 525 526
f 525 528 526
f 525 524 528
f 524 527 528
f 535 537 538
f 537 540 538
f 537 536 540
f 536 539 540
f 538 540 541
f 540 543 541
f 540 539 543
f 539 542 543
f 548 549 550
f 549 552 550
f 549 547 552
f 547 551 552
f 526 528 529
f 528 531 529
f 528 527 531
f 527 530 531
f 529 531 533
f 531 534 533
f 531 530 534
f 530 532 534
f 541 543 544
f 543 546 544
f 543 542 546
f 542 545 546
f 544 546 548
f 546 549 548
f 546 545 549
f 545 547 549
f 550 552 553
f 552 555 553
f 552 551 555
f 551 554 555
f 514 516 518
f 516 519 518
f 516 515 519
f 515 517 519
f 553 555 508
f 555 510 508
f 555 554 510
f 554 509 510
f 508 510 512
f 510 513 512
f 510 509 513
f 509 511 513
f 557 560 556
f 560 559 556
f 560 563 559
f 563 562 559
f 558 561 557
f 561 560 557
f 561 564 560
f 564 563 560
f 569 565 570
f 565 567 570
f 570 567 568
f 567 566 568
f 572 569 573
f 569 570 573
f 573 570 571
f 570 568 571
f 575 572 576
f 572 573 576
f 576 573 574
f 573 571 574
f 578 575 579
f 575 576 579
f 579 576 577
f 576 574 577
f 581 578 582
f 578 579 582
f 582 579 580
f 579 577 580
f 584 581 585
f 581 582 585
f 585 582 583
f 582 580 583
f 587 584 588
f 584 585 588
f 588 585 586
f 585 583 586
f 590 587 591
f 587 588 591
f 591 588 589
f 588 586 589
f 593 590 594
f 590 591 594
f 594 591 592
f 591 589 592
f 596 593 597
f 593 594 597
f 597 594 595
f 594 592 595
f 599 596 600
f 596 597 600
f 600 597 598
f 597 595 598
f 602 599 603
f 599 600 603
f 603 600 601
f 600 598 601
f 605 602 606
f 602 603 606
f 606 603 604
f 603 601 604
f 608 605 609
f 605 606 609
f 609 606 607
f 606 604 607
f 611 608 612
f 608 609 612
f 612 609 610
f 609 607 610
f 565 611 567
f 611 612 567
f 567 612 566
f 612 610 566
f 523 526 596
f 526 593 596
f 548 550 572
f 550 569 572
f 526 529 593
f 529 590 593
f 565 553 611
f 553 508 611
f 550 553 569
f 553 565 569
f 529 533 590
f 533 587 590
f 611 508 608
f 508 512 608
f 533 535 587
f 535 584 587
f 512 514 608
f 514 605 608
f 535 538 584
f 538 581 584
f 514 518 605
f 518 602 605
f 538 541 581
f 541 578 581
f 518 520 602
f 520 599 602
f 541 544 578
f 544 575 578
f 520 523 599
f 523 596 599
o Part.5
v -24.04 0.02 -3.96
v -24.04 0.02 3.96
v -31.96 0.02 3.96
v -31.96 0.02 -3.96
v -31.96 9.58 -3.96
v -31.96 9.58 3.96
v -24.04 9.58 3.96
v -24.04 9.58 -3.96
v -30.4 0.02 -2.4
v -30.4 0.02 2.4
v -25.6 0.02 2.4
v -25.6 0.02 -2.4
v -25.6 8.6 -2.4
v -25.6 8.6 2.4
v -30.4 8.6 2.4
v -30.4 8.6 -2.4
v -24.04 0.02 3.96
v -24.04 0.02 3.96
v -31.96 0.02 3.96
v -31.96 0.02 3.96
v -24.04 0.02 -3.96
v -24.04 0.02 -3.96
v -31.96 0.02 -3.96
v -31.96 0.02 -3.96
v -31.96 9.58 -3.96
v -31.96 9.58 -3.96
v -31.96 9.58 3.96
v -31.96 9.58 3.96
v -24.04 9.58 -3.96
v -24.04 9.58 -3.96
v -24.04 9.58 3.96
v -24.04 9.58 3.96
v -30.4 0.02 -2.4
v -30.4 0.02 -2.4
v -30.4 0.02 2.4
v -30.4 0.02 2.4
v -25.6 0.02 -2.4
v -25.6 0.02 -2.4
v -25.6 0.02 2.4
v -25.6 0.02 2.4
v -25.6 8.6 2.4
v -25.6 8.6 2.4
v -30.4 8.6 2.4
v -30.4 8.6 2.4
v -25.6 8.6 -2.4
v -25.6 8.6 -2.4
v -30.4 8.6 -2.4
v -30.4 8.6 -2.4
v -27.082 11.15 -2.217
v -27.179 11.4 -1.982
v -27.11 11.327 -2.148
v -26.483 11.4 -1.517
v -26.303 11.15 -1.697
v -26.356 11.327 -1.644
v -25.783 11.15 -0.918
v -26.018 11.4 -0.821
v -25.852 11.327 -0.89
v -25.855 11.4 0
v -25.6 11.15 0
v -25.675 11.327 0
v -25.783 11.15 0.918
v -26.018 11.4 0.821
v -25.852 11.327 0.89
v -26.303 11.15 1.697
v -26.483 11.4 1.517
v -26.356 11.327 1.644
v -27.082 11.15 2.217
v -27.179 11.4 1.982
v -27.11 11.327 2.148
v -28 11.15 2.4
v -28 11.4 2.145
v -28 11.327 2.325
v -28.821 11.4 1.982
v -28.918 11.15 2.217
v -28.89 11.327 2.148
v -29.697 11.15 1.697
v -29.517 11.4 1.517
v -29.644 11.327 1.644
v -30.217 11.15 0.918
v -29.982 11.4 0.821
v -30.148 11.327 0.89
v -30.4 11.15 0
v -30.145 11.4 0
v -30.325 11.327 0
v -30.217 11.15 -0.918
v -29.982 11.4 -0.821
v -30.148 11.327 -0.89
v -29.517 11.4 -1.517
v -29.697 11.15 -1.697
v -29.644 11.327 -1.644
v -28.918 11.15 -2.217
v -28.821 11.4 -1.982
v -28.89 11.327 -2.148
v -28 11.15 -2.4
v -28 11.4 -2.145
v -28 11.327 -2.325
v -26.937 11.4 1.014
v -26.836 11.4 0
v -26.937 11.4 -1.014
v -28 11.4 1.097
v -28 11.4 0
v -28 11.4 -1.097
v -29.063 11.4 1.014
v -29.164 11.4 0
v -29.063 11.4 -1.014
v -28 9.73 -2.4
v -28 9.58 -2.553
v -28 9.624 -2.445
v -28.977 9.58 -2.359
v -28.918 9.73 -2.217
v -28.936 9.624 -2.259
v -29.805 9.58 -1.805
v -29.697 9.73 -1.697
v -29.729 9.624 -1.729
v -30.359 9.58 -0.977
v -30.217 9.73 -0.918
v -30.259 9.624 -0.936
v -30.553 9.58 0
v -30.4 9.73 0
v -30.445 9.624 0
v -30.359 9.58 0.977
v -30.217 9.73 0.918
v -30.259 9.624 0.936
v -29.805 9.58 1.805
v -29.697 9.73 1.697
v -29.729 9.624 1.729
v -28.977 9.58 2.359
v -28.918 9.73 2.217
v -28.936 9.624 2.259
v -28 9.58 2.553
v -28 9.73 2.4
v -28 9.624 2.445
v -27.023 9.58 2.359
v -27.082 9.73 2.217
v -27.064 9.624 2.259
v -26.195 9.58 1.805
v -26.303 9.73 1.697
v -26.271 9.624 1.729
v -25.641 9.58 0.977
v -25.783 9.73 0.918
v -25.741 9.624 0.936
v -25.447 9.58 0
v -25.6 9.73 0
v -25.555 9.624 0
v -25.641 9.58 -0.977
v -25.783 9.73 -0.918
v -25.741 9.624 -0.936
v -26.195 9.58 -1.805
v -26.303 9.73 -1.697
v -26.271 9.624 -1.729
v -27.023 9.58 -2.359
v -27.082 9.73 -2.217
v -27.064 9.624 -2.259
usemtl MB_192
s off
f 632 639 636
f 639 637 636
f 641 634 638
f 634 635 638
f 633 642 630
f 642 643 630
f 629 644 631
f 644 640 631
f 618 619 617
f 619 620 617
f 616 645 615
f 645 647 615
f 613 649 616
f 649 645 616
f 649 613 651
f 613 614 651
f 615 647 614
f 647 651 614
f 648 655 652
f 655 653 652
f 623 654 650
f 654 657 650
f 624 658 646
f 658 659 646
f 621 660 622
f 660 656 622
f 625 626 628
f 626 627 628
f 668 711 670
f 711 710 670
f 697 701 728
f 701 725 728
f 716 695 715
f 695 692 715
f 712 715 683
f 715 685 683
f 700 698 704
f 698 717 704
f 707 714 662
f 714 711 662
f 715 692 685
f 692 689 685
f 674 709 677
f 709 680 677
f 704 717 707
f 717 714 707
f 717 698 716
f 698 695 716
f 662 711 664
f 711 668 664
f 670 710 674
f 710 709 674
f 709 712 680
f 712 683 680
f 665 666 667
f 666 669 667
f 666 664 669
f 664 668 669
f 671 672 673
f 672 675 673
f 672 670 675
f 670 674 675
f 686 687 688
f 687 690 688
f 687 685 690
f 685 689 690
f 673 675 676
f 675 678 676
f 675 674 678
f 674 677 678
f 676 678 679
f 678 681 679
f 678 677 681
f 677 680 681
f 688 690 691
f 690 693 691
f 690 689 693
f 689 692 693
f 691 693 694
f 693 696 694
f 693 692 696
f 692 695 696
f 701 702 703
f 702 705 703
f 702 700 705
f 700 704 705
f 679 681 682
f 681 684 682
f 681 680 684
f 680 683 684
f 682 684 686
f 684 687 686
f 684 683 687
f 683 685 687
f 694 696 697
f 696 699 697
f 696 695 699
f 695 698 699
f 697 699 701
f 699 702 701
f 699 698 702
f 698 700 702
f 703 705 706
f 705 708 706
f 705 704 708
f 704 707 708
f 667 669 671
f 669 672 671
f 669 668 672
f 668 670 672
f 706 708 661
f 708 663 661
f 708 707 663
f 707 662 663
f 661 663 665
f 663 666 665
f 663 662 666
f 662 664 666
f 710 713 709
f 713 712 709
f 713 716 712
f 716 715 712
f 711 714 710
f 714 713 710
f 714 717 713
f 717 716 713
f 722 718 723
f 718 720 723
f 723 720 721
f 720 719 721
f 725 722 726
f 722 723 726
f 726 723 724
f 723 721 724
f 728 725 729
f 725 726 729
f 729 726 727
f 726 724 727
f 731 728 732
f 728 729 732
f 732 729 730
f 729 727 730
f 734 731 735
f 731 732 735
f 735 732 733
f 732 730 733
f 737 734 738
f 734 735 738
f 738 735 736
f 735 733 736
f 740 737 741
f 737 738 741
f 741 738 739
f 738 736 739
f 743 740 744
f 740 741 744
f 744 741 742
f 741 739 742
f 746 743 747
f 743 744 747
f 747 744 745
f 744 742 745
f 749 746 750
f 746 747 750
f 750 747 748
f 747 745 748
f 752 749 753
f 749 750 753
f 753 750 751
f 750 748 751
f 755 752 756
f 752 753 756
f 756 753 754
f 753 751 754
f 758 755 759
f 755 756 759
f 759 756 757
f 756 754 757
f 761 758 762
f 758 759 762
f 762 759 760
f 759 757 760
f 764 761 765
f 761 762 765
f 765 762 763
f 762 760 763
f 718 764 720
f 764 765 720
f 720 765 719
f 765 763 719
f 676 679 749
f 679 746 749
f 701 703 725
f 703 722 725
f 679 682 746
f 682 743 746
f 718 706 764
f 706 661 764
f 703 706 722
f 706 718 722
f 682 686 743
f 686 740 743
f 764 661 761
f 661 665 761
f 686 688 740
f 688 737 740
f 665 667 761
f 667 758 761
f 688 691 737
f 691 734 737
f 667 671 758
f 671 755 758
f 691 694 734
f 694 731 734
f 671 673 755
f 673 752 755
f 694 697 731
f 697 728 731
f 673 676 752
f 676 749 752
o Part.6
v -24.04 0.02 -27.96
v -24.04 0.02 -20.04
v -31.96 0.02 -20.04
v -31.96 0.02 -27.96
v -31.96 9.58 -27.96
v -31.96 9.58 -20.04
v -24.04 9.58 -20.04
v -24.04 9.58 -27.96
v -30.4 0.02 -26.4
v -30.4 0.02 -21.6
v -25.6 0.02 -21.6
v -25.6 0.02 -26.4
v -25.6 8.6 -26.4
v -25.6 8.6 -21.6
v -30.4 8.6 -21.6
v -30.4 8.6 -26.4
v -24.04 0.02 -20.04
v -24.04 0.02 -20.04
v -31.96 0.02 -20.04
v -31.96 0.02 -20.04
v -24.04 0.02 -27.96
v -24.04 0.02 -27.96
v -31.96 0.02 -27.96
v -31.96 0.02 -27.96
v -31.96 9.58 -27.96
v -31.96 9.58 -27.96
v -31.96 9.58 -20.04
v -31.96 9.58 -20.04
v -24.04 9.58 -27.96
v -24.04 9.58 -27.96
v -24.04 9.58 -20.04
v -24.04 9.58 -20.04
v -30.4 0.02 -26.4
v -30.4 0.02 -26.4
v -30.4 0.02 -21.6
v -30.4 0.02 -21.6
v -25.6 0.02 -26.4
v -25.6 0.02 -26.4
v -25.6 0.02 -21.6
v -25.6 0.02 -21.6
v -25.6 8.6 -21.6
v -25.6 8.6 -21.6
v -30.4 8.6 -21.6
v -30.4 8.6 -21.6
v -25.6 8.6 -26.4
v -25.6 8.6 -26.4
v -30.4 8.6 -26.4
v -30.4 8.6 -26.4
v -27.082 11.15 -26.217
v -27.179 11.4 -25.982
v -27.11 11.327 -26.148
v -26.483 11.4 -25.517
v -26.303 11.15 -25.697
v -26.356 11.327 -25.644
v -25.783 11.15 -24.918
v -26.018 11.4 -24.821
v -25.852 11.327 -24.89
v -25.855 11.4 -24
v -25.6 11.15 -24
v -25.675 11.327 -24
v -25.783 11.15 -23.082
v -26.018 11.4 -23.179
v -25.852 11.327 -23.11
v -26.303 11.15 -22.303
v -26.483 11.4 -22.483
v -26.356 11.327 -22.356
v -27.082 11.15 -21.783
v -27.179 11.4 -22.018
v -27.11 11.327 -21.852
v -28 11.15 -21.6
v -28 11.4 -21.855
v -28 11.327 -21.675
v -28.821 11.4 -22.018
v -28.918 11.15 -21.783
v -28.89 11.327 -21.852
v -29.697 11.15 -22.303
v -29.517 11.4 -22.483
v -29.644 11.327 -22.356
v -30.217 11.15 -23.082
v -29.982 11.4 -23.179
v -30.148 11.327 -23.11
v -30.4 11.15 -24
v -30.145 11.4 -24
v -30.325 11.327 -24
v -30.217 11.15 -24.918
v -29.982 11.4 -24.821
v -30.148 11.327 -24.89
v -29.517 11.4 -25.517
v -29.697 11.15 -25.697
v -29.644 11.327 -25.644
v -28.918 11.15 -26.217
v -28.821 11.4 -25.982
v -28.89 11.327 -26.148
v -28 11.15 -26.4
v -28 11.4 -26.145
v -28 11.327 -26.325
v -26.937 11.4 -22.986
v -26.836 11.4 -24
v -26.937 11.4 -25.014
v -28 11.4 -22.903
v -28 11.4 -24
v -28 11.4 -25.097
v -29.063 11.4 -22.986
v -29.164 11.4 -24
v -29.063 11.4 -25.014
v -28 9.73 -26.4
v -28 9.58 -26.553
v -28 9.624 -26.445
v -28.977 9.58 -26.359
v -28.918 9.73 -26.217
v -28.936 9.624 -26.259
v -29.805 9.58 -25.805
v -29.697 9.73 -25.697
v -29.729 9.624 -25.729
v -30.359 9.58 -24.977
v -30.217 9.73 -24.918
v -30.259 9.624 -24.936
v -30.553 9.58 -24
v -30.4 9.73 -24
v -30.445 9.624 -24
v -30.359 9.58 -23.023
v -30.217 9.73 -23.082
v -30.259 9.624 -23.064
v -29.805 9.58 -22.195
v -29.697 9.73 -22.303
v -29.729 9.624 -22.271
v -28.977 9.58 -21.641
v -28.918 9.73 -21.783
v -28.936 9.624 -21.741
v -28 9.58 -21.447
v -28 9.73 -21.6
v -28 9.624 -21.555
v -27.023 9.58 -21.641
v -27.082 9.73 -21.783
v -27.064 9.624 -21.741
v -26.195 9.58 -22.195
v -26.303 9.73 -22.303
v -26.271 9.624 -22.271
v -25.641 9.58 -23.023
v -25.783 9.73 -23.082
v -25.741 9.624 -23.064
v -25.447 9.58 -24
v -25.6 9.73 -24
v -25.555 9.624 -24
v -25.641 9.58 -24.977
v -25.783 9.73 -24.918
v -25.741 9.624 -24.936
v -26.195 9.58 -25.805
v -26.303 9.73 -25.697
v -26.271 9.624 -25.729
v -27.023 9.58 -26.359
v -27.082 9.73 -26.217
v -27.064 9.624 -26.259
usemtl MB_192
s off
f 785 792 789
f 792 790 789
f 794 787 791
f 787 788 791
f 786 795 783
f 795 796 783
f 782 797 784
f 797 793 784
f 771 772 770
f 772 773 770
f 769 798 768
f 798 800 768
f 766 802 769
f 802 798 769
f 802 766 804
f 766 767 804
f 768 800 767
f 800 804 767
f 801 808 805
f 808 806 805
f 776 807 803
f 807 810 803
f 777 811 799
f 811 812 799
f 774 813 775
f 813 809 775
f 778 779 781
f 779 780 781
f 821 864 823
f 864 863 823
f 850 854 881
f 854 878 881
f 869 848 868
f 848 845 868
f 865 868 836
f 868 838 836
f 853 851 857
f 851 870 857
f 860 867 815
f 867 864 815
f 868 845 838
f 845 842 838
f 827 862 830
f 862 833 830
f 857 870 860
f 870 867 860
f 870 851 869
f 851 848 869
f 815 864 817
f 864 821 817
f 823 863 827
f 863 862 827
f 862 865 833
f 865 836 833
f 818 819 820
f 819 822 820
f 819 817 822
f 817 821 822
f 824 825 826
f 825 828 826
f 825 823 828
f 823 827 828
f 839 840 841
f 840 843 841
f 840 838 843
f 838 842 843
f 826 828 829
f 828 831 829
f 828 827 831
f 827 830 831
f 829 831 832
f 831 834 832
f 831 830 834
f 830 833 834
f 841 843 844
f 843 846 844
f 843 842 846
f 842 845 846
f 844 846 847
f 846 849 847
f 846 845 849
f 845 848 849
f 854 855 856
f 855 858 856
f 855 853 858
f 853 857 858
f 832 834 835
f 834 837 835
f 834 833 837
f 833 836 837
f 835 837 839
f 837 840 839
f 837 836 840
f 836 838 840
f 847 849 850
f 849 852 850
f 849 848 852
f 848 851 852
f 850 852 854
f 852 855 854
f 852 851 855
f 851 853 855
f 856 858 859
f 858 861 859
f 858 857 861
f 857 860 861
f 820 822 824
f 822 825 824
f 822 821 825
f 821 823 825
f 859 861 814
f 861 816 814
f 861 860 816
f 860 815 816
f 814 816 818
f 816 819 818
f 816 815 819
f 815 817 819
f 863 866 862
f 866 865 862
f 866 869 865
f 869 868 865
f 864 867 863
f 867 866 863
f 867 870 866
f 870 869 866
f 875 871 876
f 871 873 876
f 876 873 874
f 873 872 874
f 878 875 879
f 875 876 879
f 879 876 877
f 876 874 877
f 881 878 882
f 878 879 882
f 882 879 880
f 879 877 880
f 884 881 885
f 881 882 885
f 885 882 883
f 882 880 883
f 887 884 888
f 884 885 888
f 888 885 886
f 885 883 886
f 890 887 891
f 887 888 891
f 891 888 889
f 888 886 889
f 893 890 894
f 890 891 894
f 894 891 892
f 891 889 892
f 896 893 897
f 893 894 897
f 897 894 895
f 894 892 895
f 899 896 900
f 896 897 900
f 900 897 898
f 897 895 898
f 902 899 903
f 899 900 903
f 903 900 901
f 900 898 901
f 905 902 906
f 902 903 906
f 906 903 904
f 903 901 904
f 908 905 909
f 905 906 909
f 909 906 907
f 906 904 907
f 911 908 912
f 908 909 912
f 912 909 910
f 909 907 910
f 914 911 915
f 911 912 915
f 915 912 913
f 912 910 913
f 917 914 918
f 914 915 918
f 918 915 916
f 915 913 916
f 871 917 873
f 917 918 873
f 873 918 872
f 918 916 872
f 829 832 902
f 832 899 902
f 854 856 878
f 856 875 878
f 832 835 899
f 835 896 899
f 871 859 917
f 859 814 917
f 856 859 875
f 859 871 875
f 835 839 896
f 839 893 896
f 917 814 914
f 814 818 914
f 839 841 893
f 841 890 893
f 818 820 914
f 820 911 914
f 841 844 890
f 844 887 890
f 820 824 911
f 824 908 911
f 844 847 887
f 847 884 887
f 824 826 908
f 826 905 908
f 847 850 884
f 850 881 884
f 826 829 905
f 829 902 905
o Part.7
v 7.96 0.02 -27.96
v 7.96 0.02 -20.04
v 0.04 0.02 -20.04
v 0.04 0.02 -27.96
v 0.04 9.58 -27.96
v 0.04 9.58 -20.04
v 7.96 9.58 -20.04
v 7.96 9.58 -27.96
v 1.6 0.02 -26.4
v 1.6 0.02 -21.6
v 6.4 0.02 -21.6
v 6.4 0.02 -26.4
v 6.4 8.6 -26.4
v 6.4 8.6 -21.6
v 1.6 8.6 -21.6
v 1.6 8.6 -26.4
v 7.96 0.02 -20.04
v 7.96 0.02 -20.04
v 0.04 0.02 -20.04
v 0.04 0.02 -20.04
v 7.96 0.02 -27.96
v 7.96 0.02 -27.96
v 0.04 0.02 -27.96
v 0.04 0.02 -27.96
v 0.04 9.58 -27.96
v 0.04 9.58 -27.96
v 0.04 9.58 -20.04
v 0.04 9.58 -20.04
v 7.96 9.58 -27.96
v 7.96 9.58 -27.96
v 7.96 9.58 -20.04
v 7.96 9.58 -20.04
v 1.6 0.02 -26.4
v 1.6 0.02 -26.4
v 1.6 0.02 -21.6
v 1.6 0.02 -21.6
v 6.4 0.02 -26.4
v 6.4 0.02 -26.4
v 6.4 0.02 -21.6
v 6.4 0.02 -21.6
v 6.4 8.6 -21.6
v 6.4 8.6 -21.6
v 1.6 8.6 -21.6
v 1.6 8.6 -21.6
v 6.4 8.6 -26.4
v 6.4 8.6 -26.4
v 1.6 8.6 -26.4
v 1.6 8.6 -26.4
v 4.918 11.15 -26.217
v 4.821 11.4 -25.982
v 4.89 11.327 -26.148
v 5.517 11.4 -25.517
v 5.697 11.15 -25.697
v 5.644 11.327 -25.644
v 6.217 11.15 -24.918
v 5.982 11.4 -24.821
v 6.148 11.327 -24.89
v 6.145 11.4 -24
v 6.4 11.15 -24
v 6.325 11.327 -24
v 6.217 11.15 -23.082
v 5.982 11.4 -23.179
v 6.148 11.327 -23.11
v 5.697 11.15 -22.303
v 5.517 11.4 -22.483
v 5.644 11.327 -22.356
v 4.918 11.15 -21.783
v 4.821 11.4 -22.018
v 4.89 11.327 -21.852
v 4 11.15 -21.6
v 4 11.4 -21.855
v 4 11.327 -21.675
v 3.179 11.4 -22.018
v 3.082 11.15 -21.783
v 3.11 11.327 -21.852
v 2.303 11.15 -22.303
v 2.483 11.4 -22.483
v 2.356 11.327 -22.356
v 1.783 11.15 -23.082
v 2.018 11.4 -23.179
v 1.852 11.327 -23.11
v 1.6 11.15 -24
v 1.855 11.4 -24
v 1.675 11.327 -24
v 1.783 11.15 -24.918
v 2.018 11.4 -24.821
v 1.852 11.327 -24.89
v 2.483 11.4 -25.517
v 2.303 11.15 -25.697
v 2.356 11.327 -25.644
v 3.082 11.15 -26.217
v 3.179 11.4 -25.982
v 3.11 11.327 -26.148
v 4 11.15 -26.4
v 4 11.4 -26.145
v 4 11.327 -26.325
v 5.063 11.4 -22.986
v 5.164 11.4 -24
v 5.063 11.4 -25.014
v 4 11.4 -22.903
v 4 11.4 -24
v 4 11.4 -25.097
v 2.937 11.4 -22.986
v 2.836 11.4 -24
v 2.937 11.4 -25.014
v 4 9.73 -26.4
v 4 9.58 -26.553
v 4 9.624 -26.445
v 3.023 9.58 -26.359
v 3.082 9.73 -26.217
v 3.064 9.624 -26.259
v 2.195 9.58 -25.805
v 2.303 9.73 -25.697
v 2.271 9.624 -25.729
v 1.641 9.58 -24.977
v 1.783 9.73 -24.918
v 1.741 9.624 -24.936
v 1.447 9.58 -24
v 1.6 9.73 -24
v 1.555 9.624 -24
v 1.641 9.58 -23.023
v 1.783 9.73 -23.082
v 1.741 9.624 -23.064
v 2.195 9.58 -22.195
v 2.303 9.73 -22.303
v 2.271 9.624 -22.271
v 3.023 9.58 -21.641
v 3.082 9.73 -21.783
v 3.064 9.624 -21.741
v 4 9.58 -21.447
v 4 9.73 -21.6
v 4 9.624 -21.555
v 4.977 9.58 -21.641
v 4.918 9.73 -21.783
v 4.936 9.624 -21.741
v 5.805 9.58 -22.195
v 5.697 9.73 -22.303
v 5.729 9.624 -22.271
v 6.359 9.58 -23.023
v 6.217 9.73 -23.082
v 6.259 9.624 -23.064
v 6.553 9.58 -24
v 6.4 9.73 -24
v 6.445 9.624 -24
v 6.359 9.58 -24.977
v 6.217 9.73 -24.918
v 6.259 9.624 -24.936
v 5.805 9.58 -25.805
v 5.697 9.73 -25.697
v 5.729 9.624 -25.729
v 4.977 9.58 -26.359
v 4.918 9.73 -26.217
v 4.936 9.624 -26.259
usemtl MB_192
s off
f 938 945 942
f 945 943 942
f 947 940 944
f 940 941 944
f 939 948 936
f 948 949 936
f 935 950 937
f 950 946 937
f 924 925 923
f 925 926 923
f 922 951 921
f 951 953 921
f 919 955 922
f 955 951 922
f 955 919 957
f 919 920 957
f 921 953 920
f 953 957 920
f 954 961 958
f 961 959 958
f 929 960 956
f 960 963 956
f 930 964 952
f 964 965 952
f 927 966 928
f 966 962 928
f 931 932 934
f 932 933 934
f 974 1017 976
f 1017 1016 976
f 1003 1007 1034
f 1007 1031 1034
f 1022 1001 1021
f 1001 998 1021
f 1018 1021 989
f 1021 991 989
f 1006 1004 1010
f 1004 1023 1010
f 1013 1020 968
f 1020 1017 968
f 1021 998 991
f 998 995 991
f 980 1015 983
f 1015 986 983
f 1010 1023 1013
f 1023 1020 1013
f 1023 1004 1022
f 1004 1001 1022
f 968 1017 970
f 1017 974 970
f 976 1016 980
f 1016 1015 980
f 1015 1018 986
f 1018 989 986
f 971 972 973
f 972 975 973
f 972 970 975
f 970 974 975
f 977 978 979
f 978 981 979
f 978 976 981
f 976 980 981
f 992 993 994
f 993 996 994
f 993 991 996
f 991 995 996
f 979 981 982
f 981 984 982
f 981 980 984
f 980 983 984
f 982 984 985
f 984 987 985
f 984 983 987
f 983 986 987
f 994 996 997
f 996 999 997
f 996 995 999
f 995 998 999
f 997 999 1000
f 999 1002 1000
f 999 998 1002
f 998 1001 1002
f 1007 1008 1009
f 1008 1011 1009
f 1008 1006 1011
f 1006 1010 1011
f 985 987 988
f 987 990 988
f 987 986 990
f 986 989 990
f 988 990 992
f 990 993 992
f 990 989 993
f 989 991 993
f 1000 1002 1003
f 1002 1005 1003
f 1002 1001 1005
f 1001 1004 1005
f 1003 1005 1007
f 1005 1008 1007
f 1005 1004 1008
f 1004 1006 1008
f 1009 1011 1012
f 1011 1014 1012
f 1011 1010 1014
f 1010 1013 1014
f 973 975 977
f 975 978 977
f 975 974 978
f 974 976 978
f 1012 1014 967
f 1014 969 967
f 1014 1013 969
f 1013 968 969
f 967 969 971
f 969 972 971
f 969 968 972
f 968 970 972
f 1016 1019 1015
f 1019 1018 1015
f 1019 1022 1018
f 1022 1021 1018
f 1017 1020 1016
f 1020 1019 1016
f 1020 1023 1019
f 1023 1022 1019
f 1028 1024 1029
f 1024 1026 1029
f 1029 1026 1027
f 1026 1025 1027
f 1031 1028 1032
f 1028 1029 1032
f 1032 1029 1030
f 1029 1027 1030
f 1034 1031 1035
f 1031 1032 1035
f 1035 1032 1033
f 1032 1030 1033
f 1037 1034 1038
f 1034 1035 1038
f 1038 1035 1036
f 1035 1033 1036
f 1040 1037 1041
f 1037 1038 1041
f 1041 1038 1039
f 1038 1036 1039
f 1043 1040 1044
f 1040 1041 1044
f 1044 1041 1042
f 1041 1039 1042
f 1046 1043 1047
f 1043 1044 1047
f 1047 1044 1045
f 1044 1042 1045
f 1049 1046 1050
f 1046 1047 1050
f 1050 1047 1048
f 1047 1045 1048
f 1052 1049 1053
f 1049 1050 1053
f 1053 1050 1051
f 1050 1048 1051
f 1055 1052 1056
f 1052 1053 1056
f 1056 1053 1054
f 1053 1051 1054
f 1058 1055 1059
f 1055 1056 1059
f 1059 1056 1057
f 1056 1054 1057
f 1061 1058 1062
f 1058 1059 1062
f 1062 1059 1060
f 1059 1057 1060
f 1064 1061 1065
f 1061 1062 1065
f 1065 1062 1063
f 1062 1060 1063
f 1067 1064 1068
f 1064 1065 1068
f 1068 1065 1066
f 1065 1063 1066
f 1070 1067 1071
f 1067 1068 1071
f 1071 1068 1069
f 1068 1066 1069
f 1024 1070 1026
f 1070 1071 1026
f 1026 1071 1025
f 1071 1069 1025
f 982 985 1055
f 985 1052 1055
f 1007 1009 1031
f 1009 1028 1031
f 985 988 1052
f 988 1049 1052
f 1024 1012 1070
f 1012 967 1070
f 1009 1012 1028
f 1012 1024 1028
f 988 992 1049
f 992 1046 1049
f 1070 967 1067
f 967 971 1067
f 992 994 1046
f 994 1043 1046
f 971 973 1067
f 973 1064 1067
f 994 997 1043
f 997 1040 1043
f 973 977 1064
f 977 1061 1064
f 997 1000 1040
f 1000 1037 1040
f 977 979 1061
f 979 1058 1061
f 1000 1003 1037
f 1003 1034 1037
f 979 982 1058
f 982 1055 1058
o Part.8
v 27.96 0.02 -27.96
v 27.96 0.02 -20.04
v 20.04 0.02 -20.04
v 20.04 0.02 -27.96
v 20.04 9.58 -27.96
v 20.04 9.58 -20.04
v 27.96 9.58 -20.04
v 27.96 9.58 -27.96
v 21.6 0.02 -26.4
v 21.6 0.02 -21.6
v 26.4 0.02 -21.6
v 26.4 0.02 -26.4
v 26.4 8.6 -26.4
v 26.4 8.6 -21.6
v 21.6 8.6 -21.6
v 21.6 8.6 -26.4
v 27.96 0.02 -20.04
v 27.96 0.02 -20.04
v 20.04 0.02 -20.04
v 20.04 0.02 -20.04
v 27.96 0.02 -27.96
v 27.96 0.02 -27.96
v 20.04 0.02 -27.96
v 20.04 0.02 -27.96
v 20.04 9.58 -27.96
v 20.04 9.58 -27.96
v 20.04 9.58 -20.04
v 20.04 9.58 -20.04
v 27.96 9.58 -27.96
v 27.96 9.58 -27.96
v 27.96 9.58 -20.04
v 27.96 9.58 -20.04
v 21.6 0.02 -26.4
v 21.6 0.02 -26.4
v 21.6 0.02 -21.6
v 21.6 0.02 -21.6
v 26.4 0.02 -26.4
v 26.4 0.02 -26.4
v 26.4 0.02 -21.6
v 26.4 0.02 -21.6
v 26.4 8.6 -21.6
v 26.4 8.6 -21.6
v 21.6 8.6 -21.6
v 21.6 8.6 -21.6
v 26.4 8.6 -26.4
v 26.4 8.6 -26.4
v 21.6 8.6 -26.4
v 21.6 8.6 -26.4
v 24.918 11.15 -26.217
v 24.821 11.4 -25.982
v 24.89 11.327 -26.148
v 25.517 11.4 -25.517
v 25.697 11.15 -25.697
v 25.644 11.327 -25.644
v 26.217 11.15 -24.918
v 25.982 11.4 -24.821
v 26.148 11.327 -24.89
v 26.145 11.4 -24
v 26.4 11.15 -24
v 26.325 11.327 -24
v 26.217 11.15 -23.082
v 25.982 11.4 -23.179
v 26.148 11.327 -23.11
v 25.697 11.15 -22.303
v 25.517 11.4 -22.483
v 25.644 11.327 -22.356
v 24.918 11.15 -21.783
v 24.821 11.4 -22.018
v 24.89 11.327 -21.852
v 24 11.15 -21.6
v 24 11.4 -21.855
v 24 11.327 -21.675
v 23.179 11.4 -22.018
v 23.082 11.15 -21.783
v 23.11 11.327 -21.852
v 22.303 11.15 -22.303
v 22.483 11.4 -22.483
v 22.356 11.327 -22.356
v 21.783 11.15 -23.082
v 22.018 11.4 -23.179
v 21.852 11.327 -23.11
v 21.6 11.15 -24
v 21.855 11.4 -24
v 21.675 11.327 -24
v 21.783 11.15 -24.918
v 22.018 11.4 -24.821
v 21.852 11.327 -24.89
v 22.483 11.4 -25.517
v 22.303 11.15 -25.697
v 22.356 11.327 -25.644
v 23.082 11.15 -26.217
v 23.179 11.4 -25.982
v 23.11 11.327 -26.148
v 24 11.15 -26.4
v 24 11.4 -26.145
v 24 11.327 -26.325
v 25.063 11.4 -22.986
v 25.164 11.4 -24
v 25.063 11.4 -25.014
v 24 11.4 -22.903
v 24 11.4 -24
v 24 11.4 -25.097
v 22.937 11.4 -22.986
v 22.836 11.4 -24
v 22.937 11.4 -25.014
v 24 9.73 -26.4
v 24 9.58 -26.553
v 24 9.624 -26.445
v 23.023 9.58 -26.359
v 23.082 9.73 -26.217
v 23.064 9.624 -26.259
v 22.195 9.58 -25.805
v 22.303 9.73 -25.697
v 22.271 9.624 -25.729
v 21.641 9.58 -24.977
v 21.783 9.73 -24.918
v 21.741 9.624 -24.936
v 21.447 9.58 -24
v 21.6 9.73 -24
v 21.555 9.624 -24
v 21.641 9.58 -23.023
v 21.783 9.73 -23.082
v 21.741 9.624 -23.064
v 22.195 9.58 -22.195
v 22.303 9.73 -22.303
v 22.271 9.624 -22.271
v 23.023 9.58 -21.641
v 23.082 9.73 -21.783
v 23.064 9.624 -21.741
v 24 9.58 -21.447
v 24 9.73 -21.6
v 24 9.624 -21.555
v 24.977 9.58 -21.641
v 24.918 9.73 -21.783
v 24.936 9.624 -21.741
v 25.805 9.58 -22.195
v 25.697 9.73 -22.303
v 25.729 9.624 -22.271
v 26.359 9.58 -23.023
v 26.217 9.73 -23.082
v 26.259 9.624 -23.064
v 26.553 9.58 -24
v 26.4 9.73 -24
v 26.445 9.624 -24
v 26.359 9.58 -24.977
v 26.217 9.73 -24.918
v 26.259 9.624 -24.936
v 25.805 9.58 -25.805
v 25.697 9.73 -25.697
v 25.729 9.624 -25.729
v 24.977 9.58 -26.359
v 24.918 9.73 -26.217
v 24.936 9.624 -26.259
usemtl MB_192
s off
f 1091 1098 1095
f 1098 1096 1095
f 1100 1093 1097
f 1093 1094 1097
f 1092 1101 1089
f 1101 1102 1089
f 1088 1103 1090
f 1103 1099 1090
f 1077 1078 1076
f 1078 1079 1076
f 1075 1104 1074
f 1104 1106 1074
f 1072 1108 1075
f 1108 1104 1075
f 1108 1072 1110
f 1072 1073 1110
f 1074 1106 1073
f 1106 1110 1073
f 1107 1114 1111
f 1114 1112 1111
f 1082 1113 1109
f 1113 1116 1109
f 1083 1117 1105
f 1117 1118 1105
f 1080 1119 1081
f 1119 1115 1081
f 1084 1085 1087
f 1085 1086 1087
f 1127 1170 1129
f 1170 1169 1129
f 1156 1160 1187
f 1160 1184 1187
f 1175 1154 1174
f 1154 1151 1174
f 1171 1174 1142
f 1174 1144 1142
f 1159 1157 1163
f 1157 1176 1163
f 1166 1173 1121
f 1173 1170 1121
f 1174 1151 1144
f 1151 1148 1144
f 1133 1168 1136
f 1168 1139 1136
f 1163 1176 1166
f 1176 1173 1166
f 1176 1157 1175
f 1157 1154 1175
f 1121 1170 1123
f 1170 1127 1123
f 1129 1169 1133
f 1169 1168 1133
f 1168 1171 1139
f 1171 1142 1139
f 1124 1125 1126
f 1125 1128 1126
f 1125 1123 1128
f 1123 1127 1128
f 1130 1131 1132
f 1131 1134 1132
f 1131 1129 1134
f 1129 1133 1134
f 1145 1146 1147
f 1146 1149 1147
f 1146 1144 1149
f 1144 1148 1149
f 1132 1134 1135
f 1134 1137 1135
f 1134 1133 1137
f 1133 1136 1137
f 1135 1137 1138
f 1137 1140 1138
f 1137 1136 1140
f 1136 1139 1140
f 1147 1149 1150
f 1149 1152 1150
f 1149 1148 1152
f 1148 1151 1152
f 1150 1152 1153
f 1152 1155 1153
f 1152 1151 1155
f 1151 1154 1155
f 1160 1161 1162
f 1161 1164 1162
f 1161 1159 1164
f 1159 1163 1164
f 1138 1140 1141
f 1140 1143 1141
f 1140 1139 1143
f 1139 1142 1143
f 1141 1143 1145
f 1143 1146 1145
f 1143 1142 1146
f 1142 1144 1146
f 1153 1155 1156
f 1155 1158 1156
f 1155 1154 1158
f 1154 1157 1158
f 1156 1158 1160
f 1158 1161 1160
f 1158 1157 1161
f 1157 1159 1161
f 1162 1164 1165
f 1164 1167 1165
f 1164 1163 1167
f 1163 1166 1167
f 1126 1128 1130
f 1128 1131 1130
f 1128 1127 1131
f 1127 1129 1131
f 1165 1167 1120
f 1167 1122 1120
f 1167 1166 1122
f 1166 1121 1122
f 1120 1122 1124
f 1122 1125 1124
f 1122 1121 1125
f 1121 1123 1125
f 1169 1172 1168
f 1172 1171 1168
f 1172 1175 1171
f 1175 1174 1171
f 1170 1173 1169
f 1173 1172 1169
f 1173 1176 1172
f 1176 1175 1172
f 1181 1177 1182
f 1177 1179 1182
f 1182 1179 1180
f 1179 1178 1180
f 1184 1181 1185
f 1181 1182 1185
f 1185 1182 1183
f 1182 1180 1183
f 1187 1184 1188
f 1184 1185 1188
f 1188 1185 1186
f 1185 1183 1186
f 1190 1187 1191
f 1187 1188 1191
f 1191 1188 1189
f 1188 1186 1189
f 1193 1190 1194
f 1190 1191 1194
f 1194 1191 1192
f 1191 1189 1192
f 1196 1193 1197
f 1193 1194 1197
f 1197 1194 1195
f 1194 1192 1195
f 1199 1196 1200
f 1196 1197 1200
f 1200 1197 1198
f 1197 1195 1198
f 1202 1199 1203
f 1199 1200 1203
f 1203 1200 1201
f 1200 1198 1201
f 1205 1202 1206
f 1202 1203 1206
f 1206 1203 1204
f 1203 1201 1204
f 1208 1205 1209
f 1205 1206 1209
f 1209 1206 1207
f 1206 1204 1207
f 1211 1208 1212
f 1208 1209 1212
f 1212 1209 1210
f 1209 1207 1210
f 1214 1211 1215
f 1211 1212 1215
f 1215 1212 1213
f 1212 1210 1213
f 1217 1214 1218
f 1214 1215 1218
f 1218 1215 1216
f 1215 1213 1216
f 1220 1217 1221
f 1217 1218 1221
f 1221 1218 1219
f 1218 1216 1219
f 1223 1220 1224
f 1220 1221 1224
f 1224 1221 1222
f 1221 1219 1222
f 1177 1223 1179
f 1223 1224 1179
f 1179 1224 1178
f 1224 1222 1178
f 1135 1138 1208
f 1138 1205 1208
f 1160 1162 1184
f 1162 1181 1184
f 1138 1141 1205
f 1141 1202 1205
f 1177 1165 1223
f 1165 1120 1223
f 1162 1165 1181
f 1165 1177 1181
f 1141 1145 1202
f 1145 1199 1202
f 1223 1120 1220
f 1120 1124 1220
f 1145 1147 1199
f 1147 1196 1199
f 1124 1126 1220
f 1126 1217 1220
f 1147 1150 1196
f 1150 1193 1196
f 1126 1130 1217
f 1130 1214 1217
f 1150 1153 1193
f 1153 1190 1193
f 1130 1132 1214
f 1132 1211 1214
f 1153 1156 1190
f 1156 1187 1190
f 1132 1135 1211
f 1135 1208 1211
o Part.9
v -0.04 0.02 -47.96
v -0.04 0.02 -40.04
v -7.96 0.02 -40.04
v -7.96 0.02 -47.96
v -7.96 9.58 -47.96
v -7.96 9.58 -40.04
v -0.04 9.58 -40.04
v -0.04 9.58 -47.96
v -6.4 0.02 -46.4
v -6.4 0.02 -41.6
v -1.6 0.02 -41.6
v -1.6 0.02 -46.4
v -1.6 8.6 -46.4
v -1.6 8.6 -41.6
v -6.4 8.6 -41.6
v -6.4 8.6 -46.4
v -0.04 0.02 -40.04
v -0.04 0.02 -40.04
v -7.96 0.02 -40.04
v -7.96 0.02 -40.04
v -0.04 0.02 -47.96
v -0.04 0.02 -47.96
v -7.96 0.02 -47.96
v -7.96 0.02 -47.96
v -7.96 9.58 -47.96
v -7.96 9.58 -47.96
v -7.96 9.58 -40.04
v -7.96 9.58 -40.04
v -0.04 9.58 -47.96
v -0.04 9.58 -47.96
v -0.04 9.58 -40.04
v -0.04 9.58 -40.04
v -6.4 0.02 -46.4
v -6.4 0.02 -46.4
v -6.4 0.02 -41.6
v -6.4 0.02 -41.6
v -1.6 0.02 -46.4
v -1.6 0.02 -46.4
v -1.6 0.02 -41.6
v -1.6 0.02 -41.6
v -1.6 8.6 -41.6
v -1.6 8.6 -41.6
v -6.4 8.6 -41.6
v -6.4 8.6 -41.6
v -1.6 8.6 -46.4
v -1.6 8.6 -46.4
v -6.4 8.6 -46.4
v -6.4 8.6 -46.4
v -3.082 11.15 -46.217
v -3.179 11.4 -45.982
v -3.11 11.327 -46.148
v -2.483 11.4 -45.517
v -2.303 11.15 -45.697
v -2.356 11.327 -45.644
v -1.783 11.15 -44.918
v -2.018 11.4 -44.821
v -1.852 11.327 -44.89
v -1.855 11.4 -44
v -1.6 11.15 -44
v -1.675 11.327 -44
v -1.783 11.15 -43.082
v -2.018 11.4 -43.179
v -1.852 11.327 -43.11
v -2.303 11.15 -42.303
v -2.483 11.4 -42.483
v -2.356 11.327 -42.356
v -3.082 11.15 -41.783
v -3.179 11.4 -42.018
v -3.11 11.327 -41.852
v -4 11.15 -41.6
v -4 11.4 -41.855
v -4 11.327 -41.675
v -4.821 11.4 -42.018
v -4.918 11.15 -41.783
v -4.89 11.327 -41.852
v -5.697 11.15 -42.303
v -5.517 11.4 -42.483
v -5.644 11.327 -42.356
v -6.217 11.15 -43.082
v -5.982 11.4 -43.179
v -6.148 11.327 -43.11
v -6.4 11.15 -44
v -6.145 11.4 -44
v -6.325 11.327 -44
v -6.217 11.15 -44.918
v -5.982 11.4 -44.821
v -6.148 11.327 -44.89
v -5.517 11.4 -45.517
v -5.697 11.15 -45.697
v -5.644 11.327 -45.644
v -4.918 11.15 -46.217
v -4.821 11.4 -45.982
v -4.89 11.327 -46.148
v -4 11.15 -46.4
v -4 11.4 -46.145
v -4 11.327 -46.325
v -2.937 11.4 -42.986
v -2.836 11.4 -44
v -2.937 11.4 -45.014
v -4 11.4 -42.903
v -4 11.4 -44
v -4 11.4 -45.097
v -5.063 11.4 -42.986
v -5.164 11.4 -44
v -5.063 11.4 -45.014
v -4 9.73 -46.4
v -4 9.58 -46.553
v -4 9.624 -46.445
v -4.977 9.58 -46.359
v -4.918 9.73 -46.217
v -4.936 9.624 -46.259
v -5.805 9.58 -45.805
v -5.697 9.73 -45.697
v -5.729 9.624 -45.729
v -6.359 9.58 -44.977
v -6.217 9.73 -44.918
v -6.259 9.624 -44.936
v -6.553 9.58 -44
v -6.4 9.73 -44
v -6.445 9.624 -44
v -6.359 9.58 -43.023
v -6.217 9.73 -43.082
v -6.259 9.624 -43.064
v -5.805 9.58 -42.195
v -5.697 9.73 -42.303
v -5.729 9.624 -42.271
v -4.977 9.58 -41.641
v -4.918 9.73 -41.783
v -4.936 9.624 -41.741
v -4 9.58 -41.447
v -4 9.73 -41.6
v -4 9.624 -41.555
v -3.023 9.58 -41.641
v -3.082 9.73 -41.783
v -3.064 9.624 -41.741
v -2.195 9.58 -42.195
v -2.303 9.73 -42.303
v -2.271 9.624 -42.271
v -1.641 9.58 -43.023
v -1.783 9.73 -43.082
v -1.741 9.624 -43.064
v -1.447 9.58 -44
v -1.6 9.73 -44
v -1.555 9.624 -44
v -1.641 9.58 -44.977
v -1.783 9.73 -44.918
v -1.741 9.624 -44.936
v -2.195 9.58 -45.805
v -2.303 9.73 -45.697
v -2.271 9.624 -45.729
v -3.023 9.58 -46.359
v -3.082 9.73 -46.217
v -3.064 9.624 -46.259
usemtl MB_192
s off
f 1244 1251 1248
f 1251 1249 1248
f 1253 1246 1250
f 1246 1247 1250
f 1245 1254 1242
f 1254 1255 1242
f 1241 1256 1243
f 1256 1252 1243
f 1230 1231 1229
f 1231 1232 1229
f 1228 1257 1227
f 1257 1259 1227
f 1225 1261 1228
f 1261 1257 1228
f 1261 1225 1263
f 1225 1226 1263
f 1227 1259 1226
f 1259 1263 1226
f 1260 1267 1264
f 1267 1265 1264
f 1235 1266 1262
f 1266 1269 1262
f 1236 1270 1258
f 1270 1271 1258
f 1233 1272 1234
f 1272 1268 1234
f 1237 1238 1240
f 1238 1239 1240
f 1280 1323 1282
f 1323 1322 1282
f 1309 1313 1340
f 1313 1337 1340
f 1328 1307 1327
f 1307 1304 1327
f 1324 1327 1295
f 1327 1297 1295
f 1312 1310 1316
f 1310 1329 1316
f 1319 1326 1274
f 1326 1323 1274
f 1327 1304 1297
f 1304 1301 1297
f 1286 1321 1289
f 1321 1292 1289
f 1316 1329 1319
f 1329 1326 1319
f 1329 1310 1328
f 1310 1307 1328
f 1274 1323 1276
f 1323 1280 1276
f 1282 1322 1286
f 1322 1321 1286
f 1321 1324 1292
f 1324 1295 1292
f 1277 1278 1279
f 1278 1281 1279
f 1278 1276 1281
f 1276 1280 1281
f 1283 1284 1285
f 1284 1287 1285
f 1284 1282 1287
f 1282 1286 1287
f 1298 1299 1300
f 1299 1302 1300
f 1299 1297 1302
f 1297 1301 1302
f 1285 1287 1288
f 1287 1290 1288
f 1287 1286 1290
f 1286 1289 1290
f 1288 1290 1291
f 1290 1293 1291
f 1290 1289 1293
f 1289 1292 1293
f 1300 1302 1303
f 1302 1305 1303
f 1302 1301 1305
f 1301 1304 1305
f 1303 1305 1306
f 1305 1308 1306
f 1305 1304 1308
f 1304 1307 1308
f 1313 1314 1315
f 1314 1317 1315
f 1314 1312 1317
f 1312 1316 1317
f 1291 1293 1294
f 1293 1296 1294
f 1293 1292 1296
f 1292 1295 1296
f 1294 1296 1298
f 1296 1299 1298
f 1296 1295 1299
f 1295 1297 1299
f 1306 1308 1309
f 1308 1311 1309
f 1308 1307 1311
f 1307 1310 1311
f 1309 1311 1313
f 1311 1314 1313
f 1311 1310 1314
f 1310 1312 1314
f 1315 1317 1318
f 1317 1320 1318
f 1317 1316 1320
f 1316 1319 1320
f 1279 1281 1283
f 1281 1284 1283
f 1281 1280 1284
f 1280 1282 1284
f 1318 1320 1273
f 1320 1275 1273
f 1320 1319 1275
f 1319 1274 1275
f 1273 1275 1277
f 1275 1278 1277
f 1275 1274 1278
f 1274 1276 1278
f 1322 1325 1321
f 1325 1324 1321
f 1325 1328 1324
f 1328 1327 1324
f 1323 1326 1322
f 1326 1325 1322
f 1326 1329 1325
f 1329 1328 1325
f 1334 1330 1335
f 1330 1332 1335
f 1335 1332 1333
f 1332 1331 1333
f 1337 1334 1338
f 1334 1335 1338
f 1338 1335 1336
f 1335 1333 1336
f 1340 1337 1341
f 1337 1338 1341
f 1341 1338 1339
f 1338 1336 1339
f 1343 1340 1344
f 1340 1341 1344
f 1344 1341 1342
f 1341 1339 1342
f 1346 1343 1347
f 1343 1344 1347
f 1347 1344 1345
f 1344 1342 1345
f 1349 1346 1350
f 1346 1347 1350
f 1350 1347 1348
f 1347 1345 1348
f 1352 1349 1353
f 1349 1350 1353
f 1353 1350 1351
f 1350 1348 1351
f 1355 1352 1356
f 1352 1353 1356
f 1356 1353 1354
f 1353 1351 1354
f 1358 1355 1359
f 1355 1356 1359
f 1359 1356 1357
f 1356 1354 1357
f 1361 1358 1362
f 1358 1359 1362
f 1362 1359 1360
f 1359 1357 1360
f 1364 1361 1365
f 1361 1362 1365
f 1365 1362 1363
f 1362 1360 1363
f 1367 1364 1368
f 1364 1365 1368
f 1368 1365 1366
f 1365 1363 1366
f 1370 1367 1371
f 1367 1368 1371
f 1371 1368 1369
f 1368 1366 1369
f 1373 1370 1374
f 1370 1371 1374
f 1374 1371 1372
f 1371 1369 1372
f 1376 1373 1377
f 1373 1374 1377
f 1377 1374 1375
f 1374 1372 1375
f 1330 1376 1332
f 1376 1377 1332
f 1332 1377 1331
f 1377 1375 1331
f 1288 1291 1361
f 1291 1358 1361
f 1313 1315 1337
f 1315 1334 1337
f 1291 1294 1358
f 1294 1355 1358
f 1330 1318 1376
f 1318 1273 1376
f 1315 1318 1334
f 1318 1330 1334
f 1294 1298 1355
f 1298 1352 1355
f 1376 1273 1373
f 1273 1277 1373
f 1298 1300 1352
f 1300 1349 1352
f 1277 1279 1373
f 1279 1370 1373
f 1300 1303 1349
f 1303 1346 1349
f 1279 1283 1370
f 1283 1367 1370
f 1303 1306 1346
f 1306 1343 1346
f 1283 1285 1367
f 1285 1364 1367
f 1306 1309 1343
f 1309 1340 1343
f 1285 1288 1364
f 1288 1361 1364
o Part.10
v 27.96 0.02 -47.96
v 27.96 0.02 -40.04
v 20.04 0.02 -40.04
v 20.04 0.02 -47.96
v 20.04 9.58 -47.96
v 20.04 9.58 -40.04
v 27.96 9.58 -40.04
v 27.96 9.58 -47.96
v 21.6 0.02 -46.4
v 21.6 0.02 -41.6
v 26.4 0.02 -41.6
v 26.4 0.02 -46.4
v 26.4 8.6 -46.4
v 26.4 8.6 -41.6
v 21.6 8.6 -41.6
v 21.6 8.6 -46.4
v 27.96 0.02 -40.04
v 27.96 0.02 -40.04
v 20.04 0.02 -40.04
v 20.04 0.02 -40.04
v 27.96 0.02 -47.96
v 27.96 0.02 -47.96
v 20.04 0.02 -47.96
v 20.04 0.02 -47.96
v 20.04 9.58 -47.96
v 20.04 9.58 -47.96
v 20.04 9.58 -40.04
v 20.04 9.58 -40.04
v 27.96 9.58 -47.96
v 27.96 9.58 -47.96
v 27.96 9.58 -40.04
v 27.96 9.58 -40.04
v 21.6 0.02 -46.4
v 21.6 0.02 -46.4
v 21.6 0.02 -41.6
v 21.6 0.02 -41.6
v 26.4 0.02 -46.4
v 26.4 0.02 -46.4
v 26.4 0.02 -41.6
v 26.4 0.02 -41.6
v 26.4 8.6 -41.6
v 26.4 8.6 -41.6
v 21.6 8.6 -41.6
v 21.6 8.6 -41.6
v 26.4 8.6 -46.4
v 26.4 8.6 -46.4
v 21.6 8.6 -46.4
v 21.6 8.6 -46.4
v 24.918 11.15 -46.217
v 24.821 11.4 -45.982
v 24.89 11.327 -46.148
v 25.517 11.4 -45.517
v 25.697 11.15 -45.697
v 25.644 11.327 -45.644
v 26.217 11.15 -44.918
v 25.982 11.4 -44.821
v 26.148 11.327 -44.89
v 26.145 11.4 -44
v 26.4 11.15 -44
v 26.325 11.327 -44
v 26.217 11.15 -43.082
v 25.982 11.4 -43.179
v 26.148 11.327 -43.11
v 25.697 11.15 -42.303
v 25.517 11.4 -42.483
v 25.644 11.327 -42.356
v 24.918 11.15 -41.783
v 24.821 11.4 -42.018
v 24.89 11.327 -41.852
v 24 11.15 -41.6
v 24 11.4 -41.855
v 24 11.327 -41.675
v 23.179 11.4 -42.018
v 23.082 11.15 -41.783
v 23.11 11.327 -41.852
v 22.303 11.15 -42.303
v 22.483 11.4 -42.483
v 22.356 11.327 -42.356
v 21.783 11.15 -43.082
v 22.018 11.4 -43.179
v 21.852 11.327 -43.11
v 21.6 11.15 -44
v 21.855 11.4 -44
v 21.675 11.327 -44
v 21.783 11.15 -44.918
v 22.018 11.4 -44.821
v 21.852 11.327 -44.89
v 22.483 11.4 -45.517
v 22.303 11.15 -45.697
v 22.356 11.327 -45.644
v 23.082 11.15 -46.217
v 23.179 11.4 -45.982
v 23.11 11.327 -46.148
v 24 11.15 -46.4
v 24 11.4 -46.145
v 24 11.327 -46.325
v 25.063 11.4 -42.986
v 25.164 11.4 -44
v 25.063 11.4 -45.014
v 24 11.4 -42.903
v 24 11.4 -44
v 24 11.4 -45.097
v 22.937 11.4 -42.986
v 22.836 11.4 -44
v 22.937 11.4 -45.014
v 24 9.73 -46.4
v 24 9.58 -46.553
v 24 9.624 -46.445
v 23.023 9.58 -46.359
v 23.082 9.73 -46.217
v 23.064 9.624 -46.259
v 22.195 9.58 -45.805
v 22.303 9.73 -45.697
v 22.271 9.624 -45.729
v 21.641 9.58 -44.977
v 21.783 9.73 -44.918
v 21.741 9.624 -44.936
v 21.447 9.58 -44
v 21.6 9.73 -44
v 21.555 9.624 -44
v 21.641 9.58 -43.023
v 21.783 9.73 -43.082
v 21.741 9.624 -43.064
v 22.195 9.58 -42.195
v 22.303 9.73 -42.303
v 22.271 9.624 -42.271
v 23.023 9.58 -41.641
v 23.082 9.73 -41.783
v 23.064 9.624 -41.741
v 24 9.58 -41.447
v 24 9.73 -41.6
v 24 9.624 -41.555
v 24.977 9.58 -41.641
v 24.918 9.73 -41.783
v 24.936 9.624 -41.741
v 25.805 9.58 -42.195
v 25.697 9.73 -42.303
v 25.729 9.624 -42.271
v 26.359 9.58 -43.023
v 26.217 9.73 -43.082
v 26.259 9.624 -43.064
v 26.553 9.58 -44
v 26.4 9.73 -44
v 26.445 9.624 -44
v 26.359 9.58 -44.977
v 26.217 9.73 -44.918
v 26.259 9.624 -44.936
v 25.805 9.58 -45.805
v 25.697 9.73 -45.697
v 25.729 9.624 -45.729
v 24.977 9.58 -46.359
v 24.918 9.73 -46.217
v 24.936 9.624 -46.259
usemtl MB_192
s off
f 1397 1404 1401
f 1404 1402 1401
f 1406 1399 1403
f 1399 1400 1403
f 1398 1407 1395
f 1407 1408 1395
f 1394 1409 1396
f 1409 1405 1396
f 1383 1384 1382
f 1384 1385 1382
f 1381 1410 1380
f 1410 1412 1380
f 1378 1414 1381
f 1414 1410 1381
f 1414 1378 1416
f 1378 1379 1416
f 1380 1412 1379
f 1412 1416 1379
f 1413 1420 1417
f 1420 1418 1417
f 1388 1419 1415
f 1419 1422 1415
f 1389 1423 1411
f 1423 1424 1411
f 1386 1425 1387
f 1425 1421 1387
f 1390 1391 1393
f 1391 1392 1393
f 1433 1476 1435
f 1476 1475 1435
f 1462 1466 1493
f 1466 1490 1493
f 1481 1460 1480
f 1460 1457 1480
f 1477 1480 1448
f 1480 1450 1448
f 1465 1463 1469
f 1463 1482 1469
f 1472 1479 1427
f 1479 1476 1427
f 1480 1457 1450
f 1457 1454 1450
f 1439 1474 1442
f 1474 1445 1442
f 1469 1482 1472
f 1482 1479 1472
f 1482 1463 1481
f 1463 1460 1481
f 1427 1476 1429
f 1476 1433 1429
f 1435 1475 1439
f 1475 1474 1439
f 1474 1477 1445
f 1477 1448 1445
f 1430 1431 1432
f 1431 1434 1432
f 1431 1429 1434
f 1429 1433 1434
f 1436 1437 1438
f 1437 1440 1438
f 1437 1435 1440
f 1435 1439 1440
f 1451 1452 1453
f 1452 1455 1453
f 1452 1450 1455
f 1450 1454 1455
f 1438 1440 1441
f 1440 1443 1441
f 1440 1439 1443
f 1439 1442 1443
f 1441 1443 1444
f 1443 1446 1444
f 1443 1442 1446
f 1442 1445 1446
f 1453 1455 1456
f 1455 1458 1456
f 1455 1454 1458
f 1454 1457 1458
f 1456 1458 1459
f 1458 1461 1459
f 1458 1457 1461
f 1457 1460 1461
f 1466 1467 1468
f 1467 1470 1468
f 1467 1465 1470
f 1465 1469 1470
f 1444 1446 1447
f 1446 1449 1447
f 1446 1445 1449
f 1445 1448 1449
f 1447 1449 1451
f 1449 1452 1451
f 1449 1448 1452
f 1448 1450 1452
f 1459 1461 1462
f 1461 1464 1462
f 1461 1460 1464
f 1460 1463 1464
f 1462 1464 1466
f 1464 1467 1466
f 1464 1463 1467
f 1463 1465 1467
f 1468 1470 1471
f 1470 1473 1471
f 1470 1469 1473
f 1469 1472 1473
f 1432 1434 1436
f 1434 1437 1436
f 1434 1433 1437
f 1433 1435 1437
f 1471 1473 1426
f 1473 1428 1426
f 1473 1472 1428
f 1472 1427 1428
f 1426 1428 1430
f 1428 1431 1430
f 1428 1427 1431
f 1427 1429 1431
f 1475 1478 1474
f 1478 1477 1474
f 1478 1481 1477
f 1481 1480 1477
f 1476 1479 1475
f 1479 1478 1475
f 1479 1482 1478
f 1482 1481 1478
f 1487 1483 1488
f 1483 1485 1488
f 1488 1485 1486
f 1485 1484 1486
f 1490 1487 1491
f 1487 1488 1491
f 1491 1488 1489
f 1488 1486 1489
f 1493 1490 1494
f 1490 1491 1494
f 1494 1491 1492
f 1491 1489 1492
f 1496 1493 1497
f 1493 1494 1497
f 1497 1494 1495
f 1494 1492 1495
f 1499 1496 1500
f 1496 1497 1500
f 1500 1497 1498
f 1497 1495 1498
f 1502 1499 1503
f 1499 1500 1503
f 1503 1500 1501
f 1500 1498 1501
f 1505 1502 1506
f 1502 1503 1506
f 1506 1503 1504
f 1503 1501 1504
f 1508 1505 1509
f 1505 1506 1509
f 1509 1506 1507
f 1506 1504 1507
f 1511 1508 1512
f 1508 1509 1512
f 1512 1509 1510
f 1509 1507 1510
f 1514 1511 1515
f 1511 1512 1515
f 1515 1512 1513
f 1512 1510 1513
f 1517 1514 1518
f 1514 1515 1518
f 1518 1515 1516
f 1515 1513 1516
f 1520 1517 1521
f 1517 1518 1521
f 1521 1518 1519
f 1518 1516 1519
f 1523 1520 1524
f 1520 1521 1524
f 1524 1521 1522
f 1521 1519 1522
f 1526 1523 1527
f 1523 1524 1527
f 1527 1524 1525
f 1524 1522 1525
f 1529 1526 1530
f 1526 1527 1530
f 1530 1527 1528
f 1527 1525 1528
f 1483 1529 1485
f 1529 1530 1485
f 1485 1530 1484
f 1530 1528 1484
f 1441 1444 1514
f 1444 1511 1514
f 1466 1468 1490
f 1468 1487 1490
f 1444 1447 1511
f 1447 1508 1511
f 1483 1471 1529
f 1471 1426 1529
f 1468 1471 1487
f 1471 1483 1487
f 1447 1451 1508
f 1451 1505 1508
f 1529 1426 1526
f 1426 1430 1526
f 1451 1453 1505
f 1453 1502 1505
f 1430 1432 1526
f 1432 1523 1526
f 1453 1456 1502
f 1456 1499 1502
f 1432 1436 1523
f 1436 1520 1523
f 1456 1459 1499
f 1459 1496 1499
f 1436 1438 1520
f 1438 1517 1520
f 1459 1462 1496
f 1462 1493 1496
f 1438 1441 1517
f 1441 1514 1517
o Part.11
v -36.04 0.02 -47.96
v -36.04 0.02 -40.04
v -43.96 0.02 -40.04
v -43.96 0.02 -47.96
v -43.96 9.58 -47.96
v -43.96 9.58 -40.04
v -36.04 9.58 -40.04
v -36.04 9.58 -47.96
v -42.4 0.02 -46.4
v -42.4 0.02 -41.6
v -37.6 0.02 -41.6
v -37.6 0.02 -46.4
v -37.6 8.6 -46.4
v -37.6 8.6 -41.6
v -42.4 8.6 -41.6
v -42.4 8.6 -46.4
v -36.04 0.02 -40.04
v -36.04 0.02 -40.04
v -43.96 0.02 -40.04
v -43.96 0.02 -40.04
v -36.04 0.02 -47.96
v -36.04 0.02 -47.96
v -43.96 0.02 -47.96
v -43.96 0.02 -47.96
v -43.96 9.58 -47.96
v -43.96 9.58 -47.96
v -43.96 9.58 -40.04
v -43.96 9.58 -40.04
v -36.04 9.58 -47.96
v -36.04 9.58 -47.96
v -36.04 9.58 -40.04
v -36.04 9.58 -40.04
v -42.4 0.02 -46.4
v -42.4 0.02 -46.4
v -42.4 0.02 -41.6
v -42.4 0.02 -41.6
v -37.6 0.02 -46.4
v -37.6 0.02 -46.4
v -37.6 0.02 -41.6
v -37.6 0.02 -41.6
v -37.6 8.6 -41.6
v -37.6 8.6 -41.6
v -42.4 8.6 -41.6
v -42.4 8.6 -41.6
v -37.6 8.6 -46.4
v -37.6 8.6 -46.4
v -42.4 8.6 -46.4
v -42.4 8.6 -46.4
v -39.082 11.15 -46.217
v -39.179 11.4 -45.982
v -39.11 11.327 -46.148
v -38.483 11.4 -45.517
v -38.303 11.15 -45.697
v -38.356 11.327 -45.644
v -37.783 11.15 -44.918
v -38.018 11.4 -44.821
v -37.852 11.327 -44.89
v -37.855 11.4 -44
v -37.6 11.15 -44
v -37.675 11.327 -44
v -37.783 11.15 -43.082
v -38.018 11.4 -43.179
v -37.852 11.327 -43.11
v -38.303 11.15 -42.303
v -38.483 11.4 -42.483
v -38.356 11.327 -42.356
v -39.082 11.15 -41.783
v -39.179 11.4 -42.018
v -39.11 11.327 -41.852
v -40 11.15 -41.6
v -40 11.4 -41.855
v -40 11.327 -41.675
v -40.821 11.4 -42.018
v -40.918 11.15 -41.783
v -40.89 11.327 -41.852
v -41.697 11.15 -42.303
v -41.517 11.4 -42.483
v -41.644 11.327 -42.356
v -42.217 11.15 -43.082
v -41.982 11.4 -43.179
v -42.148 11.327 -43.11
v -42.4 11.15 -44
v -42.145 11.4 -44
v -42.325 11.327 -44
v -42.217 11.15 -44.918
v -41.982 11.4 -44.821
v -42.148 11.327 -44.89
v -41.517 11.4 -45.517
v -41.697 11.15 -45.697
v -41.644 11.327 -45.644
v -40.918 11.15 -46.217
v -40.821 11.4 -45.982
v -40.89 11.327 -46.148
v -40 11.15 -46.4
v -40 11.4 -46.145
v -40 11.327 -46.325
v -38.937 11.4 -42.986
v -38.836 11.4 -44
v -38.937 11.4 -45.014
v -40 11.4 -42.903
v -40 11.4 -44
v -40 11.4 -45.097
v -41.063 11.4 -42.986
v -41.164 11.4 -44
v -41.063 11.4 -45.014
v -40 9.73 -46.4
v -40 9.58 -46.553
v -40 9.624 -46.445
v -40.977 9.58 -46.359
v -40.918 9.73 -46.217
v -40.936 9.624 -46.259
v -41.805 9.58 -45.805
v -41.697 9.73 -45.697
v -41.729 9.624 -45.729
v -42.359 9.58 -44.977
v -42.217 9.73 -44.918
v -42.259 9.624 -44.936
v -42.553 9.58 -44
v -42.4 9.73 -44
v -42.445 9.624 -44
v -42.359 9.58 -43.023
v -42.217 9.73 -43.082
v -42.259 9.624 -43.064
v -41.805 9.58 -42.195
v -41.697 9.73 -42.303
v -41.729 9.624 -42.271
v -40.977 9.58 -41.641
v -40.918 9.73 -41.783
v -40.936 9.624 -41.741
v -40 9.58 -41.447
v -40 9.73 -41.6
v -40 9.624 -41.555
v -39.023 9.58 -41.641
v -39.082 9.73 -41.783
v -39.064 9.624 -41.741
v -38.195 9.58 -42.195
v -38.303 9.73 -42.303
v -38.271 9.624 -42.271
v -37.641 9.58 -43.023
v -37.783 9.73 -43.082
v -37.741 9.624 -43.064
v -37.447 9.58 -44
v -37.6 9.73 -44
v -37.555 9.624 -44
v -37.641 9.58 -44.977
v -37.783 9.73 -44.918
v -37.741 9.624 -44.936
v -38.195 9.58 -45.805
v -38.303 9.73 -45.697
v -38.271 9.624 -45.729
v -39.023 9.58 -46.359
v -39.082 9.73 -46.217
v -39.064 9.624 -46.259
usemtl MB_192
s off
f 1550 1557 1554
f 1557 1555 1554
f 1559 1552 1556
f 1552 1553 1556
f 1551 1560 1548
f 1560 1561 1548
f 1547 1562 1549
f 1562 1558 1549
f 1536 1537 1535
f 1537 1538 1535
f 1534 1563 1533
f 1563 1565 1533
f 1531 1567 1534
f 1567 1563 1534
f 1567 1531 1569
f 1531 1532 1569
f 1533 1565 1532
f 1565 1569 1532
f 1566 1573 1570
f 1573 1571 1570
f 1541 1572 1568
f 1572 1575 1568
f 1542 1576 1564
f 1576 1577 1564
f 1539 1578 1540
f 1578 1574 1540
f 1543 1544 1546
f 1544 1545 1546
f 1586 1629 1588
f 1629 1628 1588
f 1615 1619 1646
f 1619 1643 1646
f 1634 1613 1633
f 1613 1610 1633
f 1630 1633 1601
f 1633 1603 1601
f 1618 1616 1622
f 1616 1635 1622
f 1625 1632 1580
f 1632 1629 1580
f 1633 1610 1603
f 1610 1607 1603
f 1592 1627 1595
f 1627 1598 1595
f 1622 1635 1625
f 1635 1632 1625
f 1635 1616 1634
f 1616 1613 1634
f 1580 1629 1582
f 1629 1586 1582
f 1588 1628 1592
f 1628 1627 1592
f 1627 1630 1598
f 1630 1601 1598
f 1583 1584 1585
f 1584 1587 1585
f 1584 1582 1587
f 1582 1586 1587
f 1589 1590 1591
f 1590 1593 1591
f 1590 1588 1593
f 1588 1592 1593
f 1604 1605 1606
f 1605 1608 1606
f 1605 1603 1608
f 1603 1607 1608
f 1591 1593 1594
f 1593 1596 1594
f 1593 1592 1596
f 1592 1595 1596
f 1594 1596 1597
f 1596 1599 1597
f 1596 1595 1599
f 1595 1598 1599
f 1606 1608 1609
f 1608 1611 1609
f 1608 1607 1611
f 1607 1610 1611
f 1609 1611 1612
f 1611 1614 1612
f 1611 1610 1614
f 1610 1613 1614
f 1619 1620 1621
f 1620 1623 1621
f 1620 1618 1623
f 1618 1622 1623
f 1597 1599 1600
f 1599 1602 1600
f 1599 1598 1602
f 1598 1601 1602
f 1600 1602 1604
f 1602 1605 1604
f 1602 1601 1605
f 1601 1603 1605
f 1612 1614 1615
f 1614 1617 1615
f 1614 1613 1617
f 1613 1616 1617
f 1615 1617 1619
f 1617 1620 1619
f 1617 1616 1620
f 1616 1618 1620
f 1621 1623 1624
f 1623 1626 1624
f 1623 1622 1626
f 1622 1625 1626
f 1585 1587 1589
f 1587 1590 1589
f 1587 1586 1590
f 1586 1588 1590
f 1624 1626 1579
f 1626 1581 1579
f 1626 1625 1581
f 1625 1580 1581
f 1579 1581 1583
f 1581 1584 1583
f 1581 1580 1584
f 1580 1582 1584
f 1628 1631 1627
f 1631 1630 1627
f 1631 1634 1630
f 1634 1633 1630
f 1629 1632 1628
f 1632 1631 1628
f 1632 1635 1631
f 1635 1634 1631
f 1640 1636 1641
f 1636 1638 1641
f 1641 1638 1639
f 1638 1637 1639
f 1643 1640 1644
f 1640 1641 1644
f 1644 1641 1642
f 1641 1639 1642
f 1646 1643 1647
f 1643 1644 1647
f 1647 1644 1645
f 1644 1642 1645
f 1649 1646 1650
f 1646 1647 1650
f 1650 1647 1648
f 1647 1645 1648
f 1652 1649 1653
f 1649 1650 1653
f 1653 1650 1651
f 1650 1648 1651
f 1655 1652 1656
f 1652 1653 1656
f 1656 1653 1654
f 1653 1651 1654
f 1658 1655 1659
f 1655 1656 1659
f 1659 1656 1657
f 1656 1654 1657
f 1661 1658 1662
f 1658 1659 1662
f 1662 1659 1660
f 1659 1657 1660
f 1664 1661 1665
f 1661 1662 1665
f 1665 1662 1663
f 1662 1660 1663
f 1667 1664 1668
f 1664 1665 1668
f 1668 1665 1666
f 1665 1663 1666
f 1670 1667 1671
f 1667 1668 1671
f 1671 1668 1669
f 1668 1666 1669
f 1673 1670 1674
f 1670 1671 1674
f 1674 1671 1672
f 1671 1669 1672
f 1676 1673 1677
f 1673 1674 1677
f 1677 1674 1675
f 1674 1672 1675
f 1679 1676 1680
f 1676 1677 1680
f 1680 1677 1678
f 1677 1675 1678
f 1682 1679 1683
f 1679 1680 1683
f 1683 1680 1681
f 1680 1678 1681
f 1636 1682 1638
f 1682 1683 1638
f 1638 1683 1637
f 1683 1681 1637
f 1594 1597 1667
f 1597 1664 1667
f 1619 1621 1643
f 1621 1640 1643
f 1597 1600 1664
f 1600 1661 1664
f 1636 1624 1682
f 1624 1579 1682
f 1621 1624 1640
f 1624 1636 1640
f 1600 1604 1661
f 1604 1658 1661
f 1682 1579 1679
f 1579 1583 1679
f 1604 1606 1658
f 1606 1655 1658
f 1583 1585 1679
f 1585 1676 1679
f 1606 1609 1655
f 1609 1652 1655
f 1585 1589 1676
f 1589 1673 1676
f 1609 1612 1652
f 1612 1649 1652
f 1589 1591 1673
f 1591 1670 1673
f 1612 1615 1649
f 1615 1646 1649
f 1591 1594 1670
f 1594 1667 1670
